<mxfile host="app.diagrams.net" modified="2021-08-27T03:31:33.440Z" agent="5.0 (Windows NT 10.0; WOW64) AppleWebKit/537.36 (KHTML, like Gecko) Chrome/86.0.4240.198 Safari/537.36" etag="dlkrW4Y32tuEwsO7GHmv" version="14.9.3" type="github">
  <diagram name="Page-1" id="7a6c530e-6e37-e111-ec74-82921da8cc10">
    <mxGraphModel dx="1422" dy="734" grid="1" gridSize="10" guides="1" tooltips="1" connect="1" arrows="1" fold="1" page="1" pageScale="1.5" pageWidth="1169" pageHeight="826" background="none" math="0" shadow="0">
      <root>
        <mxCell id="0" style=";html=1;" />
        <mxCell id="1" style=";html=1;" parent="0" />
        <mxCell id="iyrO_WsNyvsdMTxw4tpP-9" value="" style="shape=image;verticalLabelPosition=bottom;labelBackgroundColor=#ffffff;verticalAlign=top;aspect=fixed;imageAspect=0;image=data:image/svg+xml,PHN2ZyB4bWxuczpjYz0iaHR0cDovL2NyZWF0aXZlY29tbW9ucy5vcmcvbnMjIiB4bWxuczpkYz0iaHR0cDovL3B1cmwub3JnL2RjL2VsZW1lbnRzLzEuMS8iIHhtbG5zOmlua3NjYXBlPSJodHRwOi8vd3d3Lmlua3NjYXBlLm9yZy9uYW1lc3BhY2VzL2lua3NjYXBlIiB4bWxuczpyZGY9Imh0dHA6Ly93d3cudzMub3JnLzE5OTkvMDIvMjItcmRmLXN5bnRheC1ucyMiIHhtbG5zOnNvZGlwb2RpPSJodHRwOi8vc29kaXBvZGkuc291cmNlZm9yZ2UubmV0L0RURC9zb2RpcG9kaS0wLmR0ZCIgeG1sbnM6c3ZnPSJodHRwOi8vd3d3LnczLm9yZy8yMDAwL3N2ZyIgeG1sbnM9Imh0dHA6Ly93d3cudzMub3JnLzIwMDAvc3ZnIiB4bWxuczp4bGluaz0iaHR0cDovL3d3dy53My5vcmcvMTk5OS94bGluayIgdmVyc2lvbj0iMS4xIiBpZD0ic3ZnNjc4MzQiIGlua3NjYXBlOnZlcnNpb249IjAuOTIuMyAoMjQwNTU0NiwgMjAxOC0wMy0xMSkiIHNvZGlwb2RpOmRvY25hbWU9ImJvdC5zdmciIHg9IjBweCIgeT0iMHB4IiB2aWV3Qm94PSIwIDAgNjEuNjcgODUuMTciIHN0eWxlPSJlbmFibGUtYmFja2dyb3VuZDpuZXcgMCAwIDYxLjY3IDg1LjE3OyIgeG1sOnNwYWNlPSJwcmVzZXJ2ZSI+JiN4YTs8c29kaXBvZGk6bmFtZWR2aWV3IGJvcmRlcmNvbG9yPSIjNjY2NjY2IiBib3JkZXJvcGFjaXR5PSIxIiBmaXQtbWFyZ2luLWJvdHRvbT0iMCIgZml0LW1hcmdpbi1sZWZ0PSIwIiBmaXQtbWFyZ2luLXJpZ2h0PSIwIiBmaXQtbWFyZ2luLXRvcD0iMCIgZ3JpZHRvbGVyYW5jZT0iMTAiIGd1aWRldG9sZXJhbmNlPSIxMCIgaWQ9Im5hbWVkdmlldzY3ODM2IiBpbmtzY2FwZTpjdXJyZW50LWxheWVyPSJzdmc2NzgzNCIgaW5rc2NhcGU6Y3g9IjMwLjgzNTY0OCIgaW5rc2NhcGU6Y3k9IjQ4LjE2MTg3MSIgaW5rc2NhcGU6cGFnZW9wYWNpdHk9IjAiIGlua3NjYXBlOnBhZ2VzaGFkb3c9IjIiIGlua3NjYXBlOndpbmRvdy1oZWlnaHQ9IjEwMTciIGlua3NjYXBlOndpbmRvdy1tYXhpbWl6ZWQ9IjEiIGlua3NjYXBlOndpbmRvdy13aWR0aD0iMTkyMCIgaW5rc2NhcGU6d2luZG93LXg9Ii04IiBpbmtzY2FwZTp3aW5kb3cteT0iLTgiIGlua3NjYXBlOnpvb209IjUuMjk2NDI0OCIgb2JqZWN0dG9sZXJhbmNlPSIxMCIgcGFnZWNvbG9yPSIjZmZmZmZmIiBzaG93Z3JpZD0iZmFsc2UiPiYjeGE7CTwvc29kaXBvZGk6bmFtZWR2aWV3PiYjeGE7PGcgaWQ9Imc2NzgzMiIgdHJhbnNmb3JtPSJ0cmFuc2xhdGUoLTEuNTI5ODkzLC0wLjg5NDUwOTgpIj4mI3hhOwk8dGl0bGUgaWQ9InRpdGxlNjc2OTYiPlBhZ2UtMTwvdGl0bGU+JiN4YTsJPGcgaWQ9Imdyb3VwNTcwOS0xIiB0cmFuc2Zvcm09InRyYW5zbGF0ZSgzLjg3NzUsLTAuNzUpIj4mI3hhOwkJPHRpdGxlIGlkPSJ0aXRsZTY3Njk4Ij5Cb3Q8L3RpdGxlPiYjeGE7CQk8ZyBpZD0iZ3JvdXA1NzEwLTIiPiYjeGE7CQkJPHRpdGxlIGlkPSJ0aXRsZTY3NzAwIj5nNzA3MTwvdGl0bGU+JiN4YTsJCQk8ZyBpZD0iZ3JvdXA1NzExLTMiIHRyYW5zZm9ybT0idHJhbnNsYXRlKDI0LjYxMzgsLTU5LjI0MjUpIj4mI3hhOwkJCQk8dGl0bGUgaWQ9InRpdGxlNjc3MDIiPmc3MDQxPC90aXRsZT4mI3hhOwkJCQk8ZyBpZD0ic2hhcGU1NzEyLTQiIHRyYW5zZm9ybT0idHJhbnNsYXRlKDEuODYxMTYpIj4mI3hhOwkJCQkJPHRpdGxlIGlkPSJ0aXRsZTY3NzA0Ij5yZWN0NzAzNzwvdGl0bGU+JiN4YTsJCQkJCTxwYXRoIGlkPSJwYXRoNjc3MDYiIGlua3NjYXBlOmNvbm5lY3Rvci1jdXJ2YXR1cmU9IjAiIHN0eWxlPSJmaWxsOiMwMDc4RDc7IiBkPSJNMCw4NS4zMWMwLDAuODMsMC42NywxLjUsMS41LDEuNWgwLjI3ICAgICAgIGMwLjgzLDAsMS41LTAuNjcsMS41LTEuNVY3NS4yNWMwLTAuODMtMC42Ny0xLjUtMS41LTEuNUgxLjVjLTAuODMsMC0xLjUsMC42Ny0xLjUsMS41Vjg1LjMxeiIvPiYjeGE7CQkJCTwvZz4mI3hhOwkJCQk8ZyBpZD0ic2hhcGU1NzEzLTYiIHRyYW5zZm9ybT0idHJhbnNsYXRlKDAsLTEyLjA3MjYpIj4mI3hhOwkJCQkJPHRpdGxlIGlkPSJ0aXRsZTY3NzA5Ij5wYXRoNzAzOTwvdGl0bGU+JiN4YTsJCQkJCTxwYXRoIGlkPSJwYXRoNjc3MTEiIGlua3NjYXBlOmNvbm5lY3Rvci1jdXJ2YXR1cmU9IjAiIHN0eWxlPSJmaWxsOiMwMDc4RDc7IiBkPSJNMy41LDc4LjQ2Yy0yLjctMC4wMi00LjkxLDIuMTctNC45Miw0Ljg3ICAgICAgIHMyLjE3LDQuOTEsNC44Nyw0LjkyczQuOTEtMi4xNyw0LjkyLTQuODdjMCwwLDAtMC4wMSwwLTAuMDFDOC4zOCw4MC42Nyw2LjIsNzguNDgsMy41LDc4LjQ2eiBNMy41LDg1LjgxICAgICAgIGMtMS4zNSwwLTIuNDUtMS4xLTIuNDUtMi40NWMwLTEuMzUsMS4xLTIuNDUsMi40NS0yLjQ2czIuNDUsMS4xLDIuNDUsMi40NWMwLDAsMCwwLDAsMEM1Ljk1LDg0LjcxLDQuODYsODUuODIsMy41LDg1LjgxICAgICAgIGMwLDAuMDEsMCwwLjAxLDAsMC4wMVY4NS44MXoiLz4mI3hhOwkJCQk8L2c+JiN4YTsJCQk8L2c+JiN4YTsJCQk8ZyBpZD0ic2hhcGU1NzE0LTgiIHRyYW5zZm9ybT0idHJhbnNsYXRlKDExLjk4NSwtNDQuOTI1KSI+JiN4YTsJCQkJPHRpdGxlIGlkPSJ0aXRsZTY3NzE1Ij5yZWN0NzA0MzwvdGl0bGU+JiN4YTsJCQkJJiN4YTsJCQkJCTxwYXRoIGlkPSJwYXRoNjc3MTciIGlua3NjYXBlOmNvbm5lY3Rvci1jdXJ2YXR1cmU9IjAiIHN0eWxlPSJmaWxsOiNFNkU2RTY7c3Ryb2tlOiM3MzczNzM7c3Ryb2tlLXdpZHRoOjEuNTtzdHJva2UtbWl0ZXJsaW1pdDozOyIgZD0iICAgICAgTTAsODMuODFjMCwxLjY2LDEuMzQsMywzLDNoMjcuNzVjMS42NiwwLDMtMS4zNCwzLTN2LTEwLjVjMC0xLjY2LTEuMzQtMy0zLTNIM2MtMS42NiwwLTMsMS4zNC0zLDNWODMuODF6Ii8+JiN4YTsJCQk8L2c+JiN4YTsJCQk8ZyBpZD0ic2hhcGU1NzE1LTEwIiB0cmFuc2Zvcm09InRyYW5zbGF0ZSgxNy45ODUsLTQuOTEyNSkiPiYjeGE7CQkJCTx0aXRsZSBpZD0idGl0bGU2NzcyMCI+cmVjdDcwNDU8L3RpdGxlPiYjeGE7CQkJCTxwYXRoIGlkPSJwYXRoNjc3MjIiIGlua3NjYXBlOmNvbm5lY3Rvci1jdXJ2YXR1cmU9IjAiIHN0eWxlPSJmaWxsOiM3MzczNzM7IiBkPSJNMCw4NS4zMWMwLDAuODMsMC42NywxLjUsMS41LDEuNWgyLjQgICAgICBjMC44MywwLDEuNS0wLjY3LDEuNS0xLjV2LTEzLjJjMC0wLjgzLTAuNjctMS41LTEuNS0xLjVIMS41Yy0wLjgzLDAtMS41LDAuNjctMS41LDEuNVY4NS4zMXoiLz4mI3hhOwkJCTwvZz4mI3hhOwkJCTxnIGlkPSJzaGFwZTU3MTYtMTIiIHRyYW5zZm9ybT0idHJhbnNsYXRlKDE0LjMxKSI+JiN4YTsJCQkJPHRpdGxlIGlkPSJ0aXRsZTY3NzI1Ij5wYXRoNzA0NzwvdGl0bGU+JiN4YTsJCQkJPHBhdGggaWQ9InBhdGg2NzcyNyIgaW5rc2NhcGU6Y29ubmVjdG9yLWN1cnZhdHVyZT0iMCIgc3R5bGU9ImZpbGw6IzAwNzhENzsiIGQ9Ik02LjUzLDgwLjA2QzIuODYsODAuMTItMC4wNiw4My4xNCwwLDg2LjgxICAgICAgaDEzLjA2QzEzLjEyLDgzLjE0LDEwLjIsODAuMTIsNi41Myw4MC4wNnoiLz4mI3hhOwkJCTwvZz4mI3hhOwkJCTxnIGlkPSJzaGFwZTU3MTctMTQiIHRyYW5zZm9ybT0idHJhbnNsYXRlKDMyLjk4NSwtNC45MTI1KSI+JiN4YTsJCQkJPHRpdGxlIGlkPSJ0aXRsZTY3NzMwIj5yZWN0NzA0OTwvdGl0bGU+JiN4YTsJCQkJPHBhdGggaWQ9InBhdGg2NzczMiIgaW5rc2NhcGU6Y29ubmVjdG9yLWN1cnZhdHVyZT0iMCIgc3R5bGU9ImZpbGw6IzczNzM3MzsiIGQ9Ik0wLDg1LjMxYzAsMC44MywwLjY3LDEuNSwxLjUsMS41aDIuNCAgICAgIGMwLjgzLDAsMS41LTAuNjcsMS41LTEuNXYtMTMuMmMwLTAuODMtMC42Ny0xLjUtMS41LTEuNUgxLjVjLTAuODMsMC0xLjUsMC42Ny0xLjUsMS41Vjg1LjMxeiIvPiYjeGE7CQkJPC9nPiYjeGE7CQkJPGcgaWQ9InNoYXBlNTcxOC0xNiIgdHJhbnNmb3JtPSJ0cmFuc2xhdGUoMjkuMTYpIj4mI3hhOwkJCQk8dGl0bGUgaWQ9InRpdGxlNjc3MzUiPnBhdGg3MDUxPC90aXRsZT4mI3hhOwkJCQk8cGF0aCBpZD0icGF0aDY3NzM3IiBpbmtzY2FwZTpjb25uZWN0b3ItY3VydmF0dXJlPSIwIiBzdHlsZT0iZmlsbDojMDA3OEQ3OyIgZD0iTTYuNTMsODAuMDZDMi44Niw4MC4xMi0wLjA2LDgzLjE0LDAsODYuODEgICAgICBoMTMuMDZDMTMuMTIsODMuMTQsMTAuMiw4MC4xMiw2LjUzLDgwLjA2eiIvPiYjeGE7CQkJPC9nPiYjeGE7CQkJPGcgaWQ9InNoYXBlNTcxOS0xOCIgdHJhbnNmb3JtPSJyb3RhdGUoLTg1LjA2LC0xNS43NTM3ODksNTAuMTA4NTQxKSI+JiN4YTsJCQkJPHRpdGxlIGlkPSJ0aXRsZTY3NzQwIj5jaXJjbGU3MDUzPC90aXRsZT4mI3hhOwkJCQk8Y2lyY2xlIGlkPSJlbGxpcHNlNjc3NDIiIHN0eWxlPSJmaWxsOiMwMDIwNTA7IiBjeD0iMi43IiBjeT0iODQuMTEiIHI9IjIuNyIvPiYjeGE7CQkJPC9nPiYjeGE7CQkJPGcgaWQ9InNoYXBlNTcyMC0yMCIgdHJhbnNmb3JtPSJyb3RhdGUoLTg1LjA2LC02LjY0MDIyOTksNDAuMTczNTA0KSI+JiN4YTsJCQkJPHRpdGxlIGlkPSJ0aXRsZTY3NzQ1Ij5jaXJjbGU3MDU1PC90aXRsZT4mI3hhOwkJCQk8Y2lyY2xlIGlkPSJlbGxpcHNlNjc3NDciIHN0eWxlPSJmaWxsOiMwMDIwNTA7IiBjeD0iMi43IiBjeT0iODQuMTEiIHI9IjIuNyIvPiYjeGE7CQkJPC9nPiYjeGE7CQkJPGcgaWQ9InNoYXBlNTcyMS0yMiIgdHJhbnNmb3JtPSJ0cmFuc2xhdGUoMzkuMjg1LC0yNS44Mzc1KSI+JiN4YTsJCQkJPHRpdGxlIGlkPSJ0aXRsZTY3NzUwIj5wYXRoNzA1NzwvdGl0bGU+JiN4YTsJCQkJPHBhdGggaWQ9InBhdGg2Nzc1MiIgaW5rc2NhcGU6Y29ubmVjdG9yLWN1cnZhdHVyZT0iMCIgc3R5bGU9ImZpbGw6IzZENkU3MTsiIGQ9Ik0xNS41Miw4MC43NHY2LjA3aC0zLjM3di02LjEzICAgICAgYzAtMC40My0wLjA0LTAuODYtMC4xLTEuMjljLTAuNS0zLjMtMi44My01LjUxLTUuODYtNS41MUgwdi0zLjIzaDYuMjFjNC43LDAsOC42LDMuOTUsOS4yMiw4Ljc3ICAgICAgQzE1LjQ5LDc5Ljg2LDE1LjUyLDgwLjMsMTUuNTIsODAuNzR6Ii8+JiN4YTsJCQk8L2c+JiN4YTsJCQk8ZyBpZD0ic2hhcGU1NzIyLTI0IiB0cmFuc2Zvcm09InRyYW5zbGF0ZSg0OS45NSwtMTkuNSkiPiYjeGE7CQkJCTx0aXRsZSBpZD0idGl0bGU2Nzc1NSI+cGF0aDcwNTk8L3RpdGxlPiYjeGE7CQkJCTxwYXRoIGlkPSJwYXRoNjc3NTciIGlua3NjYXBlOmNvbm5lY3Rvci1jdXJ2YXR1cmU9IjAiIHN0eWxlPSJmaWxsOm5vbmU7IiBkPSJNMCw4Ni44MWMtMS40NS0xLjk0LTEuMDYtNC42OSwwLjg4LTYuMTQgICAgICBzNC42OS0xLjA2LDYuMTQsMC44OGMxLjE3LDEuNTYsMS4xNywzLjcxLDAsNS4yNkgweiIvPiYjeGE7CQkJCSYjeGE7CQkJCQk8cGF0aCBpZD0icGF0aDY3NzU5IiBpbmtzY2FwZTpjb25uZWN0b3ItY3VydmF0dXJlPSIwIiBzdHlsZT0iZmlsbDpub25lO3N0cm9rZTojNkQ2RTcxO3N0cm9rZS13aWR0aDozO3N0cm9rZS1taXRlcmxpbWl0OjM7IiBkPSIgICAgICBNMCw4Ni44MWMtMS40NS0xLjk0LTEuMDYtNC42OSwwLjg4LTYuMTRzNC42OS0xLjA2LDYuMTQsMC44OGMxLjE3LDEuNTYsMS4xNywzLjcxLDAsNS4yNiIvPiYjeGE7CQkJPC9nPiYjeGE7CQkJPGcgaWQ9InNoYXBlNTcyMy0yNyIgdHJhbnNmb3JtPSJ0cmFuc2xhdGUoNDEuMzEsLTMzLjI2MjUpIj4mI3hhOwkJCQk8dGl0bGUgaWQ9InRpdGxlNjc3NjIiPnBhdGg3MDYxPC90aXRsZT4mI3hhOwkJCQk8cGF0aCBpZD0icGF0aDY3NzY0IiBpbmtzY2FwZTpjb25uZWN0b3ItY3VydmF0dXJlPSIwIiBzdHlsZT0iZmlsbDojMDA3OEQ3OyIgZD0iTTEzLjQyLDg2LjgxaC0zLjM3ICAgICAgYy0wLjUtMy4yOS0yLjgzLTUuNS01Ljg3LTUuNUgwdi0zLjI0aDQuMThDOC45Miw3OC4wNywxMi43OSw4MS45OSwxMy40Miw4Ni44MXoiLz4mI3hhOwkJCTwvZz4mI3hhOwkJCTxnIGlkPSJzaGFwZTU3MjQtMjkiIHRyYW5zZm9ybT0idHJhbnNsYXRlKDIuMTYsLTI1LjgzNzUpIj4mI3hhOwkJCQk8dGl0bGUgaWQ9InRpdGxlNjc3NjciPnBhdGg3MDYzPC90aXRsZT4mI3hhOwkJCQk8cGF0aCBpZD0icGF0aDY3NzY5IiBpbmtzY2FwZTpjb25uZWN0b3ItY3VydmF0dXJlPSIwIiBzdHlsZT0iZmlsbDojNkQ2RTcxOyIgZD0iTTAsODAuNzR2Ni4wN2gzLjM3di02LjEzICAgICAgYzAtMC40MywwLjA0LTAuODYsMC4xLTEuMjljMC41LTMuMywyLjgzLTUuNTEsNS44Ny01LjUxaDYuMjF2LTMuMjNIOS4zNGMtNC43MSwwLTguNjEsMy45NS05LjIzLDguNzcgICAgICBDMC4wNCw3OS44NiwwLjAxLDgwLjMsMCw4MC43NHoiLz4mI3hhOwkJCTwvZz4mI3hhOwkJCTxnIGlkPSJzaGFwZTU3MjUtMzEiIHRyYW5zZm9ybT0idHJhbnNsYXRlKDAsLTE5LjUpIj4mI3hhOwkJCQk8dGl0bGUgaWQ9InRpdGxlNjc3NzIiPnBhdGg3MDY1PC90aXRsZT4mI3hhOwkJCQk8cGF0aCBpZD0icGF0aDY3Nzc0IiBpbmtzY2FwZTpjb25uZWN0b3ItY3VydmF0dXJlPSIwIiBzdHlsZT0iZmlsbDpub25lOyIgZD0iTTcuMDIsODYuODFjMS40NS0xLjk0LDEuMDYtNC42OS0wLjg4LTYuMTQgICAgICBTMS40NSw3OS42MSwwLDgxLjU1Yy0xLjE3LDEuNTYtMS4xNywzLjcxLDAsNS4yNkg3LjAyeiIvPiYjeGE7CQkJCSYjeGE7CQkJCQk8cGF0aCBpZD0icGF0aDY3Nzc2IiBpbmtzY2FwZTpjb25uZWN0b3ItY3VydmF0dXJlPSIwIiBzdHlsZT0iZmlsbDpub25lO3N0cm9rZTojNkQ2RTcxO3N0cm9rZS13aWR0aDozO3N0cm9rZS1taXRlcmxpbWl0OjM7IiBkPSIgICAgICBNNy4wMiw4Ni44MWMxLjQ1LTEuOTQsMS4wNi00LjY5LTAuODgtNi4xNFMxLjQ1LDc5LjYxLDAsODEuNTVjLTEuMTcsMS41Ni0xLjE3LDMuNzEsMCw1LjI2Ii8+JiN4YTsJCQk8L2c+JiN4YTsJCQk8ZyBpZD0ic2hhcGU1NzI2LTM0IiB0cmFuc2Zvcm09InRyYW5zbGF0ZSgyLjIzNSwtMzMuMjYyNSkiPiYjeGE7CQkJCTx0aXRsZSBpZD0idGl0bGU2Nzc3OSI+cGF0aDcwNjc8L3RpdGxlPiYjeGE7CQkJCTxwYXRoIGlkPSJwYXRoNjc3ODEiIGlua3NjYXBlOmNvbm5lY3Rvci1jdXJ2YXR1cmU9IjAiIHN0eWxlPSJmaWxsOiMwMDc4RDc7IiBkPSJNMCw4Ni44MWgzLjM2YzAuNS0zLjI5LDIuODMtNS41LDUuODYtNS41aDQuMTkgICAgICB2LTMuMjRIOS4yMkM0LjUsNzguMDcsMC42Myw4MS45OSwwLDg2LjgxeiIvPiYjeGE7CQkJPC9nPiYjeGE7CQkJPGcgaWQ9InNoYXBlNTcyNy0zNiIgdHJhbnNmb3JtPSJ0cmFuc2xhdGUoMTEuMjM1LC0xNS43NSkiPiYjeGE7CQkJCTx0aXRsZSBpZD0idGl0bGU2Nzc4NCI+cGF0aDcwNjk8L3RpdGxlPiYjeGE7CQkJCTxwYXRoIGlkPSJwYXRoNjc3ODYiIGlua3NjYXBlOmNvbm5lY3Rvci1jdXJ2YXR1cmU9IjAiIHN0eWxlPSJmaWxsOiM3MzczNzM7IiBkPSJNMCw1OS44MVY4MS45YzAuMDgsMi43OCwyLjM4LDQuOTcsNS4xNiw0LjkxICAgICAgaDI0LjkzYzIuNzgsMC4wNiw1LjA4LTIuMTMsNS4xNi00LjkxVjU5LjgxSDB6Ii8+JiN4YTsJCQk8L2c+JiN4YTsJCTwvZz4mI3hhOwkJPGcgaWQ9InNoYXBlNTcyOC0zOCIgdHJhbnNmb3JtPSJ0cmFuc2xhdGUoMTUuODQ3NSwtNjQuOTY1KSI+JiN4YTsJCQk8dGl0bGUgaWQ9InRpdGxlNjc3OTAiPnBhdGg3MDk3PC90aXRsZT4mI3hhOwkJCTxwYXRoIGlkPSJwYXRoNjc3OTIiIGlua3NjYXBlOmNvbm5lY3Rvci1jdXJ2YXR1cmU9IjAiIHN0eWxlPSJmaWxsOm5vbmU7IiBkPSJNNC45MSw4Ni44MWMtNS40MS00LjA1LTYuNTItMTEuNzItMi40Ny0xNy4xMyAgICAgYzAuNy0wLjk0LDEuNTMtMS43NywyLjQ3LTIuNDdWODYuODF6Ii8+JiN4YTsJCQkmI3hhOwkJCQk8cGF0aCBpZD0icGF0aDY3Nzk0IiBpbmtzY2FwZTpjb25uZWN0b3ItY3VydmF0dXJlPSIwIiBzdHlsZT0iZmlsbDpub25lO3N0cm9rZTojMDA3OEQ3O3N0cm9rZS13aWR0aDoxLjU7c3Ryb2tlLW1pdGVybGltaXQ6MzsiIGQ9IiAgICAgTTQuOTEsODYuODFjLTUuNDEtNC4wNS02LjUyLTExLjcyLTIuNDctMTcuMTNjMC43LTAuOTQsMS41My0xLjc3LDIuNDctMi40NyIvPiYjeGE7CQk8L2c+JiN4YTsJCTxnIGlkPSJzaGFwZTU3MjktNDEiIHRyYW5zZm9ybT0idHJhbnNsYXRlKDM1LjQ1MjUsLTY0Ljk1NzUpIj4mI3hhOwkJCTx0aXRsZSBpZD0idGl0bGU2Nzc5NyI+cGF0aDcwOTk8L3RpdGxlPiYjeGE7CQkJPHBhdGggaWQ9InBhdGg2Nzc5OSIgaW5rc2NhcGU6Y29ubmVjdG9yLWN1cnZhdHVyZT0iMCIgc3R5bGU9ImZpbGw6bm9uZTsiIGQ9Ik0wLDY3LjIxYzUuNDEsNC4wNSw2LjUyLDExLjcyLDIuNDcsMTcuMTMgICAgIGMtMC43LDAuOTQtMS41MywxLjc3LTIuNDcsMi40N1Y2Ny4yMXoiLz4mI3hhOwkJCSYjeGE7CQkJCTxwYXRoIGlkPSJwYXRoNjc4MDEiIGlua3NjYXBlOmNvbm5lY3Rvci1jdXJ2YXR1cmU9IjAiIHN0eWxlPSJmaWxsOm5vbmU7c3Ryb2tlOiMwMDc4RDc7c3Ryb2tlLXdpZHRoOjEuNTtzdHJva2UtbWl0ZXJsaW1pdDozOyIgZD0iICAgICBNMCw2Ny4yMWM1LjQxLDQuMDUsNi41MiwxMS43MiwyLjQ3LDE3LjEzYy0wLjcsMC45NC0xLjUzLDEuNzctMi40NywyLjQ3Ii8+JiN4YTsJCTwvZz4mI3hhOwkJPGcgaWQ9InNoYXBlNTczMC00NCIgdHJhbnNmb3JtPSJ0cmFuc2xhdGUoMzIuMTksLTY4LjE3NSkiPiYjeGE7CQkJPHRpdGxlIGlkPSJ0aXRsZTY3ODA0Ij5wYXRoNzEwMTwvdGl0bGU+JiN4YTsJCQk8cGF0aCBpZD0icGF0aDY3ODA2IiBpbmtzY2FwZTpjb25uZWN0b3ItY3VydmF0dXJlPSIwIiBzdHlsZT0iZmlsbDpub25lOyIgZD0iTTAsODYuODFjMy42NC0xLjgsNS4xMi02LjIxLDMuMzItOS44NSAgICAgQzIuNjEsNzUuNTIsMS40NCw3NC4zNSwwLDczLjY0Vjg2LjgxeiIvPiYjeGE7CQkJJiN4YTsJCQkJPHBhdGggaWQ9InBhdGg2NzgwOCIgaW5rc2NhcGU6Y29ubmVjdG9yLWN1cnZhdHVyZT0iMCIgc3R5bGU9ImZpbGw6bm9uZTtzdHJva2U6IzAwNzhENztzdHJva2Utd2lkdGg6MS41O3N0cm9rZS1taXRlcmxpbWl0OjM7IiBkPSIgICAgIE0wLDg2LjgxYzMuNjQtMS44LDUuMTItNi4yMSwzLjMyLTkuODVDMi42MSw3NS41MiwxLjQ0LDc0LjM1LDAsNzMuNjQiLz4mI3hhOwkJPC9nPiYjeGE7CQk8ZyBpZD0ic2hhcGU1NzMxLTQ3IiB0cmFuc2Zvcm09InRyYW5zbGF0ZSgxOS45Mzc1LC02OC4xNzUpIj4mI3hhOwkJCTx0aXRsZSBpZD0idGl0bGU2NzgxMSI+cGF0aDcxMDM8L3RpdGxlPiYjeGE7CQkJPHBhdGggaWQ9InBhdGg2NzgxMyIgaW5rc2NhcGU6Y29ubmVjdG9yLWN1cnZhdHVyZT0iMCIgc3R5bGU9ImZpbGw6bm9uZTsiIGQ9Ik00LjA4LDczLjY0Yy0zLjY0LDEuOC01LjEyLDYuMjEtMy4zMiw5Ljg1ICAgICBjMC43MSwxLjQ0LDEuODgsMi42MSwzLjMyLDMuMzJWNzMuNjR6Ii8+JiN4YTsJCQkmI3hhOwkJCQk8cGF0aCBpZD0icGF0aDY3ODE1IiBpbmtzY2FwZTpjb25uZWN0b3ItY3VydmF0dXJlPSIwIiBzdHlsZT0iZmlsbDpub25lO3N0cm9rZTojMDA3OEQ3O3N0cm9rZS13aWR0aDoxLjU7c3Ryb2tlLW1pdGVybGltaXQ6MzsiIGQ9IiAgICAgTTQuMDgsNzMuNjRjLTMuNjQsMS44LTUuMTIsNi4yMS0zLjMyLDkuODVjMC43MSwxLjQ0LDEuODgsMi42MSwzLjMyLDMuMzIiLz4mI3hhOwkJPC9nPiYjeGE7CQk8ZyBpZD0iZ3JvdXA1NzMyLTUwIiB0cmFuc2Zvcm09InRyYW5zbGF0ZSgyMy4yMzUsLTI3LjM5KSI+JiN4YTsJCQk8dGl0bGUgaWQ9InRpdGxlNjc4MTgiPmc3MTA5PC90aXRsZT4mI3hhOwkJCTxnIGlkPSJzaGFwZTU3MzMtNTEiIHRyYW5zZm9ybT0idHJhbnNsYXRlKDAsLTAuMDY4ODg1NikiPiYjeGE7CQkJCTx0aXRsZSBpZD0idGl0bGU2NzgyMCI+cGF0aDcxMDU8L3RpdGxlPiYjeGE7CQkJCSYjeGE7CQkJCQk8cGF0aCBpZD0icGF0aDY3ODIyIiBpbmtzY2FwZTpjb25uZWN0b3ItY3VydmF0dXJlPSIwIiBzdHlsZT0iZmlsbDojRTZFNkU2O3N0cm9rZTojNzM3MzczO3N0cm9rZS13aWR0aDoxLjU7c3Ryb2tlLW1pdGVybGltaXQ6MzsiIGQ9IiAgICAgIE0wLDgyLjc3YzAsMy4xNiwyLjU1LDUuNzIsNS43MSw1LjcyYzMuMTYsMCw1LjcyLTIuNTUsNS43Mi01LjcxYzAtMy4xNi0yLjU1LTUuNzItNS43MS01LjcyYzAsMC0wLjAxLDAtMC4wMSwwICAgICAgQzIuNTYsNzcuMDcsMC4wMSw3OS42MiwwLDgyLjc3eiIvPiYjeGE7CQkJPC9nPiYjeGE7CQkJPGcgaWQ9InNoYXBlNTczNC01MyIgdHJhbnNmb3JtPSJ0cmFuc2xhdGUoMS42MDUpIj4mI3hhOwkJCQk8dGl0bGUgaWQ9InRpdGxlNjc4MjUiPmNpcmNsZTcxMDc8L3RpdGxlPiYjeGE7CQkJCTxjaXJjbGUgaWQ9ImVsbGlwc2U2NzgyNyIgc3R5bGU9ImZpbGw6I0ZGRkZGRjsiIGN4PSI0LjA4IiBjeT0iODIuNzMiIHI9IjQuMDgiLz4mI3hhOwkJCTwvZz4mI3hhOwkJPC9nPiYjeGE7CTwvZz4mI3hhOzwvZz4mI3hhOzwvc3ZnPg==;" vertex="1" parent="1">
          <mxGeometry x="560.0000000000001" y="563.62" width="62" height="85" as="geometry" />
        </mxCell>
        <mxCell id="iyrO_WsNyvsdMTxw4tpP-10" value="" style="shape=image;verticalLabelPosition=bottom;labelBackgroundColor=#ffffff;verticalAlign=top;aspect=fixed;imageAspect=0;image=data:image/svg+xml,PHN2ZyB4bWxuczpkYz0iaHR0cDovL3B1cmwub3JnL2RjL2VsZW1lbnRzLzEuMS8iIHhtbG5zOmNjPSJodHRwOi8vY3JlYXRpdmVjb21tb25zLm9yZy9ucyMiIHhtbG5zOnJkZj0iaHR0cDovL3d3dy53My5vcmcvMTk5OS8wMi8yMi1yZGYtc3ludGF4LW5zIyIgeG1sbnM6c3ZnPSJodHRwOi8vd3d3LnczLm9yZy8yMDAwL3N2ZyIgeG1sbnM9Imh0dHA6Ly93d3cudzMub3JnLzIwMDAvc3ZnIiB4bWxuczpzb2RpcG9kaT0iaHR0cDovL3NvZGlwb2RpLnNvdXJjZWZvcmdlLm5ldC9EVEQvc29kaXBvZGktMC5kdGQiIHhtbG5zOmlua3NjYXBlPSJodHRwOi8vd3d3Lmlua3NjYXBlLm9yZy9uYW1lc3BhY2VzL2lua3NjYXBlIiB2ZXJzaW9uPSIxLjEiIGlkPSJzdmc3MjQ4MCIgaW5rc2NhcGU6dmVyc2lvbj0iMC45Mi4zICgyNDA1NTQ2LCAyMDE4LTAzLTExKSIgc29kaXBvZGk6ZG9jbmFtZT0iY29nbml0aXZlX3NlcnZpY2VzLnN2ZyIgeD0iMHB4IiB5PSIwcHgiIHZpZXdCb3g9IjAgMCAxMjAuMDg2OTIgNzEuMTMiIHhtbDpzcGFjZT0icHJlc2VydmUiIHdpZHRoPSIxMjAuMDg2OTEiIGhlaWdodD0iNzEuMTI5OTk3Ij48bWV0YWRhdGEgaWQ9Im1ldGFkYXRhMjE1MTkiPjxyZGY6UkRGPjxjYzpXb3JrIHJkZjphYm91dD0iIj48ZGM6Zm9ybWF0PmltYWdlL3N2Zyt4bWw8L2RjOmZvcm1hdD48ZGM6dHlwZSByZGY6cmVzb3VyY2U9Imh0dHA6Ly9wdXJsLm9yZy9kYy9kY21pdHlwZS9TdGlsbEltYWdlIi8+PGRjOnRpdGxlLz48L2NjOldvcms+PC9yZGY6UkRGPjwvbWV0YWRhdGE+PGRlZnMgaWQ9ImRlZnMyMTUxNyIvPiYjeGE7PGZpbHRlciBpZD0iZmlsdGVyXzIiPiYjeGE7CTxmZUdhdXNzaWFuQmx1ciBpZD0iZmVHYXVzc2lhbkJsdXI3MjQwNSIgc3RkRGV2aWF0aW9uPSIyIi8+JiN4YTs8L2ZpbHRlcj4mI3hhOzxzb2RpcG9kaTpuYW1lZHZpZXcgYm9yZGVyY29sb3I9IiM2NjY2NjYiIGJvcmRlcm9wYWNpdHk9IjEiIGZpdC1tYXJnaW4tYm90dG9tPSIwIiBmaXQtbWFyZ2luLWxlZnQ9IjAiIGZpdC1tYXJnaW4tcmlnaHQ9IjAiIGZpdC1tYXJnaW4tdG9wPSIwIiBncmlkdG9sZXJhbmNlPSIxMCIgZ3VpZGV0b2xlcmFuY2U9IjEwIiBpZD0ibmFtZWR2aWV3NzI0ODIiIGlua3NjYXBlOmN1cnJlbnQtbGF5ZXI9InN2ZzcyNDgwIiBpbmtzY2FwZTpjeD0iMjMuMzQ3NjM2IiBpbmtzY2FwZTpjeT0iMjUuMzc2MzE2IiBpbmtzY2FwZTpwYWdlb3BhY2l0eT0iMCIgaW5rc2NhcGU6cGFnZXNoYWRvdz0iMiIgaW5rc2NhcGU6d2luZG93LWhlaWdodD0iMTAxNyIgaW5rc2NhcGU6d2luZG93LW1heGltaXplZD0iMSIgaW5rc2NhcGU6d2luZG93LXdpZHRoPSIxOTIwIiBpbmtzY2FwZTp3aW5kb3cteD0iLTgiIGlua3NjYXBlOndpbmRvdy15PSItOCIgaW5rc2NhcGU6em9vbT0iNC44MDg5OTYiIG9iamVjdHRvbGVyYW5jZT0iMTAiIHBhZ2Vjb2xvcj0iI2ZmZmZmZiIgc2hvd2dyaWQ9ImZhbHNlIj4mI3hhOwk8L3NvZGlwb2RpOm5hbWVkdmlldz4mI3hhOyYjeGE7PHBhdGggaWQ9InBhdGg3MjQxOCIgaW5rc2NhcGU6Y29ubmVjdG9yLWN1cnZhdHVyZT0iMCIgc3R5bGU9ImZpbGw6IzAwOTU4MCIgZD0ibSAxMTguNjAyNjksMzUuMjYgYyAtMi4xOCwtNS4xNyAtNi42OSwtOS41NCAtMTIuNTIsLTEyLjIxIC0yLjY5LC05LjA0IC0xMC4yMiwtMTguMDggLTIxLjQ0LC0xOC4wOCAtMC4zNiwwIC0wLjcyLDAuMDEgLTEuMDksMC4wMiAtNC42OCwtMy4zNSAtOS4yMywtNC45OSAtMTMuODYsLTQuOTkgLTIuNzksMCAtNS42NCwwLjYyIC04LjUsMS44MyAtMi4xMiwtMS4xIC00LjU1LC0xLjY4IC03LjE0LC0xLjY4IC01Ljc1LDAgLTExLjIsMi42NSAtMTQuNTYsNS43NiAtMS4wNiwtMC4yNSAtMi4xNiwtMC4zOCAtMy4zLC0wLjM4IC04LjU3LDAgLTE3LjA2LDcuMDggLTE5LjM2LDE1LjY3IC03LjM4OTk5OTksMi42OCAtMTIuNzc5OTk5OSw3LjU1IC0xNS4zMDk5OTk5LDEzLjg4IC0yLjQ1OTk5OTk5LDYuMTUgLTEuOTE5OTk5OTksMTMuMDIgMS40OCwxOC44NSAzLjM4LDUuOCA5LjI3OTk5OTksOS4yNiAxNS43OTk5OTk5LDkuMjYgMi41LDAgNC45MSwtMC41MSA3LjExLC0xLjQ5IDMuOTYsMy42IDkuMDYsNS43NSAxMy44OSw1Ljc1IDEuNjgsMCAzLjMsLTAuMjUgNC44MiwtMC43NCAzLjkxLDMuMjIgOS45LDQuNDIgMTQuNzcsNC40MiA1LjczLDAgMTAuNzIsLTEuNTEgMTQuMDIsLTQuMTYgMi4xNSwwLjk5IDQuNSwxLjUxIDYuOTcsMS41MSB2IDAgYyA2LjE1LDAgMTIuNTIsLTMuMjkgMTUuOTksLTcuODUgMS45NCwwLjggMy45OCwxLjIxIDYuMDQsMS4yMSB2IDAgYyA2LjczLDAgMTIuOTgsLTQuMzkgMTUuOTIsLTExLjE5IDIuMjQsLTUuMTggMi4zNCwtMTAuNSAwLjI3LC0xNS4zOSB6Ii8+JiN4YTsmI3hhOzxwYXRoIGlkPSJwYXRoNzI0MjYiIGlua3NjYXBlOmNvbm5lY3Rvci1jdXJ2YXR1cmU9IjAiIHN0eWxlPSJmaWxsOiNmZmZmZmYiIGQ9Ik0gMzguNjAyNjksNjcuNCBWIDQ2LjI2IGMgMCwtMi42MyAtMi4xMywtNC43NiAtNC43NiwtNC43NiBoIC03LjkyIHYgMy4zNiBoIDcuOTIgYyAwLjc3LDAgMS40LDAuNjMgMS40LDEuNCB2IDIwLjU4IGMgMS4xMSwwLjI5IDIuMjQsMC40OCAzLjM2LDAuNTYgeiIvPiYjeGE7JiN4YTs8cGF0aCBpZD0icGF0aDcyNDM0IiBpbmtzY2FwZTpjb25uZWN0b3ItY3VydmF0dXJlPSIwIiBzdHlsZT0iZmlsbDojZmZmZmZmIiBkPSJtIDUzLjIyMjY5LDMxLjIzIGggLTEwLjY0IGMgLTAuNzcsMCAtMS40LC0wLjYyIC0xLjQsLTEuMzkgViA0LjUzIGMgLTAuNiwwLjQ0IC0xLjE3LDAuOTEgLTEuNjgsMS4zOCAtMC41NSwtMC4xMyAtMS4xMSwtMC4yMiAtMS42OCwtMC4yOCB2IDI0LjIxIGMgMCwyLjYyIDIuMTQsNC43NiA0Ljc2LDQuNzYgaCAxMC42NCBjIDAuNzcsMCAxLjM5LDAuNjIgMS4zOSwxLjM5IHYgNy44OCBoIDMuMzcgdiAtNy44OCBjIDAsLTIuNjIgLTIuMTQsLTQuNzYgLTQuNzYsLTQuNzYgeiIvPiYjeGE7JiN4YTs8cGF0aCBpZD0icGF0aDcyNDQyIiBpbmtzY2FwZTpjb25uZWN0b3ItY3VydmF0dXJlPSIwIiBzdHlsZT0iZmlsbDojZmZmZmZmIiBkPSJtIDk4LjAwMjY5LDQ0LjY3IHYgLTMuMDIgaCAtMy4zNiB2IDMuMDIgYyAwLDAuNzcgLTAuNjMsMS40IC0xLjQsMS40IGggLTEzLjQ4IFYgMjEuOTUgYyAwLC0yLjYyIC0yLjEzLC00Ljc2IC00Ljc1LC00Ljc2IGggLTkuMTcgdiAzLjM3IGggOS4xNyBjIDAuNzcsMCAxLjM5LDAuNjIgMS4zOSwxLjM5IHYgNDYuMDQgYyAxLjA5LDAuMjcgMi4yMSwwLjQyIDMuMzYsMC40NiBWIDQ5LjQzIGggMTMuNDggYyAyLjYzLDAgNC43NiwtMi4xMyA0Ljc2LC00Ljc2IHoiLz4mI3hhOyYjeGE7PHBhdGggaWQ9InBhdGg3MjQ1MCIgaW5rc2NhcGU6Y29ubmVjdG9yLWN1cnZhdHVyZT0iMCIgc3R5bGU9ImZpbGw6I2ZmZmZmZiIgZD0ibSA1Ni4yOTI2OSw1Ny43OCBjIC00LjEzLDAgLTcuNDksLTMuMzYgLTcuNDksLTcuNDkgMCwtNC4xMyAzLjM2LC03LjUgNy40OSwtNy41IDQuMTQsMCA3LjUsMy4zNyA3LjUsNy41IDAsNC4xMyAtMy4zNyw3LjQ5IC03LjUsNy40OSB6IG0gMCwtMTEuODggYyAtMi40MSwwIC00LjM4LDEuOTcgLTQuMzgsNC4zOSAwLDIuNDIgMS45Nyw0LjM4IDQuMzgsNC4zOCAyLjQyLDAgNC4zOSwtMS45NiA0LjM5LC00LjM4IDAsLTIuNDIgLTEuOTcsLTQuMzkgLTQuMzksLTQuMzkgeiIvPiYjeGE7JiN4YTs8cGF0aCBpZD0icGF0aDcyNDU4IiBpbmtzY2FwZTpjb25uZWN0b3ItY3VydmF0dXJlPSIwIiBzdHlsZT0iZmlsbDojZmZmZmZmIiBkPSJtIDIwLjQ3MjY5LDUwLjY0IGMgLTQuMTMsMCAtNy40OSwtMy4zNiAtNy40OSwtNy40OSAwLC00LjE0IDMuMzYsLTcuNSA3LjQ5LC03LjUgNC4xMywwIDcuNSwzLjM3IDcuNSw3LjUgMCw0LjEzIC0zLjM2LDcuNDkgLTcuNSw3LjQ5IHogbSAwLC0xMS44OCBjIC0yLjQyLDAgLTQuMzgsMS45NyAtNC4zOCw0LjM5IDAsMi40MSAxLjk3LDQuMzggNC4zOCw0LjM4IDIuNDIsMCA0LjM5LC0xLjk3IDQuMzksLTQuMzggMCwtMi40MiAtMS45NywtNC4zOSAtNC4zOSwtNC4zOSB6Ii8+JiN4YTsmI3hhOzxwYXRoIGlkPSJwYXRoNzI0NjYiIGlua3NjYXBlOmNvbm5lY3Rvci1jdXJ2YXR1cmU9IjAiIHN0eWxlPSJmaWxsOiNmZmZmZmYiIGQ9Im0gOTYuMzQyNjksNDMuNDkgYyAtNC4xMywwIC03LjQ5LC0zLjM2IC03LjQ5LC03LjQ5IDAsLTQuMTMgMy4zNiwtNy40OSA3LjQ5LC03LjQ5IDQuMTMsMCA3LjUsMy4zNiA3LjUsNy40OSAwLDQuMTMgLTMuMzcsNy40OSAtNy41LDcuNDkgeiBtIDAsLTExLjg3IGMgLTIuNDIsMCAtNC4zOCwxLjk2IC00LjM4LDQuMzggMCwyLjQxIDEuOTcsNC4zOCA0LjM4LDQuMzggMi40MiwwIDQuMzksLTEuOTYgNC4zOSwtNC4zOCAwLC0yLjQyIC0xLjk3LC00LjM4IC00LjM5LC00LjM4IHoiLz4mI3hhOyYjeGE7PHBhdGggaWQ9InBhdGg3MjQ3NCIgaW5rc2NhcGU6Y29ubmVjdG9yLWN1cnZhdHVyZT0iMCIgc3R5bGU9ImZpbGw6I2ZmZmZmZiIgZD0ibSA2MC4zOTI2OSwyNi4zNCBjIC00LjEzLDAgLTcuNDksLTMuMzYgLTcuNDksLTcuNDkgMCwtNC4xMyAzLjM2LC03LjQ5IDcuNDksLTcuNDkgNC4xMywwIDcuNSwzLjM2IDcuNSw3LjQ5IDAsNC4xMyAtMy4zNiw3LjQ5IC03LjUsNy40OSB6IG0gMCwtMTEuODggYyAtMi40MiwwIC00LjM4LDEuOTcgLTQuMzgsNC4zOSAwLDIuNDEgMS45Nyw0LjM4IDQuMzgsNC4zOCAyLjQyLDAgNC4zOSwtMS45NyA0LjM5LC00LjM4IDAsLTIuNDIgLTEuOTcsLTQuMzkgLTQuMzksLTQuMzkgeiIvPiYjeGE7PC9zdmc+;" vertex="1" parent="1">
          <mxGeometry x="699.9999999999999" y="584" width="120" height="71" as="geometry" />
        </mxCell>
        <mxCell id="iyrO_WsNyvsdMTxw4tpP-11" value="" style="shape=image;verticalLabelPosition=bottom;labelBackgroundColor=#ffffff;verticalAlign=top;aspect=fixed;imageAspect=0;image=data:image/svg+xml,PHN2ZyB4bWxuczpjYz0iaHR0cDovL2NyZWF0aXZlY29tbW9ucy5vcmcvbnMjIiB4bWxuczpkYz0iaHR0cDovL3B1cmwub3JnL2RjL2VsZW1lbnRzLzEuMS8iIHhtbG5zOmlua3NjYXBlPSJodHRwOi8vd3d3Lmlua3NjYXBlLm9yZy9uYW1lc3BhY2VzL2lua3NjYXBlIiB4bWxuczpyZGY9Imh0dHA6Ly93d3cudzMub3JnLzE5OTkvMDIvMjItcmRmLXN5bnRheC1ucyMiIHhtbG5zOnNvZGlwb2RpPSJodHRwOi8vc29kaXBvZGkuc291cmNlZm9yZ2UubmV0L0RURC9zb2RpcG9kaS0wLmR0ZCIgeG1sbnM6c3ZnPSJodHRwOi8vd3d3LnczLm9yZy8yMDAwL3N2ZyIgeG1sbnM9Imh0dHA6Ly93d3cudzMub3JnLzIwMDAvc3ZnIiB4bWxuczp4bGluaz0iaHR0cDovL3d3dy53My5vcmcvMTk5OS94bGluayIgdmVyc2lvbj0iMS4xIiBpZD0ic3ZnNjAwMTEiIGlua3NjYXBlOnZlcnNpb249IjAuOTIuMyAoMjQwNTU0NiwgMjAxOC0wMy0xMSkiIHNvZGlwb2RpOmRvY25hbWU9ImF6dXJlX3BvcnRhbF9hcHBfc2VydmljZV9jZXJ0aWZpY2F0ZXMuc3ZnIiB4PSIwcHgiIHk9IjBweCIgdmlld0JveD0iMCAwIDMzLjcgMjkuMTgiIHN0eWxlPSJlbmFibGUtYmFja2dyb3VuZDpuZXcgMCAwIDMzLjcgMjkuMTg7IiB4bWw6c3BhY2U9InByZXNlcnZlIj4mI3hhOzxzb2RpcG9kaTpuYW1lZHZpZXcgYm9yZGVyY29sb3I9IiM2NjY2NjYiIGJvcmRlcm9wYWNpdHk9IjEiIGZpdC1tYXJnaW4tYm90dG9tPSIwIiBmaXQtbWFyZ2luLWxlZnQ9IjAiIGZpdC1tYXJnaW4tcmlnaHQ9IjAiIGZpdC1tYXJnaW4tdG9wPSIwIiBncmlkdG9sZXJhbmNlPSIxMCIgZ3VpZGV0b2xlcmFuY2U9IjEwIiBpZD0ibmFtZWR2aWV3NjAwMTMiIGlua3NjYXBlOmN1cnJlbnQtbGF5ZXI9InN2ZzYwMDExIiBpbmtzY2FwZTpjeD0iMjEuNTczMTg4IiBpbmtzY2FwZTpjeT0iNy45ODI4MjQyIiBpbmtzY2FwZTpwYWdlb3BhY2l0eT0iMCIgaW5rc2NhcGU6cGFnZXNoYWRvdz0iMiIgaW5rc2NhcGU6d2luZG93LWhlaWdodD0iMTAxNyIgaW5rc2NhcGU6d2luZG93LW1heGltaXplZD0iMSIgaW5rc2NhcGU6d2luZG93LXdpZHRoPSIxOTIwIiBpbmtzY2FwZTp3aW5kb3cteD0iLTgiIGlua3NjYXBlOndpbmRvdy15PSItOCIgaW5rc2NhcGU6em9vbT0iMTAuOTU0MDMzIiBvYmplY3R0b2xlcmFuY2U9IjEwIiBwYWdlY29sb3I9IiNmZmZmZmYiIHNob3dncmlkPSJmYWxzZSI+JiN4YTsJPC9zb2RpcG9kaTpuYW1lZHZpZXc+JiN4YTs8ZyBpZD0iZzYwMDA5IiB0cmFuc2Zvcm09InRyYW5zbGF0ZSgtMC4yNSwtMC4yNDgyNzUzNikiPiYjeGE7CTx0aXRsZSBpZD0idGl0bGU1OTk2NCI+UGFnZS0xPC90aXRsZT4mI3hhOwk8ZyBpZD0iZ3JvdXA0NDUyLTEiIHRyYW5zZm9ybT0idHJhbnNsYXRlKDAuMjUsLTAuMjUpIj4mI3hhOwkJPHRpdGxlIGlkPSJ0aXRsZTU5OTY2Ij5BenVyZSBQb3J0YWwgLSBBcHAgU2VydmljZSBDZXJ0aWZpY2F0ZXM8L3RpdGxlPiYjeGE7CQk8ZyBpZD0ic2hhcGU0NDUzLTIiIHRyYW5zZm9ybT0idHJhbnNsYXRlKDAsLTMuMDMxNzcpIj4mI3hhOwkJCTx0aXRsZSBpZD0idGl0bGU1OTk2OCI+U2hlZXQuNDQ1MzwvdGl0bGU+JiN4YTsJCQk8cGF0aCBpZD0icGF0aDU5OTcwIiBpbmtzY2FwZTpjb25uZWN0b3ItY3VydmF0dXJlPSIwIiBzdHlsZT0iZmlsbDojRkNEMTE2OyIgZD0iTTMzLjcsMjcuMTdjMCwxLjQyLTEuMDUsMi41MS0yLjQxLDIuNTFIMi40MSAgICAgQzEuMDksMjkuNjgsMCwyOC41OSwwLDI3LjE3VjYuMDVjMC0xLjM4LDEuMDktMi41MiwyLjQxLTIuNTJoMjguODhjMS4zNiwwLDIuNDEsMS4xNCwyLjQxLDIuNTJWMjcuMTd6Ii8+JiN4YTsJCTwvZz4mI3hhOwkJPGcgaWQ9InNoYXBlNDQ1NC00IiB0cmFuc2Zvcm09InRyYW5zbGF0ZSgyLjgwMDIyLC02LjAxNjE4KSI+JiN4YTsJCQk8dGl0bGUgaWQ9InRpdGxlNTk5NzMiPlNoZWV0LjQ0NTQ8L3RpdGxlPiYjeGE7CQkJPHBhdGggaWQ9InBhdGg1OTk3NSIgaW5rc2NhcGU6Y29ubmVjdG9yLWN1cnZhdHVyZT0iMCIgc3R5bGU9ImZpbGw6I0ZGRkZGRjsiIGQ9Ik0wLDkuNXYyMC4xOGgyOFY5LjVIMHoiLz4mI3hhOwkJPC9nPiYjeGE7CQk8ZyBpZD0ic2hhcGU0NDU1LTYiIHRyYW5zZm9ybT0idHJhbnNsYXRlKDQuODQxMDYsLTcuMTA1NzIpIj4mI3hhOwkJCTx0aXRsZSBpZD0idGl0bGU1OTk3OCI+U2hlZXQuNDQ1NTwvdGl0bGU+JiN4YTsJCQk8cGF0aCBpZD0icGF0aDU5OTgwIiBpbmtzY2FwZTpjb25uZWN0b3ItY3VydmF0dXJlPSIwIiBzdHlsZT0iZmlsbDojREQ1OTAwOyIgZD0iTTAsMjYuMThjMC0xLjk0LDEuNTEtMy41MSwzLjM3LTMuNTEgICAgIHMzLjM3LDEuNTcsMy4zNywzLjUxYzAsMS45My0xLjUxLDMuNS0zLjM3LDMuNVMwLDI4LjExLDAsMjYuMTh6Ii8+JiN4YTsJCTwvZz4mI3hhOwkJPGcgaWQ9InNoYXBlNDQ1Ni04IiB0cmFuc2Zvcm09InRyYW5zbGF0ZSg1LjYxNjI2LC03LjY2MDQxKSI+JiN4YTsJCQk8dGl0bGUgaWQ9InRpdGxlNTk5ODMiPlNoZWV0LjQ0NTY8L3RpdGxlPiYjeGE7CQkJJiN4YTsJCQkJPHBhdGggaWQ9InBhdGg1OTk4NSIgaW5rc2NhcGU6Y29ubmVjdG9yLWN1cnZhdHVyZT0iMCIgc3R5bGU9ImZpbGw6I0ZGOEMwMDtzdHJva2U6I0ZGOEMwMDtzdHJva2Utd2lkdGg6MC4yNTtzdHJva2UtbGluZWNhcDpzcXVhcmU7c3Ryb2tlLW1pdGVybGltaXQ6MzsiIGQ9IiAgICAgTTAsMjYuODNjMC0xLjU2LDEuMTctMi44NCwyLjU5LTIuODRjMS40NCwwLDIuNTksMS4yOCwyLjU5LDIuODRjMCwxLjU4LTEuMTUsMi44NS0yLjU5LDIuODVDMS4xNywyOS42OCwwLDI4LjQxLDAsMjYuODN6Ii8+JiN4YTsJCTwvZz4mI3hhOwkJPGcgaWQ9InNoYXBlNDQ1Ny0xMCIgdHJhbnNmb3JtPSJ0cmFuc2xhdGUoNC44NDEwNikiPiYjeGE7CQkJPHRpdGxlIGlkPSJ0aXRsZTU5OTg4Ij5TaGVldC40NDU3PC90aXRsZT4mI3hhOwkJCTxwYXRoIGlkPSJwYXRoNTk5OTAiIGlua3NjYXBlOmNvbm5lY3Rvci1jdXJ2YXR1cmU9IjAiIHN0eWxlPSJmaWxsOiNERDU5MDA7IiBkPSJNMy4zNiwyMi4yYy0xLjEyLDAtMi4xNS0wLjU0LTIuOS0xLjQ0TDAsMjkuNjQgICAgIGwzLjMzLTQuMzJsMy4zOCw0LjM2aDAuMDNsLTAuNDUtOC45MkM1LjU0LDIxLjY2LDQuNTEsMjIuMiwzLjM2LDIyLjJ6Ii8+JiN4YTsJCTwvZz4mI3hhOwkJPGcgaWQ9InNoYXBlNDQ1OC0xMiIgdHJhbnNmb3JtPSJ0cmFuc2xhdGUoNi42OTIwNSwtMTguNjE3KSI+JiN4YTsJCQk8dGl0bGUgaWQ9InRpdGxlNTk5OTMiPlNoZWV0LjQ0NTg8L3RpdGxlPiYjeGE7CQkJPHBhdGggaWQ9InBhdGg1OTk5NSIgaW5rc2NhcGU6Y29ubmVjdG9yLWN1cnZhdHVyZT0iMCIgc3R5bGU9ImZpbGw6IzNGNTc2NTsiIGQ9Ik0wLDI4LjY0djEuMDRoMjAuMjJ2LTEuMDRIMHoiLz4mI3hhOwkJPC9nPiYjeGE7CQk8ZyBpZD0ic2hhcGU0NDU5LTE0IiB0cmFuc2Zvcm09InRyYW5zbGF0ZSgxNC4zODA4LC0xNC4xNjQxKSI+JiN4YTsJCQk8dGl0bGUgaWQ9InRpdGxlNTk5OTgiPlNoZWV0LjQ0NTk8L3RpdGxlPiYjeGE7CQkJPHBhdGggaWQ9InBhdGg2MDAwMCIgaW5rc2NhcGU6Y29ubmVjdG9yLWN1cnZhdHVyZT0iMCIgc3R5bGU9ImZpbGw6IzNGNTc2NTsiIGQ9Ik0wLDI4LjczdjAuOTVoMTIuNTN2LTAuOTVIMHoiLz4mI3hhOwkJPC9nPiYjeGE7CQk8ZyBpZD0ic2hhcGU0NDYwLTE2IiB0cmFuc2Zvcm09InRyYW5zbGF0ZSgxNC4zODA4LC0xMS4wMzc2KSI+JiN4YTsJCQk8dGl0bGUgaWQ9InRpdGxlNjAwMDMiPlNoZWV0LjQ0NjA8L3RpdGxlPiYjeGE7CQkJPHBhdGggaWQ9InBhdGg2MDAwNSIgaW5rc2NhcGU6Y29ubmVjdG9yLWN1cnZhdHVyZT0iMCIgc3R5bGU9ImZpbGw6IzNGNTc2NTsiIGQ9Ik0wLDI4LjU0djEuMTRoMTIuNTN2LTEuMTRIMHoiLz4mI3hhOwkJPC9nPiYjeGE7CTwvZz4mI3hhOzwvZz4mI3hhOzwvc3ZnPg==;" vertex="1" parent="1">
          <mxGeometry x="430" y="572" width="80" height="68.24" as="geometry" />
        </mxCell>
        <mxCell id="iyrO_WsNyvsdMTxw4tpP-12" value="" style="shape=image;verticalLabelPosition=bottom;labelBackgroundColor=#ffffff;verticalAlign=top;aspect=fixed;imageAspect=0;image=data:image/svg+xml,PHN2ZyB4bWxuczpjYz0iaHR0cDovL2NyZWF0aXZlY29tbW9ucy5vcmcvbnMjIiB4bWxuczpkYz0iaHR0cDovL3B1cmwub3JnL2RjL2VsZW1lbnRzLzEuMS8iIHhtbG5zOmlua3NjYXBlPSJodHRwOi8vd3d3Lmlua3NjYXBlLm9yZy9uYW1lc3BhY2VzL2lua3NjYXBlIiB4bWxuczpyZGY9Imh0dHA6Ly93d3cudzMub3JnLzE5OTkvMDIvMjItcmRmLXN5bnRheC1ucyMiIHhtbG5zOnNvZGlwb2RpPSJodHRwOi8vc29kaXBvZGkuc291cmNlZm9yZ2UubmV0L0RURC9zb2RpcG9kaS0wLmR0ZCIgeG1sbnM6c3ZnPSJodHRwOi8vd3d3LnczLm9yZy8yMDAwL3N2ZyIgeG1sbnM9Imh0dHA6Ly93d3cudzMub3JnLzIwMDAvc3ZnIiB4bWxuczp4bGluaz0iaHR0cDovL3d3dy53My5vcmcvMTk5OS94bGluayIgdmVyc2lvbj0iMS4xIiBpZD0ic3ZnMTQ4MTUzIiBpbmtzY2FwZTp2ZXJzaW9uPSIwLjkyLjMgKDI0MDU1NDYsIDIwMTgtMDMtMTEpIiBzb2RpcG9kaTpkb2NuYW1lPSJkZWJ1Z2dpbmcuc3ZnIiB4PSIwcHgiIHk9IjBweCIgdmlld0JveD0iMCAwIDQ4IDQ4IiBzdHlsZT0iZW5hYmxlLWJhY2tncm91bmQ6bmV3IDAgMCA0OCA0ODsiIHhtbDpzcGFjZT0icHJlc2VydmUiPiYjeGE7PHNvZGlwb2RpOm5hbWVkdmlldyBib3JkZXJjb2xvcj0iIzY2NjY2NiIgYm9yZGVyb3BhY2l0eT0iMSIgZml0LW1hcmdpbi1ib3R0b209IjAiIGZpdC1tYXJnaW4tbGVmdD0iMCIgZml0LW1hcmdpbi1yaWdodD0iMCIgZml0LW1hcmdpbi10b3A9IjAiIGdyaWR0b2xlcmFuY2U9IjEwIiBndWlkZXRvbGVyYW5jZT0iMTAiIGlkPSJuYW1lZHZpZXcxNDgxNTUiIGlua3NjYXBlOmN1cnJlbnQtbGF5ZXI9InN2ZzE0ODE1MyIgaW5rc2NhcGU6Y3g9IjMyIiBpbmtzY2FwZTpjeT0iMzIuMDAwNzUxIiBpbmtzY2FwZTpwYWdlb3BhY2l0eT0iMCIgaW5rc2NhcGU6cGFnZXNoYWRvdz0iMiIgaW5rc2NhcGU6d2luZG93LWhlaWdodD0iMTAxNyIgaW5rc2NhcGU6d2luZG93LW1heGltaXplZD0iMSIgaW5rc2NhcGU6d2luZG93LXdpZHRoPSIxOTIwIiBpbmtzY2FwZTp3aW5kb3cteD0iLTgiIGlua3NjYXBlOndpbmRvdy15PSItOCIgaW5rc2NhcGU6em9vbT0iMTMuMTM2MzY0IiBvYmplY3R0b2xlcmFuY2U9IjEwIiBwYWdlY29sb3I9IiNmZmZmZmYiIHNob3dncmlkPSJmYWxzZSI+JiN4YTsJPC9zb2RpcG9kaTpuYW1lZHZpZXc+JiN4YTs8ZyBpZD0iZzE0ODE1MSIgdHJhbnNmb3JtPSJ0cmFuc2xhdGUoLTAuNzUsLTAuNzUwNTYzKSI+JiN4YTsJPHRpdGxlIGlkPSJ0aXRsZTE0ODA1OSI+UGFnZS0xPC90aXRsZT4mI3hhOwk8ZyBpZD0iZ3JvdXA4MzUtMSIgdHJhbnNmb3JtPSJ0cmFuc2xhdGUoMywtNy41KSI+JiN4YTsJCTx0aXRsZSBpZD0idGl0bGUxNDgwNjEiPkRlYnVnZ2luZzwvdGl0bGU+JiN4YTsJCTxnIGlkPSJzaGFwZTgzNi0yIiB0cmFuc2Zvcm09InRyYW5zbGF0ZSgwLC0wLjI3OTQzNykiPiYjeGE7CQkJPHRpdGxlIGlkPSJ0aXRsZTE0ODA2MyI+cGF0aDY3Mjk8L3RpdGxlPiYjeGE7CQkJPHBhdGggaWQ9InBhdGgxNDgwNjUiIGlua3NjYXBlOmNvbm5lY3Rvci1jdXJ2YXR1cmU9IjAiIHN0eWxlPSJmaWxsOiMyQjZEQ0Y7IiBkPSJNMjEuNzUsMTAuNzhjMTIuMDEsMCwyMS43NSw5Ljc0LDIxLjc1LDIxLjc1ICAgICBzLTkuNzQsMjEuNzUtMjEuNzUsMjEuNzVTMCw0NC41NCwwLDMyLjUzbDAsMEMwLDIwLjUyLDkuNzQsMTAuNzgsMjEuNzUsMTAuNzh6IE0yMS43NSw4LjUzYy0xMy4yNSwwLTI0LDEwLjc1LTI0LDI0ICAgICBzMTAuNzUsMjQsMjQsMjRzMjQtMTAuNzUsMjQtMjRsMCwwQzQ1Ljc1LDE5LjI4LDM1LDguNTMsMjEuNzUsOC41M3oiLz4mI3hhOwkJPC9nPiYjeGE7CQk8ZyBpZD0ic2hhcGU4MzctNCIgdHJhbnNmb3JtPSJ0cmFuc2xhdGUoMTcuMjUsLTI0KSI+JiN4YTsJCQk8dGl0bGUgaWQ9InRpdGxlMTQ4MDY4Ij5jaXJjbGU2NzMxPC90aXRsZT4mI3hhOwkJCTxjaXJjbGUgaWQ9ImVsbGlwc2UxNDgwNzAiIHN0eWxlPSJmaWxsOiMwMDUwQzU7IiBjeD0iNC41IiBjeT0iNDUiIHI9IjQuNSIvPiYjeGE7CQk8L2c+JiN4YTsJCTxnIGlkPSJzaGFwZTgzOC02IiB0cmFuc2Zvcm09InRyYW5zbGF0ZSgxOC43NSwtMjUuNSkiPiYjeGE7CQkJPHRpdGxlIGlkPSJ0aXRsZTE0ODA3MyI+Y2lyY2xlNjczMzwvdGl0bGU+JiN4YTsJCQk8Y2lyY2xlIGlkPSJlbGxpcHNlMTQ4MDc1IiBzdHlsZT0iZmlsbDojODBCQ0VCOyIgY3g9IjMiIGN5PSI0Ni41IiByPSIzIi8+JiN4YTsJCTwvZz4mI3hhOwkJPGcgaWQ9InNoYXBlODM5LTgiIHRyYW5zZm9ybT0idHJhbnNsYXRlKDExLjI1KSI+JiN4YTsJCQk8dGl0bGUgaWQ9InRpdGxlMTQ4MDc4Ij5yZWN0NjczNTwvdGl0bGU+JiN4YTsJCQk8cGF0aCBpZD0icGF0aDE0ODA4MCIgaW5rc2NhcGU6Y29ubmVjdG9yLWN1cnZhdHVyZT0iMCIgc3R5bGU9ImZpbGw6IzAwNTBDNTsiIGQ9Ik0wLDM5YzAsNS44LDQuNywxMC41LDEwLjUsMTAuNSAgICAgQzE2LjMsNDkuNSwyMSw0NC44LDIxLDM5di02YzAtNS44LTQuNy0xMC41LTEwLjUtMTAuNUM0LjcsMjIuNSwwLDI3LjIsMCwzM1YzOXoiLz4mI3hhOwkJPC9nPiYjeGE7CQk8ZyBpZD0ic2hhcGU4NDAtMTAiIHRyYW5zZm9ybT0idHJhbnNsYXRlKDEyLjc1LC0xLjUpIj4mI3hhOwkJCTx0aXRsZSBpZD0idGl0bGUxNDgwODMiPnBhdGg2NzM3PC90aXRsZT4mI3hhOwkJCTxwYXRoIGlkPSJwYXRoMTQ4MDg1IiBpbmtzY2FwZTpjb25uZWN0b3ItY3VydmF0dXJlPSIwIiBzdHlsZT0iZmlsbDojNEVBMkUzOyIgZD0iTTE4LDM0LjV2NmMwLDQuOTctNC4wMyw5LTksOXMtOS00LjAzLTktOXYtNiAgICAgYzAtNC45Nyw0LjAzLTksOS05UzE4LDI5LjUzLDE4LDM0LjV6Ii8+JiN4YTsJCTwvZz4mI3hhOwkJPGcgaWQ9InNoYXBlODQxLTEyIiB0cmFuc2Zvcm09InRyYW5zbGF0ZSg5Ljc1LC0yMi41KSI+JiN4YTsJCQk8dGl0bGUgaWQ9InRpdGxlMTQ4MDg4Ij5wYXRoNjczOTwvdGl0bGU+JiN4YTsJCQk8cGF0aCBpZD0icGF0aDE0ODA5MCIgaW5rc2NhcGU6Y29ubmVjdG9yLWN1cnZhdHVyZT0iMCIgc3R5bGU9ImZpbGw6bm9uZTsiIGQ9Ik02LDQ4YzAsMC02LDEuNS02LTcuNUw2LDQ4eiIvPiYjeGE7CQkJJiN4YTsJCQkJPHBhdGggaWQ9InBhdGgxNDgwOTIiIGlua3NjYXBlOmNvbm5lY3Rvci1jdXJ2YXR1cmU9IjAiIHN0eWxlPSJmaWxsOm5vbmU7c3Ryb2tlOiMwMDUwQzU7c3Ryb2tlLXdpZHRoOjEuNTtzdHJva2UtbWl0ZXJsaW1pdDozOyIgZD0iICAgICBNNiw0OGMwLDAtNiwxLjUtNi03LjUiLz4mI3hhOwkJPC9nPiYjeGE7CQk8ZyBpZD0ic2hhcGU4NDItMTUiIHRyYW5zZm9ybT0idHJhbnNsYXRlKDYuNzUsLTEzLjUpIj4mI3hhOwkJCTx0aXRsZSBpZD0idGl0bGUxNDgwOTUiPnBhdGg2NzQxPC90aXRsZT4mI3hhOwkJCTxwYXRoIGlkPSJwYXRoMTQ4MDk3IiBpbmtzY2FwZTpjb25uZWN0b3ItY3VydmF0dXJlPSIwIiBzdHlsZT0iZmlsbDpub25lOyIgZD0iTTYsNDJjMCwwLTYtMS41LTYsNy41TDYsNDJ6Ii8+JiN4YTsJCQkmI3hhOwkJCQk8cGF0aCBpZD0icGF0aDE0ODA5OSIgaW5rc2NhcGU6Y29ubmVjdG9yLWN1cnZhdHVyZT0iMCIgc3R5bGU9ImZpbGw6bm9uZTtzdHJva2U6IzAwNTBDNTtzdHJva2Utd2lkdGg6MS41O3N0cm9rZS1taXRlcmxpbWl0OjM7IiBkPSIgICAgIE02LDQyYzAsMC02LTEuNS02LDcuNSIvPiYjeGE7CQk8L2c+JiN4YTsJCTxnIGlkPSJzaGFwZTg0My0xOCIgdHJhbnNmb3JtPSJ0cmFuc2xhdGUoOC44MDUsLTMpIj4mI3hhOwkJCTx0aXRsZSBpZD0idGl0bGUxNDgxMDIiPnBhdGg2NzQzPC90aXRsZT4mI3hhOwkJCTxwYXRoIGlkPSJwYXRoMTQ4MTA0IiBpbmtzY2FwZTpjb25uZWN0b3ItY3VydmF0dXJlPSIwIiBzdHlsZT0iZmlsbDpub25lOyIgZD0iTTMuMTksNDAuNWMwLDAtMy4xOSwwLTMsNS4yNSAgICAgYzAuMSwyLjY1LDEuNSwzLjc1LDEuNSwzLjc1TDMuMTksNDAuNXoiLz4mI3hhOwkJCSYjeGE7CQkJCTxwYXRoIGlkPSJwYXRoMTQ4MTA2IiBpbmtzY2FwZTpjb25uZWN0b3ItY3VydmF0dXJlPSIwIiBzdHlsZT0iZmlsbDpub25lO3N0cm9rZTojMDA1MEM1O3N0cm9rZS13aWR0aDoxLjU7c3Ryb2tlLW1pdGVybGltaXQ6MzsiIGQ9IiAgICAgTTMuMTksNDAuNWMwLDAtMy4xOSwwLTMsNS4yNWMwLjEsMi42NSwxLjUsMy43NSwxLjUsMy43NSIvPiYjeGE7CQk8L2c+JiN4YTsJCTxnIGlkPSJzaGFwZTg0NC0yMSIgdHJhbnNmb3JtPSJ0cmFuc2xhdGUoMjcsLTIyLjUpIj4mI3hhOwkJCTx0aXRsZSBpZD0idGl0bGUxNDgxMDkiPnBhdGg2NzQ1PC90aXRsZT4mI3hhOwkJCTxwYXRoIGlkPSJwYXRoMTQ4MTExIiBpbmtzY2FwZTpjb25uZWN0b3ItY3VydmF0dXJlPSIwIiBzdHlsZT0iZmlsbDpub25lOyIgZD0iTTAsNDhjMCwwLDYsMS41LDYtNy41TDAsNDh6Ii8+JiN4YTsJCQkmI3hhOwkJCQk8cGF0aCBpZD0icGF0aDE0ODExMyIgaW5rc2NhcGU6Y29ubmVjdG9yLWN1cnZhdHVyZT0iMCIgc3R5bGU9ImZpbGw6bm9uZTtzdHJva2U6IzAwNTBDNTtzdHJva2Utd2lkdGg6MS41O3N0cm9rZS1taXRlcmxpbWl0OjM7IiBkPSIgICAgIE0wLDQ4YzAsMCw2LDEuNSw2LTcuNSIvPiYjeGE7CQk8L2c+JiN4YTsJCTxnIGlkPSJzaGFwZTg0NS0yNCIgdHJhbnNmb3JtPSJ0cmFuc2xhdGUoMzAuNzUsLTEzLjUpIj4mI3hhOwkJCTx0aXRsZSBpZD0idGl0bGUxNDgxMTYiPnBhdGg2NzQ3PC90aXRsZT4mI3hhOwkJCTxwYXRoIGlkPSJwYXRoMTQ4MTE4IiBpbmtzY2FwZTpjb25uZWN0b3ItY3VydmF0dXJlPSIwIiBzdHlsZT0iZmlsbDpub25lOyIgZD0iTTAsNDJjMCwwLDYtMS41LDYsNy41TDAsNDJ6Ii8+JiN4YTsJCQkmI3hhOwkJCQk8cGF0aCBpZD0icGF0aDE0ODEyMCIgaW5rc2NhcGU6Y29ubmVjdG9yLWN1cnZhdHVyZT0iMCIgc3R5bGU9ImZpbGw6bm9uZTtzdHJva2U6IzAwNTBDNTtzdHJva2Utd2lkdGg6MS41O3N0cm9rZS1taXRlcmxpbWl0OjM7IiBkPSIgICAgIE0wLDQyYzAsMCw2LTEuNSw2LDcuNSIvPiYjeGE7CQk8L2c+JiN4YTsJCTxnIGlkPSJzaGFwZTg0Ni0yNyIgdHJhbnNmb3JtPSJ0cmFuc2xhdGUoMzEuNSwtMykiPiYjeGE7CQkJPHRpdGxlIGlkPSJ0aXRsZTE0ODEyMyI+cGF0aDY3NDk8L3RpdGxlPiYjeGE7CQkJPHBhdGggaWQ9InBhdGgxNDgxMjUiIGlua3NjYXBlOmNvbm5lY3Rvci1jdXJ2YXR1cmU9IjAiIHN0eWxlPSJmaWxsOm5vbmU7IiBkPSJNMCw0MC41YzAsMCwzLjE5LDAsMyw1LjI1ICAgICBDMi45LDQ4LjQsMS41LDQ5LjUsMS41LDQ5LjVMMCw0MC41eiIvPiYjeGE7CQkJJiN4YTsJCQkJPHBhdGggaWQ9InBhdGgxNDgxMjciIGlua3NjYXBlOmNvbm5lY3Rvci1jdXJ2YXR1cmU9IjAiIHN0eWxlPSJmaWxsOm5vbmU7c3Ryb2tlOiMwMDUwQzU7c3Ryb2tlLXdpZHRoOjEuNTtzdHJva2UtbWl0ZXJsaW1pdDozOyIgZD0iICAgICBNMCw0MC41YzAsMCwzLjE5LDAsMyw1LjI1QzIuOSw0OC40LDEuNSw0OS41LDEuNSw0OS41Ii8+JiN4YTsJCTwvZz4mI3hhOwkJPGcgaWQ9InNoYXBlODQ3LTMwIiB0cmFuc2Zvcm09InJvdGF0ZSgtNDUsLTI0Ljc0MzU1OCw0LjI0OTExNzMpIj4mI3hhOwkJCTx0aXRsZSBpZD0idGl0bGUxNDgxMzAiPmxpbmU2NzUxPC90aXRsZT4mI3hhOwkJCSYjeGE7CQkJCTxwYXRoIGlkPSJwYXRoMTQ4MTMyIiBpbmtzY2FwZTpjb25uZWN0b3ItY3VydmF0dXJlPSIwIiBzdHlsZT0iZmlsbDpub25lO3N0cm9rZTojMDA1MEM1O3N0cm9rZS13aWR0aDoxLjU7c3Ryb2tlLW1pdGVybGltaXQ6MzsiIGQ9IiAgICAgTTAsNDkuNWg0LjI0Ii8+JiN4YTsJCTwvZz4mI3hhOwkJPGcgaWQ9InNoYXBlODQ4LTMzIiB0cmFuc2Zvcm09InJvdGF0ZSgtMTM1LDMuMDA2NDYyMywzMC4yNDE3NTgpIj4mI3hhOwkJCTx0aXRsZSBpZD0idGl0bGUxNDgxMzUiPmxpbmU2NzUzPC90aXRsZT4mI3hhOwkJCSYjeGE7CQkJCTxwYXRoIGlkPSJwYXRoMTQ4MTM3IiBpbmtzY2FwZTpjb25uZWN0b3ItY3VydmF0dXJlPSIwIiBzdHlsZT0iZmlsbDpub25lO3N0cm9rZTojMDA1MEM1O3N0cm9rZS13aWR0aDoxLjU7c3Ryb2tlLW1pdGVybGltaXQ6MzsiIGQ9IiAgICAgTTAsNDkuNWg0LjI0Ii8+JiN4YTsJCTwvZz4mI3hhOwkJPGcgaWQ9InNoYXBlODQ5LTM2IiB0cmFuc2Zvcm09InRyYW5zbGF0ZSgyMS43NSwtMS41KSI+JiN4YTsJCQk8dGl0bGUgaWQ9InRpdGxlMTQ4MTQwIj5wYXRoNjc1NTwvdGl0bGU+JiN4YTsJCQk8cGF0aCBpZD0icGF0aDE0ODE0MiIgaW5rc2NhcGU6Y29ubmVjdG9yLWN1cnZhdHVyZT0iMCIgc3R5bGU9ImZpbGw6IzgwQkNFQjsiIGQ9Ik05LDM0LjV2NmMwLDQuOTctNC4wMyw5LTksOXYtMjQgICAgIEM0Ljk3LDI1LjUsOSwyOS41Myw5LDM0LjV6Ii8+JiN4YTsJCTwvZz4mI3hhOwkJPGcgaWQ9InNoYXBlODUwLTM4IiB0cmFuc2Zvcm09InJvdGF0ZSg0NSw0Mi44MzQ1NDgsNDAuMjQyNjUxKSI+JiN4YTsJCQk8dGl0bGUgaWQ9InRpdGxlMTQ4MTQ1Ij5saW5lNjc1NzwvdGl0bGU+JiN4YTsJCQkmI3hhOwkJCQk8cGF0aCBpZD0icGF0aDE0ODE0NyIgaW5rc2NhcGU6Y29ubmVjdG9yLWN1cnZhdHVyZT0iMCIgc3R5bGU9ImZpbGw6bm9uZTtzdHJva2U6IzJCNkRDRjtzdHJva2Utd2lkdGg6Mi4yNTtzdHJva2UtbWl0ZXJsaW1pdDozOyIgZD0iICAgICBNMCw0OS41aDQ0LjU1Ii8+JiN4YTsJCTwvZz4mI3hhOwk8L2c+JiN4YTs8L2c+JiN4YTs8L3N2Zz4=;" vertex="1" parent="1">
          <mxGeometry x="300" y="572" width="48" height="48" as="geometry" />
        </mxCell>
        <mxCell id="iyrO_WsNyvsdMTxw4tpP-13" value="" style="shape=image;verticalLabelPosition=bottom;labelBackgroundColor=#ffffff;verticalAlign=top;aspect=fixed;imageAspect=0;image=data:image/svg+xml,PHN2ZyB4bWxuczpjYz0iaHR0cDovL2NyZWF0aXZlY29tbW9ucy5vcmcvbnMjIiB4bWxuczpkYz0iaHR0cDovL3B1cmwub3JnL2RjL2VsZW1lbnRzLzEuMS8iIHhtbG5zOmlua3NjYXBlPSJodHRwOi8vd3d3Lmlua3NjYXBlLm9yZy9uYW1lc3BhY2VzL2lua3NjYXBlIiB4bWxuczpyZGY9Imh0dHA6Ly93d3cudzMub3JnLzE5OTkvMDIvMjItcmRmLXN5bnRheC1ucyMiIHhtbG5zOnNvZGlwb2RpPSJodHRwOi8vc29kaXBvZGkuc291cmNlZm9yZ2UubmV0L0RURC9zb2RpcG9kaS0wLmR0ZCIgeG1sbnM6c3ZnPSJodHRwOi8vd3d3LnczLm9yZy8yMDAwL3N2ZyIgeG1sbnM9Imh0dHA6Ly93d3cudzMub3JnLzIwMDAvc3ZnIiB4bWxuczp4bGluaz0iaHR0cDovL3d3dy53My5vcmcvMTk5OS94bGluayIgdmVyc2lvbj0iMS4xIiBpZD0ic3ZnNjU0ODMiIGlua3NjYXBlOnZlcnNpb249IjAuOTIuMyAoMjQwNTU0NiwgMjAxOC0wMy0xMSkiIHNvZGlwb2RpOmRvY25hbWU9ImNvbmZpZ3VyYXRpb24uc3ZnIiB4PSIwcHgiIHk9IjBweCIgdmlld0JveD0iMCAwIDMwLjgzIDMwLjg5IiBzdHlsZT0iZW5hYmxlLWJhY2tncm91bmQ6bmV3IDAgMCAzMC44MyAzMC44OTsiIHhtbDpzcGFjZT0icHJlc2VydmUiPiYjeGE7PHNvZGlwb2RpOm5hbWVkdmlldyBib3JkZXJjb2xvcj0iIzY2NjY2NiIgYm9yZGVyb3BhY2l0eT0iMSIgZml0LW1hcmdpbi1ib3R0b209IjAiIGZpdC1tYXJnaW4tbGVmdD0iMCIgZml0LW1hcmdpbi1yaWdodD0iMCIgZml0LW1hcmdpbi10b3A9IjAiIGdyaWR0b2xlcmFuY2U9IjEwIiBndWlkZXRvbGVyYW5jZT0iMTAiIGlkPSJuYW1lZHZpZXc2NTQ4NSIgaW5rc2NhcGU6Y3VycmVudC1sYXllcj0ic3ZnNjU0ODMiIGlua3NjYXBlOmN4PSIzNS42MDkwOTYiIGlua3NjYXBlOmN5PSIxOC42NjExNTIiIGlua3NjYXBlOnBhZ2VvcGFjaXR5PSIwIiBpbmtzY2FwZTpwYWdlc2hhZG93PSIyIiBpbmtzY2FwZTp3aW5kb3ctaGVpZ2h0PSIxMDE3IiBpbmtzY2FwZTp3aW5kb3ctbWF4aW1pemVkPSIxIiBpbmtzY2FwZTp3aW5kb3ctd2lkdGg9IjE5MjAiIGlua3NjYXBlOndpbmRvdy14PSItOCIgaW5rc2NhcGU6d2luZG93LXk9Ii04IiBpbmtzY2FwZTp6b29tPSIxNC4xOTQ1MjEiIG9iamVjdHRvbGVyYW5jZT0iMTAiIHBhZ2Vjb2xvcj0iI2ZmZmZmZiIgc2hvd2dyaWQ9ImZhbHNlIj4mI3hhOwk8L3NvZGlwb2RpOm5hbWVkdmlldz4mI3hhOzxnIGlkPSJnNjU0ODEiIHRyYW5zZm9ybT0idHJhbnNsYXRlKC0wLjc0OTQyMzg2LC0wLjc0NjU2MzE1KSI+JiN4YTsJPHRpdGxlIGlkPSJ0aXRsZTY1NDU2Ij5QYWdlLTE8L3RpdGxlPiYjeGE7CTxnIGlkPSJncm91cDUwNjUtMSIgdHJhbnNmb3JtPSJ0cmFuc2xhdGUoMS41LC0xLjUpIj4mI3hhOwkJPHRpdGxlIGlkPSJ0aXRsZTY1NDU4Ij5Db25maWd1cmF0aW9uPC90aXRsZT4mI3hhOwkJPGcgaWQ9InNoYXBlNTA2Ni0yIj4mI3hhOwkJCTx0aXRsZSBpZD0idGl0bGU2NTQ2MCI+cGF0aDE5NDQuMjczNjc8L3RpdGxlPiYjeGE7CQkJPHBhdGggaWQ9InBhdGg2NTQ2MiIgaW5rc2NhcGU6Y29ubmVjdG9yLWN1cnZhdHVyZT0iMCIgc3R5bGU9ImZpbGw6I0ZGRkZGRjsiIGQ9Ik0yOS4yNSwxNS42NGMwLTAuMjQtMC4zOC0wLjcxLTEuMDgtMC43NSAgICAgbC0yLjY3LTAuMTZjLTAuNiwwLjAzLTEuMTQtMC4zNy0xLjI5LTAuOTVjMCwwLTEuMjItMi4zLTAuNTMtMy4xM2wxLjQ0LTEuOTNjMC4yMi0wLjQzLDAuMTYtMC45Ni0wLjE1LTEuMzNsLTEuNzEtMS40NCAgICAgYy0wLjMxLTAuMjctMC43OS0wLjIzLTEuMDYsMC4wOGMtMC4wMSwwLjAxLTAuMDIsMC4wMi0wLjAzLDAuMDRjMC4wMSwwLDAuMDEsMCwwLjAxLDAuMDRMMjAuMyw3LjggICAgIGMtMC40NSwwLjUxLTEuMTksMC42NS0xLjgsMC4zNGMtMC40NSwwLTAuODgtMC4yNi0xLjMtMC4yOWMtMC41OC0wLjMtMS4wMy0wLjgyLTEuMjMtMS40NWwtMC4zLTIuNDYgICAgIEMxNS41OCwzLjQxLDE1LjEzLDMuMDIsMTQuNiwzbC0yLjAyLDAuMzNjLTAuNDcsMC4wMi0wLjg3LDAuMzgtMC45NCwwLjg1bDAuMDgsMi42NGMwLDAuNjYtMC4xLDEuNzgtMi4xMiwyLjEzICAgICBjMCwwLTEuNSwwLjI3LTIuMDMtMC4xbC0yLjEtMS42OUM1LjEsNi45Nyw0LjY1LDcuMDQsNC4zNSw3LjMyTDQuMiw3LjUxbC0xLjI3LDEuNWMtMC4yNiwwLjMyLTAuMiwwLjgsMC4xMiwxLjA1ICAgICBjMC4wMSwwLjAxLDAuMDMsMC4wMiwwLjA1LDAuMDNsMS42NiwyLjA5YzAuOTYsMC45NSwwLjA5LDIuNDYsMC4wNSwyLjljLTAuMTYsMC42OC0wLjcyLDEuMTgtMS40MSwxLjI2bC0yLjY1LDAuMzQgICAgIGMtMC40NCwwLjE4LTAuNzMsMC42LTAuNzUsMS4wOGwwLjA3LDIuMjVjMC4yMSwwLjQyLDAuNjIsMC43LDEuMDgsMC43NWwyLjY3LDAuMTRjMC44OCwwLjA0LDEuNSwwLjI4LDIuMSwyLjEzICAgICBjMC4yNCwwLjQ0LDAuNCwwLjkzLTAuMzIsMS43NmwtMS40NSwyLjE1Yy0wLjE4LDAuMzgtMC4xMiwwLjgzLDAuMTYsMS4xNEw2LDI5LjQ5YzAuMzIsMC4yNCwwLjc2LDAuMjYsMS4xLDAuMDZsMS45LTEuOSAgICAgYzAuNjktMC42MywyLjYxLDAsMy4xLDAuMThjMC42MiwwLjA3LDEuMTMsMC41NCwxLjIzLDEuMTZsMC4zNCwyLjY1YzAuMTgsMC40NCwwLjYsMC43MywxLjA3LDAuNzVsMi4wMS0wLjEgICAgIGMwLjQ3LTAuMDIsMC44Ny0wLjM4LDAuOTQtMC44NWwtMC4wNy0yLjY4YzAtMC42NCwzLjEtMi42Myw0LjEzLTEuOTdsMS4xNiwwLjY4bDEuMywwLjc1YzAuMzgsMC4xOSwwLjUsMC4xMiwwLjgxLTAuMTVsMS40Mi0xLjUgICAgIGMwLjMxLTAuNDIsMC4yNC0xLjAxLTAuMTUtMS4zNWwtMS42OC0xLjgzYy0wLjUyLTAuNDMtMC4yNS0yLTAuMDktMy4wOGMwLjItMC42MSwwLjc1LTEuMDIsMS4zOS0xLjA0bDIuNzEtMC41MiAgICAgQzI5LjY4LDE4LjM3LDI5LjI1LDE1LjY0LDI5LjI1LDE1LjY0eiBNMTEuNSwyMS45OWMtMC4xMy0wLjExLTAuMjYtMC4yMS0wLjM4LTAuMzJjLTIuMTItMS44NS0yLjM1LTUuMDYtMC41Mi03LjIgICAgIGMwLDAsMCwwLDAuMDQtMC4wNmMxLjg4LTIuMjQsNS4yMS0yLjU3LDcuNS0wLjc1bDAuMTEsMC4wOWMyLjE2LDEuOTYsMi4zNiw1LjI5LDAuNDYsNy41Yy0wLjI2LDAuMzEtMC41NSwwLjYtMC44OCwwLjg0ICAgICBDMTUuOTQsMjMuNDksMTMuMzQsMjMuNDUsMTEuNSwyMS45OXoiLz4mI3hhOwkJPC9nPiYjeGE7CQk8ZyBpZD0ic2hhcGU1MDY3LTQiIHRyYW5zZm9ybT0idHJhbnNsYXRlKDQuMiwtMy45Njc1KSI+JiN4YTsJCQk8dGl0bGUgaWQ9InRpdGxlNjU0NjUiPnBhdGgxOTQ2LjI3MzY4PC90aXRsZT4mI3hhOwkJCTxwYXRoIGlkPSJwYXRoNjU0NjciIGlua3NjYXBlOmNvbm5lY3Rvci1jdXJ2YXR1cmU9IjAiIHN0eWxlPSJmaWxsOiNFNUU1RTU7IiBkPSJNMjQuNDMsMjIuNjlsLTIuNzEsMC41MSAgICAgYy0wLjY0LDAuMDItMS4yLDAuNDQtMS4zOSwxLjA1Yy0wLjE2LDEuMDgtMC40NCwyLjY1LDAuMDgsMy4wOGwxLjY0LDEuODdjMC4zOSwwLjM0LDAuNDYsMC45MywwLjE1LDEuMzVsLTEuNDIsMS41ICAgICBjLTAuMzEsMC4yNy0wLjQzLDAuMzQtMC44MSwwLjE1bC0xLjMtMC43NWwtNS4wNy01LjQxYzAuMzUtMC4yNSwwLjY3LTAuNTMsMC45NS0wLjg2YzEuOS0yLjIxLDEuNjktNS41NC0wLjQ3LTcuNWwtMC4xMi0wLjA3ICAgICBjLTIuMjktMS44Mi01LjYyLTEuNDktNy41LDAuNzVjMCwwLDAsMC0wLjA0LDAuMDVMMCwxMS40NmwwLjE2LTAuMTljMC4zLTAuMjksMC43NS0wLjM1LDEuMTItMC4xN2wyLjA5LDEuNjkgICAgIEMzLjg5LDEzLjE3LDUuNCwxMi45LDUuNCwxMi45YzIuMDItMC4zNSwyLjEzLTEuNSwyLjEyLTIuMTNMNy40NCw4LjEyQzcuNTEsNy42NSw3LjksNy4zLDguMzgsNy4yN2wyLjAyLTAuMzMgICAgIGMwLjUzLDAuMDIsMC45OCwwLjQxLDEuMDcsMC45NGwwLjMsMi40N2MwLjIsMC42MywwLjY1LDEuMTUsMS4yMywxLjQ1YzAuNDIsMCwwLjg0LDAuMjYsMS4zLDAuMjljMC42MSwwLjMxLDEuMzUsMC4xNiwxLjgtMC4zNSAgICAgbDEuODgtMS42M2MwLDAsMCwwLDAtMC4wNWMwLjI1LTAuMzMsMC43Mi0wLjQsMS4wNS0wLjE1YzAuMDEsMC4wMSwwLjAzLDAuMDIsMC4wNCwwLjAzbDEuNywxLjQ0YzAuMzEsMC4zOCwwLjM3LDAuOSwwLjE1LDEuMzQgICAgIGwtMS40LDEuODljLTAuNywwLjgzLDAuNTMsMy4xMywwLjUzLDMuMTNjMC4xNCwwLjU3LDAuNjYsMC45NywxLjI1LDAuOTZsMi42MiwwLjE3YzAuNjksMCwxLjA5LDAuNDksMS4wOCwwLjc1ICAgICBDMjUuMDUsMTkuNiwyNS40OCwyMi4zMywyNC40MywyMi42OXoiLz4mI3hhOwkJPC9nPiYjeGE7CQk8ZyBpZD0ic2hhcGU1MDY4LTYiPiYjeGE7CQkJPHRpdGxlIGlkPSJ0aXRsZTY1NDcwIj5wYXRoMTk0OC4yNzM2OTwvdGl0bGU+JiN4YTsJCQkmI3hhOwkJCQk8cGF0aCBpZD0icGF0aDY1NDcyIiBpbmtzY2FwZTpjb25uZWN0b3ItY3VydmF0dXJlPSIwIiBzdHlsZT0iZmlsbDpub25lO3N0cm9rZTojNTU2QThBO3N0cm9rZS13aWR0aDoxLjU7c3Ryb2tlLW1pdGVybGltaXQ6MzsiIGQ9IiAgICAgTTI0LjIxLDI4LjIyYzAuMzcsMC4xOCwwLjUsMC4xMiwwLjgxLTAuMTZsMS40Mi0xLjVjMC4zMS0wLjQyLDAuMjQtMS4wMS0wLjE1LTEuMzVsLTEuNjgtMS44MmMtMC41Mi0wLjQzLTAuMjQtMi4wMS0wLjA4LTMuMDggICAgIGMwLjItMC42MSwwLjc1LTEuMDIsMS4zOS0xLjA0bDIuNzEtMC41MmMxLjA1LTAuMzUsMC42LTMuMDksMC42LTMuMDljMC0wLjIzLTAuMzgtMC43MS0xLjA3LTAuNzVsLTIuNjYtMC4xNyAgICAgYy0wLjYsMC0yLjUxLTMuMjUtMS44Mi00LjA4bDEuNDQtMS45M2MwLjIyLTAuNDQsMC4xNy0wLjk2LTAuMTQtMS4zNGwtMS43LTEuNDRjLTAuMzEtMC4yNy0wLjc5LTAuMjMtMS4wNiwwLjA4ICAgICBjLTAuMDEsMC4wMS0wLjAyLDAuMDItMC4wMywwLjA0bDAsMC4wNWwtMS44NywxLjY5Yy0wLjQ1LDAuNTEtNC4xMy0wLjc1LTQuMzMtMS40bC0wLjMxLTIuNDdDMTUuNTksMy40MiwxNS4xNSwzLjAzLDE0LjYyLDMgICAgIGwtMi4wMywwLjM0Yy0wLjQ3LDAuMDItMC44NiwwLjM3LTAuOTQsMC44NGwwLjA5LDIuNjVjMCwwLjY1LTAuMSwxLjc2LTIuMTMsMi4xMmMwLDAtMS41LDAuMjctMi4wMy0wLjExbC0yLjEtMS42OSAgICAgQzUuMTEsNi45Nyw0LjY2LDcuMDQsNC4zNiw3LjMybC0xLjQ0LDEuN2MtMC4yNSwwLjMzLTAuMTksMC44LDAuMTMsMS4wNWMwLjAxLDAuMDEsMC4wMywwLjAyLDAuMDQsMC4wM2wxLjY3LDIuMDkgICAgIGMwLjk2LDAuOTUsMC4wOSwyLjQ2LDAuMDUsMi45Yy0wLjE2LDAuNjctMC43MiwxLjE4LTEuNDEsMS4yNmwtMi42NSwwLjM0Yy0wLjQzLDAuMTgtMC43MywwLjYtMC43NSwxLjA3bDAuMDcsMi4yNSAgICAgYzAuMjEsMC40MiwwLjYyLDAuNywxLjA4LDAuNzVsMi42NiwwLjE0YzAuODgsMC4wNSwxLjUsMC4yOCwyLjExLDIuMTNjMC4yMywwLjQ0LDAuMzksMC45My0wLjMzLDEuNzZsLTEuNDUsMi4xNiAgICAgYy0wLjE4LDAuMzctMC4xMiwwLjgxLDAuMTYsMS4xMkw2LDI5LjQ4YzAuMzIsMC4yNCwwLjc2LDAuMjcsMS4xMSwwLjA2TDksMjcuNjVjMC43LTAuNjMsNC4yNCwwLjc1LDQuMzQsMS4zNGwwLjMzLDIuNjUgICAgIGMwLjE4LDAuNDQsMC42LDAuNzMsMS4wNywwLjc1bDIuMDEtMC4xMWMwLjQ3LTAuMDIsMC44Ni0wLjM3LDAuOTQtMC44NGwtMC4wNy0yLjY4YzAtMC42NCwzLjEtMi42NCw0LjEzLTEuOThMMjQuMjEsMjguMjJ6Ii8+JiN4YTsJCTwvZz4mI3hhOwkJPGcgaWQ9InNoYXBlNTA2OS04IiB0cmFuc2Zvcm09InRyYW5zbGF0ZSg5LjM3NSwtOS4yNTUpIj4mI3hhOwkJCTx0aXRsZSBpZD0idGl0bGU2NTQ3NSI+Y2lyY2xlMTk1MC4yNzM3MDwvdGl0bGU+JiN4YTsJCQkmI3hhOwkJCQk8Y2lyY2xlIGlkPSJlbGxpcHNlNjU0NzciIHN0eWxlPSJmaWxsOm5vbmU7c3Ryb2tlOiM1NTZBOEE7c3Ryb2tlLXdpZHRoOjEuNTtzdHJva2UtbWl0ZXJsaW1pdDozOyIgY3g9IjUuMzIiIGN5PSIyNy4wOCIgcj0iNS4zMiIvPiYjeGE7CQk8L2c+JiN4YTsJPC9nPiYjeGE7PC9nPiYjeGE7PC9zdmc+;" vertex="1" parent="1">
          <mxGeometry x="890" y="570.62" width="71" height="71" as="geometry" />
        </mxCell>
        <mxCell id="iyrO_WsNyvsdMTxw4tpP-16" value="" style="shape=image;verticalLabelPosition=bottom;labelBackgroundColor=#ffffff;verticalAlign=top;aspect=fixed;imageAspect=0;image=data:image/svg+xml,PHN2ZyB4bWxuczpjYz0iaHR0cDovL2NyZWF0aXZlY29tbW9ucy5vcmcvbnMjIiB4bWxuczpkYz0iaHR0cDovL3B1cmwub3JnL2RjL2VsZW1lbnRzLzEuMS8iIHhtbG5zOmlua3NjYXBlPSJodHRwOi8vd3d3Lmlua3NjYXBlLm9yZy9uYW1lc3BhY2VzL2lua3NjYXBlIiB4bWxuczpyZGY9Imh0dHA6Ly93d3cudzMub3JnLzE5OTkvMDIvMjItcmRmLXN5bnRheC1ucyMiIHhtbG5zOnNvZGlwb2RpPSJodHRwOi8vc29kaXBvZGkuc291cmNlZm9yZ2UubmV0L0RURC9zb2RpcG9kaS0wLmR0ZCIgeG1sbnM6c3ZnPSJodHRwOi8vd3d3LnczLm9yZy8yMDAwL3N2ZyIgeG1sbnM9Imh0dHA6Ly93d3cudzMub3JnLzIwMDAvc3ZnIiB4bWxuczp4bGluaz0iaHR0cDovL3d3dy53My5vcmcvMTk5OS94bGluayIgdmVyc2lvbj0iMS4xIiBpZD0ic3ZnNjgzMjMiIGlua3NjYXBlOnZlcnNpb249IjAuOTIuMyAoMjQwNTU0NiwgMjAxOC0wMy0xMSkiIHNvZGlwb2RpOmRvY25hbWU9ImludGVncmF0aW9uLnN2ZyIgeD0iMHB4IiB5PSIwcHgiIHZpZXdCb3g9IjAgMCAxMDIuMDQgNjcuNzUiIHN0eWxlPSJlbmFibGUtYmFja2dyb3VuZDpuZXcgMCAwIDEwMi4wNCA2Ny43NTsiIHhtbDpzcGFjZT0icHJlc2VydmUiPiYjeGE7PGZpbHRlciBpZD0iZmlsdGVyXzIiPiYjeGE7CTxmZUdhdXNzaWFuQmx1ciBpZD0iZmVHYXVzc2lhbkJsdXI2NzMyMiIgc3RkRGV2aWF0aW9uPSIyIi8+JiN4YTs8L2ZpbHRlcj4mI3hhOzxzb2RpcG9kaTpuYW1lZHZpZXcgYm9yZGVyY29sb3I9IiM2NjY2NjYiIGJvcmRlcm9wYWNpdHk9IjEiIGZpdC1tYXJnaW4tYm90dG9tPSIwIiBmaXQtbWFyZ2luLWxlZnQ9IjAiIGZpdC1tYXJnaW4tcmlnaHQ9IjAiIGZpdC1tYXJnaW4tdG9wPSIwIiBncmlkdG9sZXJhbmNlPSIxMCIgZ3VpZGV0b2xlcmFuY2U9IjEwIiBpZD0ibmFtZWR2aWV3NjgzMjUiIGlua3NjYXBlOmN1cnJlbnQtbGF5ZXI9InN2ZzY4MzIzIiBpbmtzY2FwZTpjeD0iNjguMDEwMTgxIiBpbmtzY2FwZTpjeT0iMTguMDI2OTczIiBpbmtzY2FwZTpwYWdlb3BhY2l0eT0iMCIgaW5rc2NhcGU6cGFnZXNoYWRvdz0iMiIgaW5rc2NhcGU6d2luZG93LWhlaWdodD0iMTAxNyIgaW5rc2NhcGU6d2luZG93LW1heGltaXplZD0iMSIgaW5rc2NhcGU6d2luZG93LXdpZHRoPSIxOTIwIiBpbmtzY2FwZTp3aW5kb3cteD0iLTgiIGlua3NjYXBlOndpbmRvdy15PSItOCIgaW5rc2NhcGU6em9vbT0iNC4zNDMzNjcyIiBvYmplY3R0b2xlcmFuY2U9IjEwIiBwYWdlY29sb3I9IiNmZmZmZmYiIHNob3dncmlkPSJmYWxzZSI+JiN4YTsJPC9zb2RpcG9kaTpuYW1lZHZpZXc+JiN4YTs8ZyBpZD0iZzY4MzIxIiB0cmFuc2Zvcm09InRyYW5zbGF0ZSgtMC43NTAxMDY5MiwtNi4zNjAxKSI+JiN4YTsJPHRpdGxlIGlkPSJ0aXRsZTY3MzI2Ij5QYWdlLTE8L3RpdGxlPiYjeGE7CTxnIGlkPSJncm91cDYyOS0xIiB0cmFuc2Zvcm09InRyYW5zbGF0ZSgwLjc1LC0wLjc1KSI+JiN4YTsJCTx0aXRsZSBpZD0idGl0bGU2NzMyOCI+SW50ZWdyYXRpb248L3RpdGxlPiYjeGE7CQk8ZyBpZD0ic2hhcGU2MzAtMiIgdHJhbnNmb3JtPSJ0cmFuc2xhdGUoMzcuODA3OCwtMTYuMDQ2NSkiPiYjeGE7CQkJPHRpdGxlIGlkPSJ0aXRsZTY3MzMwIj5wYXRoMTY5NzE8L3RpdGxlPiYjeGE7CQkJPHBhdGggaWQ9InBhdGg2NzMzMiIgaW5rc2NhcGU6Y29ubmVjdG9yLWN1cnZhdHVyZT0iMCIgc3R5bGU9ImZpbGw6IzhDRDZFRjtmaWxsLW9wYWNpdHk6MC4zNTsiIGQ9Ik0yMy42OSw3NC44NGwtMC4wMywwLjAyICAgICBMMCw0Ny4xNWM3Ljg2LTIuNiwxNy4yOS0xLjM4LDIzLjY5LDMuNjRDMzIuMTUsNTcuNDMsMzIuMTUsNjguMTksMjMuNjksNzQuODR6Ii8+JiN4YTsJCTwvZz4mI3hhOwkJPGcgaWQ9Imdyb3VwNjMxLTQiPiYjeGE7CQkJPHRpdGxlIGlkPSJ0aXRsZTY3MzM1Ij5TaGVldC42MzE8L3RpdGxlPiYjeGE7CQkJPGcgaWQ9Imdyb3VwNjMyLTUiIHRyYW5zZm9ybT0idHJhbnNsYXRlKDMzLjQ1MzUsLTU4LjI0NjIpIj4mI3hhOwkJCQk8dGl0bGUgaWQ9InRpdGxlNjczMzciPkpTT04uMzQwPC90aXRsZT4mI3hhOwkJCQk8ZyBpZD0iZ3JvdXA2MzMtNiI+JiN4YTsJCQkJCTx0aXRsZSBpZD0idGl0bGU2NzMzOSI+SlM8L3RpdGxlPiYjeGE7CQkJCQk8ZyBpZD0iZ3JvdXA2MzQtNyI+JiN4YTsJCQkJCQk8dGl0bGUgaWQ9InRpdGxlNjczNDEiPlNoZWV0LjYzNDwvdGl0bGU+JiN4YTsJCQkJCQk8ZyBpZD0ic2hhcGU2MzUtOCI+JiN4YTsJCQkJCQkJPHRpdGxlIGlkPSJ0aXRsZTY3MzQzIj5TaGVldC42MzU8L3RpdGxlPiYjeGE7CQkJCQkJCTxwYXRoIGlkPSJwYXRoNjczNDUiIGlua3NjYXBlOmNvbm5lY3Rvci1jdXJ2YXR1cmU9IjAiIHN0eWxlPSJmaWxsOiNFOUU5RTA7IiBkPSJNMi42Niw2OS45MkgwLjEzICAgICAgICAgQzAuMDYsNjkuOTIsMCw2OS45OCwwLDcwLjA5djQuNjhjMCwwLjAzLDAuMDYsMC4wOSwwLjEzLDAuMDloMy40OWMwLjA3LDAsMC4xMy0wLjA2LDAuMTMtMC4wOXYtMy43ICAgICAgICAgYzAtMC4wNi0wLjAxLTAuMDgtMC4wMi0wLjFsLTEuMDItMS4wMkMyLjcsNjkuOTMsMi42OCw2OS45MiwyLjY2LDY5LjkyeiIvPiYjeGE7CQkJCQkJPC9nPiYjeGE7CQkJCQkJPGcgaWQ9InNoYXBlNjM2LTEwIiB0cmFuc2Zvcm09InRyYW5zbGF0ZSgyLjcwMTc3LC0zLjg3NCkiPiYjeGE7CQkJCQkJCTx0aXRsZSBpZD0idGl0bGU2NzM0OCI+U2hlZXQuNjM2PC90aXRsZT4mI3hhOwkJCQkJCQk8cGF0aCBpZD0icGF0aDY3MzUwIiBpbmtzY2FwZTpjb25uZWN0b3ItY3VydmF0dXJlPSIwIiBzdHlsZT0iZmlsbDojRDlEN0NBOyIgZD0iTTAsNzMuODF2MS4wNWgxLjAzTDAsNzMuODF6Ii8+JiN4YTsJCQkJCQk8L2c+JiN4YTsJCQkJCQk8ZyBpZD0ic2hhcGU2MzctMTIiPiYjeGE7CQkJCQkJCTx0aXRsZSBpZD0idGl0bGU2NzM1MyI+U2hlZXQuNjM3PC90aXRsZT4mI3hhOwkJCQkJCQk8cGF0aCBpZD0icGF0aDY3MzU1IiBpbmtzY2FwZTpjb25uZWN0b3ItY3VydmF0dXJlPSIwIiBzdHlsZT0iZmlsbDojRUVBRjRCOyIgZD0iTTMuNjIsNzQuODZIMC4xM0MwLjA2LDc0Ljg2LDAsNzQuOCwwLDc0LjczICAgICAgICAgdi0xLjM3aDMuNzV2MS4zN0MzLjc1LDc0LjgsMy42OSw3NC44NiwzLjYyLDc0Ljg2eiIvPiYjeGE7CQkJCQkJPC9nPiYjeGE7CQkJCQkJPGcgaWQ9Imdyb3VwNjM4LTE0IiB0cmFuc2Zvcm09InRyYW5zbGF0ZSgwLjY5NzIzMSwtMi4xMTMwOSkiPiYjeGE7CQkJCQkJCTx0aXRsZSBpZD0idGl0bGU2NzM1OCI+U2hlZXQuNjM4PC90aXRsZT4mI3hhOwkJCQkJCQk8ZyBpZD0ic2hhcGU2MzktMTUiPiYjeGE7CQkJCQkJCQk8dGl0bGUgaWQ9InRpdGxlNjczNjAiPlNoZWV0LjYzOTwvdGl0bGU+JiN4YTsJCQkJCQkJCTxwYXRoIGlkPSJwYXRoNjczNjIiIGlua3NjYXBlOmNvbm5lY3Rvci1jdXJ2YXR1cmU9IjAiIHN0eWxlPSJmaWxsOiNFRUFGNEI7IiBkPSJNMC40NCw3My43MXYtMC4zNSAgICAgICAgICBjMC0wLjA1LDAuMDMtMC4wOSwwLjA4LTAuMDljMC4wNSwwLDAuMDktMC4wNCwwLjA5LTAuMDljMC0wLjA1LTAuMDQtMC4wOS0wLjA5LTAuMDljLTAuMTQsMC0wLjI2LDAuMTItMC4yNiwwLjI3djAuMzUgICAgICAgICAgYzAsMC4xLTAuMDgsMC4xOC0wLjE3LDAuMThDMC4wNCw3My44OSwwLDczLjkzLDAsNzMuOTdjMCwwLjA1LDAuMDQsMC4wOSwwLjA5LDAuMDljMC4wOSwwLDAuMTcsMC4wOCwwLjE3LDAuMTh2MC4zNSAgICAgICAgICBjMCwwLjE1LDAuMTIsMC4yNywwLjI2LDAuMjdjMC4wNSwwLDAuMDktMC4wNCwwLjA5LTAuMDljMC0wLjA1LTAuMDQtMC4wOS0wLjA5LTAuMDlzLTAuMDgtMC4wNC0wLjA4LTAuMDl2LTAuMzUgICAgICAgICAgYzAtMC4xMS0wLjA1LTAuMi0wLjEyLTAuMjdDMC4zOSw3My45MSwwLjQ0LDczLjgyLDAuNDQsNzMuNzFMMC40NCw3My43MXoiLz4mI3hhOwkJCQkJCQk8L2c+JiN4YTsJCQkJCQkJPGcgaWQ9InNoYXBlNjQwLTE3IiB0cmFuc2Zvcm09InRyYW5zbGF0ZSgxLjAwMjI3LC0xLjA1NjU0KSI+JiN4YTsJCQkJCQkJCTx0aXRsZSBpZD0idGl0bGU2NzM2NSI+U2hlZXQuNjQwPC90aXRsZT4mI3hhOwkJCQkJCQkJPGVsbGlwc2UgaWQ9ImVsbGlwc2U2NzM2NyIgc3R5bGU9ImZpbGw6I0VFQUY0QjsiIGN4PSIwLjEzIiBjeT0iNzQuNzIiIHJ4PSIwLjEzIiByeT0iMC4xMyIvPiYjeGE7CQkJCQkJCTwvZz4mI3hhOwkJCQkJCQk8ZyBpZD0ic2hhcGU2NDEtMTkiIHRyYW5zZm9ybT0idHJhbnNsYXRlKDEuNjU1OTIpIj4mI3hhOwkJCQkJCQkJPHRpdGxlIGlkPSJ0aXRsZTY3MzcwIj5TaGVldC42NDE8L3RpdGxlPiYjeGE7CQkJCQkJCQk8cGF0aCBpZD0icGF0aDY3MzcyIiBpbmtzY2FwZTpjb25uZWN0b3ItY3VydmF0dXJlPSIwIiBzdHlsZT0iZmlsbDojRUVBRjRCOyIgZD0iTTAuNTIsNzMuODljLTAuMDksMC0wLjE3LTAuMDgtMC4xNy0wLjE4ICAgICAgICAgIHYtMC4zNWMwLTAuMTUtMC4xMi0wLjI3LTAuMjYtMC4yN0MwLjA0LDczLjA5LDAsNzMuMTMsMCw3My4xOGMwLDAuMDUsMC4wNCwwLjA5LDAuMDksMC4wOXMwLjA4LDAuMDQsMC4wOCwwLjA5djAuMzUgICAgICAgICAgYzAsMC4xMSwwLjA1LDAuMiwwLjEyLDAuMjZjLTAuMDcsMC4wNy0wLjEyLDAuMTYtMC4xMiwwLjI3djAuMzVjMCwwLjA1LTAuMDMsMC4wOS0wLjA4LDAuMDlTMCw3NC43MiwwLDc0Ljc3ICAgICAgICAgIGMwLDAuMDUsMC4wNCwwLjA5LDAuMDksMC4wOWMwLjE0LDAsMC4yNi0wLjEyLDAuMjYtMC4yN3YtMC4zNWMwLTAuMSwwLjA4LTAuMTgsMC4xNy0wLjE4YzAuMDUsMCwwLjA5LTAuMDQsMC4wOS0wLjA5ICAgICAgICAgIEMwLjYxLDczLjkzLDAuNTcsNzMuODksMC41Miw3My44OUwwLjUyLDczLjg5eiIvPiYjeGE7CQkJCQkJCTwvZz4mI3hhOwkJCQkJCQk8ZyBpZD0ic2hhcGU2NDItMjEiIHRyYW5zZm9ybT0idHJhbnNsYXRlKDEuMDQ1ODUsLTAuMjY0MTM2KSI+JiN4YTsJCQkJCQkJCTx0aXRsZSBpZD0idGl0bGU2NzM3NSI+U2hlZXQuNjQyPC90aXRsZT4mI3hhOwkJCQkJCQkJPHBhdGggaWQ9InBhdGg2NzM3NyIgaW5rc2NhcGU6Y29ubmVjdG9yLWN1cnZhdHVyZT0iMCIgc3R5bGU9ImZpbGw6I0VFQUY0QjsiIGQ9Ik0wLjA5LDc0LjQyQzAuMDQsNzQuNDIsMCw3NC40NSwwLDc0LjUgICAgICAgICAgdjAuMjdjMCwwLjA1LDAuMDQsMC4wOSwwLjA5LDAuMDlzMC4wOC0wLjA0LDAuMDgtMC4wOVY3NC41QzAuMTcsNzQuNDUsMC4xNCw3NC40MiwwLjA5LDc0LjQyeiIvPiYjeGE7CQkJCQkJCTwvZz4mI3hhOwkJCQkJCTwvZz4mI3hhOwkJCQkJPC9nPiYjeGE7CQkJCTwvZz4mI3hhOwkJCQk8ZyBpZD0iZ3JvdXA2NDMtMjMiIHRyYW5zZm9ybT0idHJhbnNsYXRlKDAuNTM0ODc1LC0wLjM0NDc0MykiPiYjeGE7CQkJCQk8dGl0bGUgaWQ9InRpdGxlNjczODMiPkpTT04uMzY2NjQ8L3RpdGxlPiYjeGE7CQkJCQk8ZyBpZD0ic2hhcGU2NDQtMjQiIHRyYW5zZm9ybT0idHJhbnNsYXRlKDAsLTcuNDQ3NjJlLTYpIj4mI3hhOwkJCQkJCTx0aXRsZSBpZD0idGl0bGU2NzM4NSI+U2hlZXQuNjQ0PC90aXRsZT4mI3hhOwkJCQkJCTxwYXRoIGlkPSJwYXRoNjczODciIGlua3NjYXBlOmNvbm5lY3Rvci1jdXJ2YXR1cmU9IjAiIHN0eWxlPSJmaWxsOiNGRkZGRkY7IiBkPSJNMC40OSw3NC4wNHYwLjYyYzAsMC4wMy0wLjAxLDAuMDctMC4wMiwwLjA5ICAgICAgICBjLTAuMDIsMC4wMy0wLjAzLDAuMDUtMC4wNiwwLjA2Yy0wLjAyLDAuMDItMC4wNSwwLjAzLTAuMDgsMC4wNGMtMC4wMywwLTAuMDYsMC4wMS0wLjA5LDAuMDFjLTAuMDIsMC0wLjAzLTAuMDEtMC4wNi0wLjAxICAgICAgICBjLTAuMDIsMC0wLjA0LTAuMDEtMC4wNi0wLjAxYy0wLjAyLTAuMDEtMC4wNS0wLjAyLTAuMDctMC4wM0MwLjAzLDc0LjgsMC4wMSw3NC43OSwwLDc0Ljc4bDAuMDYtMC4wOCAgICAgICAgYzAsMCwwLjAxLDAuMDEsMC4wMywwLjAxYzAuMDEsMC4wMSwwLjAyLDAuMDEsMC4wNCwwLjAyYzAuMDIsMCwwLjAzLDAsMC4wNSwwLjAxYzAuMDIsMCwwLjAzLDAsMC4wNSwwICAgICAgICBjMC4wNCwwLDAuMDcsMCwwLjA5LTAuMDJjMC4wMi0wLjAxLDAuMDMtMC4wNCwwLjA0LTAuMDd2LTAuNjFIMC40OXoiLz4mI3hhOwkJCQkJPC9nPiYjeGE7CQkJCQk8ZyBpZD0ic2hhcGU2NDUtMjYiIHRyYW5zZm9ybT0idHJhbnNsYXRlKDAuNjcxMDMxLC0wLjAwMTEwMjI1KSI+JiN4YTsJCQkJCQk8dGl0bGUgaWQ9InRpdGxlNjczOTAiPlNoZWV0LjY0NTwvdGl0bGU+JiN4YTsJCQkJCQk8cGF0aCBpZD0icGF0aDY3MzkyIiBpbmtzY2FwZTpjb25uZWN0b3ItY3VydmF0dXJlPSIwIiBzdHlsZT0iZmlsbDojRkZGRkZGOyIgZD0iTTAuNDYsNzQuNjNjMCwwLjAzLDAsMC4wNi0wLjAxLDAuMDkgICAgICAgIGMtMC4wMiwwLjAyLTAuMDMsMC4wNS0wLjA1LDAuMDdjLTAuMDMsMC4wMi0wLjA1LDAuMDMtMC4wOCwwLjA1Yy0wLjA0LDAuMDEtMC4wNywwLjAyLTAuMTEsMC4wMmMtMC4wMiwwLTAuMDQtMC4wMS0wLjA2LTAuMDEgICAgICAgIHMtMC4wMywwLTAuMDUtMC4wMWMtMC4wMiwwLTAuMDQtMC4wMS0wLjA2LTAuMDFDMC4wMyw3NC44MiwwLjAxLDc0LjgxLDAsNzQuOGwwLjAyLTAuMWMwLjAxLDAuMDEsMC4wMywwLjAyLDAuMDQsMC4wMiAgICAgICAgYzAuMDIsMC4wMSwwLjAzLDAuMDEsMC4wNSwwLjAyYzAuMDIsMCwwLjAzLDAuMDEsMC4wNSwwLjAxczAuMDMsMCwwLjA1LDBjMC4wNCwwLDAuMDctMC4wMSwwLjEtMC4wMyAgICAgICAgYzAuMDItMC4wMiwwLjAzLTAuMDUsMC4wMy0wLjA5YzAtMC4wMi0wLjAxLTAuMDUtMC4wMi0wLjA2Yy0wLjAyLTAuMDItMC4wNC0wLjA0LTAuMDctMC4wNWMtMC4wMi0wLjAxLTAuMDUtMC4wMy0wLjA4LTAuMDQgICAgICAgIGMtMC4wMi0wLjAyLTAuMDUtMC4wMy0wLjA4LTAuMDVjLTAuMDItMC4wMi0wLjA0LTAuMDQtMC4wNi0wLjA3cy0wLjAyLTAuMDYtMC4wMi0wLjFjMC0wLjAzLDAtMC4wNiwwLjAxLTAuMDkgICAgICAgIGMwLjAyLTAuMDMsMC4wNC0wLjA1LDAuMDYtMC4wN3MwLjA1LTAuMDMsMC4wNy0wLjA0YzAuMDMtMC4wMSwwLjA2LTAuMDIsMC4xLTAuMDJjMC4wMywwLDAuMDYsMCwwLjEsMC4wMSAgICAgICAgYzAuMDMsMC4wMSwwLjA2LDAuMDIsMC4wOCwwLjAzYzAsMC4wMS0wLjAxLDAuMDItMC4wMiwwLjAzYzAsMC4wMS0wLjAxLDAuMDItMC4wMSwwLjAzYy0wLjAxLDAuMDEtMC4wMSwwLjAyLTAuMDEsMC4wMyAgICAgICAgYy0wLjAxLDAtMC4wMSwwLjAxLTAuMDEsMC4wMWMtMC4wMS0wLjAxLTAuMDEtMC4wMS0wLjAyLTAuMDFjMC0wLjAxLTAuMDEtMC4wMS0wLjAyLTAuMDFjLTAuMDEtMC4wMS0wLjAyLTAuMDEtMC4wNC0wLjAxICAgICAgICBjLTAuMDIsMC0wLjA0LDAtMC4wNiwwcy0wLjAzLDAuMDEtMC4wNCwwLjAxYy0wLjAyLDAuMDEtMC4wMywwLjAyLTAuMDQsMC4wM2MtMC4wMSwwLjAxLTAuMDIsMC4wMi0wLjAyLDAuMDMgICAgICAgIGMtMC4wMSwwLjAyLTAuMDEsMC4wMy0wLjAxLDAuMDRjMCwwLjAzLDAuMDEsMC4wNSwwLjAyLDAuMDdjMC4wMiwwLjAyLDAuMDQsMC4wMywwLjA3LDAuMDVjMC4wMiwwLjAxLDAuMDUsMC4wMiwwLjA4LDAuMDMgICAgICAgIGMwLjAyLDAuMDIsMC4wNSwwLjAzLDAuMDgsMC4wNWMwLjAyLDAuMDIsMC4wNCwwLjA0LDAuMDYsMC4wN0MwLjQ1LDc0LjU1LDAuNDYsNzQuNTksMC40Niw3NC42M3oiLz4mI3hhOwkJCQkJPC9nPiYjeGE7CQkJCQk8ZyBpZD0ic2hhcGU2NDYtMjgiIHRyYW5zZm9ybT0idHJhbnNsYXRlKDEuMjUzNDcpIj4mI3hhOwkJCQkJCTx0aXRsZSBpZD0idGl0bGU2NzM5NSI+U2hlZXQuNjQ2PC90aXRsZT4mI3hhOwkJCQkJCTxwYXRoIGlkPSJwYXRoNjczOTciIGlua3NjYXBlOmNvbm5lY3Rvci1jdXJ2YXR1cmU9IjAiIHN0eWxlPSJmaWxsOiNGRkZGRkY7IiBkPSJNMC42Niw3NC40NWMwLDAuMDYsMCwwLjEyLTAuMDIsMC4xNyAgICAgICAgYy0wLjAyLDAuMDYtMC4wNCwwLjEtMC4wNywwLjEzYy0wLjAzLDAuMDQtMC4wNywwLjA2LTAuMTEsMC4wOGMtMC4wNCwwLjAyLTAuMDgsMC4wMy0wLjEzLDAuMDNzLTAuMDktMC4wMS0wLjEzLTAuMDMgICAgICAgIGMtMC4wNC0wLjAyLTAuMDctMC4wNC0wLjEtMC4wOGMtMC4wMy0wLjAzLTAuMDYtMC4wNy0wLjA3LTAuMTNDMC4wMSw3NC41NywwLDc0LjUxLDAsNzQuNDVjMC0wLjA3LDAuMDEtMC4xMywwLjAzLTAuMTggICAgICAgIGMwLjAxLTAuMDUsMC4wNC0wLjA5LDAuMDctMC4xM2MwLjAzLTAuMDMsMC4wNi0wLjA2LDAuMS0wLjA3YzAuMDQtMC4wMiwwLjA4LTAuMDMsMC4xMy0wLjAzczAuMDksMC4wMSwwLjEzLDAuMDMgICAgICAgIGMwLjA0LDAuMDEsMC4wOCwwLjA0LDAuMTEsMC4wN2MwLjAzLDAuMDQsMC4wNSwwLjA4LDAuMDcsMC4xM0MwLjY2LDc0LjMyLDAuNjYsNzQuMzgsMC42Niw3NC40NXogTTAuMzMsNzQuNzUgICAgICAgIGMwLjAzLDAsMC4wNS0wLjAxLDAuMDgtMC4wMmMwLjAyLTAuMDEsMC4wNC0wLjAyLDAuMDYtMC4wNWMwLjAyLTAuMDIsMC4wMy0wLjA1LDAuMDUtMC4wOWMwLjAxLTAuMDQsMC4wMS0wLjA5LDAuMDEtMC4xNCAgICAgICAgYzAtMC4wNiwwLTAuMS0wLjAxLTAuMTRjLTAuMDEtMC4wNC0wLjAzLTAuMDctMC4wNS0wLjA5Yy0wLjAyLTAuMDMtMC4wNC0wLjA1LTAuMDYtMC4wNmMtMC4wMi0wLjAxLTAuMDUtMC4wMS0wLjA3LTAuMDEgICAgICAgIGMtMC4wMywwLTAuMDYsMC0wLjA4LDAuMDFjLTAuMDMsMC4wMS0wLjA1LDAuMDMtMC4wNywwLjA1Yy0wLjAxLDAuMDMtMC4wMywwLjA2LTAuMDQsMC4xYy0wLjAxLDAuMDMtMC4wMiwwLjA4LTAuMDIsMC4xNCAgICAgICAgYzAsMC4wNSwwLjAxLDAuMSwwLjAyLDAuMTRjMC4wMSwwLjAzLDAuMDIsMC4wNywwLjA0LDAuMDlzMC4wNCwwLjA0LDAuMDYsMC4wNUMwLjI4LDc0Ljc0LDAuMyw3NC43NSwwLjMzLDc0Ljc1eiIvPiYjeGE7CQkJCQk8L2c+JiN4YTsJCQkJCTxnIGlkPSJzaGFwZTY0Ny0zMCIgdHJhbnNmb3JtPSJ0cmFuc2xhdGUoMi4xMDA5NywtMC4wMDUzODQ2MykiPiYjeGE7CQkJCQkJPHRpdGxlIGlkPSJ0aXRsZTY3NDAwIj5TaGVldC42NDc8L3RpdGxlPiYjeGE7CQkJCQkJPHBhdGggaWQ9InBhdGg2NzQwMiIgaW5rc2NhcGU6Y29ubmVjdG9yLWN1cnZhdHVyZT0iMCIgc3R5bGU9ImZpbGw6I0ZGRkZGRjsiIGQ9Ik0wLjU4LDc0LjA2djAuOEgwLjQ0bC0wLjMxLTAuNTV2MC41NUgwdi0wLjggICAgICAgIGgwLjEzbDAuMzEsMC41NXYtMC41NUgwLjU4eiIvPiYjeGE7CQkJCQk8L2c+JiN4YTsJCQkJPC9nPiYjeGE7CQkJPC9nPiYjeGE7CQkJPGcgaWQ9InNoYXBlNjQ4LTMyIiB0cmFuc2Zvcm09InRyYW5zbGF0ZSgyNi42NzA3LC01LjI5OTEyKSI+JiN4YTsJCQkJPHRpdGxlIGlkPSJ0aXRsZTY3NDA3Ij5wYXRoMTA0MS4xODgyNjwvdGl0bGU+JiN4YTsJCQkJPHBhdGggaWQ9InBhdGg2NzQwOSIgaW5rc2NhcGU6Y29ubmVjdG9yLWN1cnZhdHVyZT0iMCIgc3R5bGU9ImZpbGw6IzNGNDc4RjsiIGQ9Ik00NS45Niw1NC4wOXYtNC43bC00LjMtMS44ICAgICAgYy0wLjQ4LTIuMi0xLjM1LTQuMy0yLjU3LTYuMTlsMS42OS00LjE0bC0zLjMzLTMuMzJsLTQuMTIsMS42N2MtMS44Ny0xLjIxLTMuOTQtMi4wOC02LjExLTIuNTdsLTEuODktNC40OGgtNC43bC0xLjg4LDQuNDkgICAgICBjLTIuMTQsMC40OS00LjE5LDEuMzUtNi4wNCwyLjUzbC00LjMyLTEuNzZsLTMuMzMsMy4zMmwxLjc2LDQuMzRjLTEuMTksMS44Ny0yLjA1LDMuOTQtMi41Myw2LjExTDAsNDkuMzl2NC43bDQuMzEsMS44MiAgICAgIGMwLjQ5LDIuMTcsMS4zNiw0LjI0LDIuNTcsNi4xMWwtMS43Myw0LjIybDMuMzMsMy4zM2w0LjIzLTEuNzNjMS44NSwxLjE4LDMuODksMi4wNCw2LjAzLDIuNTNsMS44OSw0LjQ5aDQuN2wxLjg4LTQuNDkgICAgICBjMi4xNi0wLjQ5LDQuMjItMS4zNiw2LjA5LTIuNTZsNC4wOCwxLjY3bDMuMzMtMy4zMmwtMS42Ni00LjA4YzEuMjItMS44OCwyLjEtMy45NywyLjU5LTYuMTZMNDUuOTYsNTQuMDl6IE0yMi45OCw2Ny45OSAgICAgIGMtOC45NywwLTE2LjI3LTcuMy0xNi4yNy0xNi4yOGMwLTguOTcsNy4zLTE2LjI3LDE2LjI3LTE2LjI3YzguOTgsMCwxNi4yOCw3LjMsMTYuMjgsMTYuMjcgICAgICBDMzkuMjYsNjAuNjksMzEuOTYsNjcuOTksMjIuOTgsNjcuOTl6Ii8+JiN4YTsJCQk8L2c+JiN4YTsJCQk8ZyBpZD0ic2hhcGU2NDktMzQiIHRyYW5zZm9ybT0idHJhbnNsYXRlKDY5LjMwMzMsLTI1Ljg1MDUpIj4mI3hhOwkJCQk8dGl0bGUgaWQ9InRpdGxlNjc0MTIiPnBhdGgxMDQzPC90aXRsZT4mI3hhOwkJCQk8cGF0aCBpZD0icGF0aDY3NDE0IiBpbmtzY2FwZTpjb25uZWN0b3ItY3VydmF0dXJlPSIwIiBzdHlsZT0iZmlsbDojMzA5M0QwOyIgZD0iTTcuNzUsNzMuMjRsMy4xNiwxLjQybDIuNTItMi4zNCAgICAgIGMxLjYyLDAuMzQsMy4yOSwwLjM5LDQuOTMsMC4xNWwyLjI3LDIuMzlsMy4yNC0xLjIzbDAuMTItMy4yOGMxLjM3LTAuODksMi41OC0yLjAyLDMuNTctMy4zM2wzLjU5LDAuMDlsMS40Mi0zLjE2bC0yLjQ0LTIuNjIgICAgICBjMC4zMi0xLjU5LDAuMzYtMy4yMiwwLjEzLTQuODNsMi40OC0yLjM3bC0xLjIyLTMuMjVsLTMuNDUtMC4xMmMtMC45LTEuMzctMi4wMy0yLjU3LTMuMzQtMy41NWwwLjA4LTMuNDRsLTMuMTYtMS40MiAgICAgIGwtMi41MywyLjM1Yy0xLjYxLTAuMzMtMy4yNi0wLjM3LTQuODgtMC4xM2wtMi4zMS0yLjQzbC0zLjI1LDEuMjJsLTAuMTIsMy4zN2MtMS4zNSwwLjg5LTIuNTUsMi0zLjUyLDMuMjlsLTMuNTgtMC4wOSAgICAgIGwtMS40MiwzLjE2bDIuNDQsMi42MmMtMC4zMywxLjYtMC4zNywzLjI1LTAuMTIsNC44N0wwLDYyLjgybDEuMjMsMy4yNGwzLjI0LDAuMTJjMC45LDEuNCwyLjA0LDIuNjIsMy4zNiwzLjYyTDcuNzUsNzMuMjR6ICAgICAgIE01LjM3LDUzLjU5YzIuNzItNi4wMyw5Ljg0LTguNzIsMTUuODctNmM2LjA0LDIuNzEsOC43Myw5LjgzLDYuMDEsMTUuODdjLTIuNzIsNi4wMy05LjgzLDguNzItMTUuODcsNiAgICAgIEM1LjM1LDY2Ljc1LDIuNjUsNTkuNjMsNS4zNyw1My41OXoiLz4mI3hhOwkJCTwvZz4mI3hhOwkJCTxnIGlkPSJzaGFwZTY1MC0zNiIgdHJhbnNmb3JtPSJ0cmFuc2xhdGUoODMuMjI4NCwtMzQuOTAwNSkiPiYjeGE7CQkJCTx0aXRsZSBpZD0idGl0bGU2NzQxNyI+cmVjdDEwNDU8L3RpdGxlPiYjeGE7CQkJCTxyZWN0IGlkPSJyZWN0Njc0MTkiIHg9IjAiIHk9IjY3LjE2IiBzdHlsZT0iZmlsbDojMzA5M0QwOyIgd2lkdGg9IjEuODUiIGhlaWdodD0iNy43Ii8+JiN4YTsJCQk8L2c+JiN4YTsJCQk8ZyBpZD0ic2hhcGU2NTEtMzgiIHRyYW5zZm9ybT0idHJhbnNsYXRlKDg2LjMxNTcsLTM0LjkwMDUpIj4mI3hhOwkJCQk8dGl0bGUgaWQ9InRpdGxlNjc0MjIiPnJlY3QxMDQ3PC90aXRsZT4mI3hhOwkJCQk8cmVjdCBpZD0icmVjdDY3NDI0IiB4PSIwIiB5PSI2NS4zNCIgc3R5bGU9ImZpbGw6IzMwOTNEMDsiIHdpZHRoPSIxLjg1IiBoZWlnaHQ9IjkuNTEiLz4mI3hhOwkJCTwvZz4mI3hhOwkJCTxnIGlkPSJzaGFwZTY1Mi00MCIgdHJhbnNmb3JtPSJ0cmFuc2xhdGUoODkuNDAzLC0zNC45MDA1KSI+JiN4YTsJCQkJPHRpdGxlIGlkPSJ0aXRsZTY3NDI3Ij5yZWN0MTA0OTwvdGl0bGU+JiN4YTsJCQkJPHJlY3QgaWQ9InJlY3Q2NzQyOSIgeD0iMCIgeT0iNjIuNjEiIHN0eWxlPSJmaWxsOiMzMDkzRDA7IiB3aWR0aD0iMS44NSIgaGVpZ2h0PSIxMi4yNSIvPiYjeGE7CQkJPC9nPiYjeGE7CQkJPGcgaWQ9InNoYXBlNjUzLTQyIiB0cmFuc2Zvcm09InRyYW5zbGF0ZSg3OS41MDUyLC00MS4wNjU5KSI+JiN4YTsJCQkJPHRpdGxlIGlkPSJ0aXRsZTY3NDMyIj5wb2x5Z29uMTA1MTwvdGl0bGU+JiN4YTsJCQkJPHBhdGggaWQ9InBhdGg2NzQzNCIgaW5rc2NhcGU6Y29ubmVjdG9yLWN1cnZhdHVyZT0iMCIgc3R5bGU9ImZpbGw6IzMxOTNEMDsiIGQ9Ik02LjQ5LDcwLjQ2bDEuNzUtMy45N2wyLjU3LTAuMzVsLTAuMDMtMC41MyAgICAgIGwtMi45LDAuNGwtMS43NiwzLjk2bC00LjMsMC41OEwwLDc0LjY4bDAuNSwwLjE4bDEuNjgtMy44Mkw2LjQ5LDcwLjQ2eiIvPiYjeGE7CQkJPC9nPiYjeGE7CQkJPGcgaWQ9InNoYXBlNjU0LTQ0IiB0cmFuc2Zvcm09InRyYW5zbGF0ZSg4OS45MTkxLC00OC45NDU0KSI+JiN4YTsJCQkJPHRpdGxlIGlkPSJ0aXRsZTY3NDM3Ij5wb2x5Z29uMTA1MzwvdGl0bGU+JiN4YTsJCQkJPHBhdGggaWQ9InBhdGg2NzQzOSIgaW5rc2NhcGU6Y29ubmVjdG9yLWN1cnZhdHVyZT0iMCIgc3R5bGU9ImZpbGw6IzMxOTNEMDsiIGQ9Ik0wLDcyLjc0bDEuOTQsMC44MWwtMS44MSwxLjMxTDAsNzIuNzR6Ii8+JiN4YTsJCQk8L2c+JiN4YTsJCQk8ZyBpZD0ic2hhcGU2NTUtNDYiIHRyYW5zZm9ybT0idHJhbnNsYXRlKDgwLjEzMTksLTM0LjkwMDUpIj4mI3hhOwkJCQk8dGl0bGUgaWQ9InRpdGxlNjc0NDIiPnJlY3QxMDU1PC90aXRsZT4mI3hhOwkJCQk8cmVjdCBpZD0icmVjdDY3NDQ0IiB4PSIwIiB5PSI3MC4xIiBzdHlsZT0iZmlsbDojMzA5M0QwOyIgd2lkdGg9IjEuODUiIGhlaWdodD0iNC43NiIvPiYjeGE7CQkJPC9nPiYjeGE7CQkJPGcgaWQ9InNoYXBlNjU2LTQ4IiB0cmFuc2Zvcm09InRyYW5zbGF0ZSg3MC41MzgyKSI+JiN4YTsJCQkJPHRpdGxlIGlkPSJ0aXRsZTY3NDQ3Ij5wYXRoMTA1NzwvdGl0bGU+JiN4YTsJCQkJPHBhdGggaWQ9InBhdGg2NzQ0OSIgaW5rc2NhcGU6Y29ubmVjdG9yLWN1cnZhdHVyZT0iMCIgc3R5bGU9ImZpbGw6IzU1NkE4QTsiIGQ9Ik00LjY0LDcyLjRsMi4xOCwxLjM2bDIuMDctMS40NyAgICAgIGMxLjE2LDAuNDEsMi4zNywwLjYxLDMuNiwwLjU5bDEuNDMsMS45OGwyLjQ5LTAuNTlsMC40Mi0yLjM4YzEuMS0wLjUyLDIuMS0xLjIyLDIuOTUtMi4wOGwyLjYxLDAuNDJsMS4zNi0yLjE4bC0xLjUzLTIuMTYgICAgICBjMC4zOS0xLjEzLDAuNTktMi4zMiwwLjU3LTMuNTJsMi4wNi0xLjVsLTAuNTgtMi40OWwtMi41MS0wLjQ0Yy0wLjUyLTEuMDktMS4yMy0yLjA4LTIuMS0yLjkzbDAuNC0yLjVsLTIuMTctMS4zNmwtMi4wOCwxLjQ4ICAgICAgYy0xLjE1LTAuNC0yLjM2LTAuNi0zLjU3LTAuNThsLTEuNDYtMi4wMWwtMi40OSwwLjU4bC0wLjQzLDIuNDVjLTEuMDgsMC41MS0yLjA2LDEuMjEtMi45LDIuMDZsLTIuNjItMC40MmwtMS4zNSwyLjE3ICAgICAgbDEuNTMsMi4xN2MtMC40LDEuMTQtMC42LDIuMzQtMC41OCwzLjU1TDAsNjQuMDFsMC41OCwyLjVsMi4zNiwwLjRjMC41MiwxLjExLDEuMjMsMi4xMiwyLjEsMi45OEw0LjY0LDcyLjR6IE00Ljg1LDU3Ljc4ICAgICAgYzIuNi00LjE1LDguMDYtNS40MiwxMi4yMi0yLjg0YzQuMTUsMi41OCw1LjQyLDguMDYsMi44NCwxMi4yMmMtMi41OCw0LjE3LTguMDQsNS40Ni0xMi4yMSwyLjg4UzIuMjQsNjIsNC44Miw1Ny44MyAgICAgIEM0LjgzLDU3LjgyLDQuODQsNTcuOCw0Ljg1LDU3Ljc4eiIvPiYjeGE7CQkJPC9nPiYjeGE7CQkJPGcgaWQ9InNoYXBlNjU3LTUwIiB0cmFuc2Zvcm09InRyYW5zbGF0ZSgwLC0yNS44MzIxKSI+JiN4YTsJCQkJPHRpdGxlIGlkPSJ0aXRsZTY3NDUyIj5wYXRoMTA2MzwvdGl0bGU+JiN4YTsJCQkJPHBhdGggaWQ9InBhdGg2NzQ1NCIgaW5rc2NhcGU6Y29ubmVjdG9yLWN1cnZhdHVyZT0iMCIgc3R5bGU9ImZpbGw6IzgwQ0VFOTsiIGQ9Ik0wLjU1LDY1LjM0bDEuNDQsMi44MmwzLjEzLTAuMjMgICAgICBjMC45NiwxLjE3LDIuMTMsMi4xNiwzLjQ0LDIuOTNsMC4yNSwzLjAxbDMuMDEsMC45OWwxLjk3LTIuMjdjMS40OSwwLjE2LDMsMC4wNSw0LjQ2LTAuMzJsMi41LDIuMTJsMi44My0xLjQ0bC0wLjI0LTMuMjcgICAgICBjMS4xNC0wLjk1LDIuMTEtMi4wOSwyLjg2LTMuMzdsMy4xMy0wLjI2bDAuOTktMy4wMWwtMi4zOS0yLjA2YzAuMTQtMS40OSwwLjAyLTMtMC4zNS00LjQ1bDIuMDMtMi4zOWwtMS40NC0yLjgzbC0zLjE1LDAuMjMgICAgICBjLTAuOTYtMS4xNS0yLjExLTIuMTMtMy40MS0yLjg5bC0wLjI2LTMuMDdsLTMuMDEtMC45OWwtMi4wMiwyLjMzYy0xLjQ3LTAuMTQtMi45Ni0wLjAzLTQuMzksMC4zMmwtMi41MS0yLjEybC0yLjgzLDEuNDQgICAgICBsMC4yNCwzLjI3Yy0xLjE1LDAuOTUtMi4xMywyLjExLTIuODgsMy40bC0yLjk2LDAuMjVMMCw1Ni41bDIuMjUsMS45NGMtMC4xNiwxLjUxLTAuMDUsMy4wMywwLjMyLDQuNUwwLjU1LDY1LjM0eiBNMTAuMTIsNDkuOTUgICAgICBjNS40MS0yLjc1LDEyLjAyLTAuNTksMTQuNzYsNC44MXMwLjU5LDEyLjAyLTQuODEsMTQuNzZjLTUuNCwyLjc1LTEyLjAxLDAuNTktMTQuNzYtNC44MUMyLjU3LDU5LjMzLDQuNzMsNTIuNywxMC4xMiw0OS45NXoiLz4mI3hhOwkJCTwvZz4mI3hhOwkJCTxnIGlkPSJzaGFwZTY1OC01MiIgdHJhbnNmb3JtPSJ0cmFuc2xhdGUoMjIuMzg0NiwtMTkuOTYxNCkiPiYjeGE7CQkJCTx0aXRsZSBpZD0idGl0bGU2NzQ1NyI+bGluZTEwNjU8L3RpdGxlPiYjeGE7CQkJCTxwYXRoIGlkPSJwYXRoNjc0NTkiIGlua3NjYXBlOmNvbm5lY3Rvci1jdXJ2YXR1cmU9IjAiIHN0eWxlPSJmaWxsOm5vbmU7IiBkPSJNMCw3NC44NmgwLjEyIi8+JiN4YTsJCQk8L2c+JiN4YTsJCQk8ZyBpZD0ic2hhcGU2NTktNTUiIHRyYW5zZm9ybT0idHJhbnNsYXRlKDIxLjA2MDIsLTE4LjU1MjQpIj4mI3hhOwkJCQk8dGl0bGUgaWQ9InRpdGxlNjc0NjIiPnBhdGgxMDY3PC90aXRsZT4mI3hhOwkJCQk8cGF0aCBpZD0icGF0aDY3NDY0IiBpbmtzY2FwZTpjb25uZWN0b3ItY3VydmF0dXJlPSIwIiBzdHlsZT0iZmlsbDojMUM1MTZCOyIgZD0iTTAsNzQuMjdjMCwwLjE4LDAuMDUsMC4zMiwwLjE0LDAuNDMgICAgICBjMC4xLDAuMSwwLjIyLDAuMTYsMC4zOCwwLjE2aDEuNzJjMC4xNCwwLjAxLDAuMjgtMC4wNSwwLjM4LTAuMTZjMC4xLTAuMTEsMC4xNS0wLjI1LDAuMTUtMC40M2MwLTAuMDgsMC0wLjE2LTAuMDEtMC4yNCAgICAgIGMwLTAuMDgtMC4wMS0wLjE3LTAuMDMtMC4yNWMtMC4wMS0wLjA4LTAuMDMtMC4xNi0wLjA1LTAuMjRjLTAuMDItMC4wOC0wLjA1LTAuMTUtMC4wOC0wLjIyYy0wLjAzLTAuMDctMC4wNy0wLjEzLTAuMTItMC4xOSAgICAgIGMtMC4wNS0wLjA1LTAuMS0wLjA5LTAuMTctMC4xMmMtMC4wNy0wLjAzLTAuMTQtMC4wNC0wLjIyLTAuMDRjLTAuMDMsMC4wMS0wLjA2LDAuMDMtMC4wOCwwLjA1Yy0wLjA1LDAuMDMtMC4xLDAuMDctMC4xNSwwLjExICAgICAgYy0wLjA3LDAuMDQtMC4xNCwwLjA4LTAuMjEsMC4xMWMtMC4xNywwLjA2LTAuMzYsMC4wNi0wLjUyLDBjLTAuMDgtMC4wMi0wLjE1LTAuMDYtMC4yMS0wLjExYy0wLjA2LTAuMDQtMC4xLTAuMDgtMC4xNS0wLjExICAgICAgYy0wLjAyLTAuMDItMC4wNS0wLjA0LTAuMDgtMC4wNWMtMC4wNywwLTAuMTUsMC4wMS0wLjIyLDAuMDRjLTAuMDYsMC4wMy0wLjEyLDAuMDctMC4xNywwLjEyYy0wLjA1LDAuMDUtMC4wOSwwLjEyLTAuMTIsMC4xOSAgICAgIGMtMC4wMywwLjA3LTAuMDYsMC4xNS0wLjA4LDAuMjNjLTAuMDIsMC4wOC0wLjA0LDAuMTYtMC4wNSwwLjI0Yy0wLjAxLDAuMDktMC4wMywwLjE3LTAuMDMsMC4yNUwwLDc0LjI3eiIvPiYjeGE7CQkJCTxwYXRoIGlkPSJwYXRoNjc0NjYiIGlua3NjYXBlOmNvbm5lY3Rvci1jdXJ2YXR1cmU9IjAiIHN0eWxlPSJmaWxsOm5vbmU7IiBkPSJNMCw3NC4yN2MwLDAuMTgsMC4wNSwwLjMyLDAuMTQsMC40MyAgICAgIGMwLjEsMC4xLDAuMjIsMC4xNiwwLjM4LDAuMTZoMS43MmMwLjE0LDAuMDEsMC4yOC0wLjA1LDAuMzgtMC4xNmMwLjEtMC4xMSwwLjE1LTAuMjUsMC4xNS0wLjQzYzAtMC4wOCwwLTAuMTYtMC4wMS0wLjI0ICAgICAgYzAtMC4wOC0wLjAxLTAuMTctMC4wMy0wLjI1Yy0wLjAxLTAuMDgtMC4wMy0wLjE2LTAuMDUtMC4yNGMtMC4wMi0wLjA4LTAuMDUtMC4xNS0wLjA4LTAuMjJjLTAuMDMtMC4wNy0wLjA3LTAuMTMtMC4xMi0wLjE5ICAgICAgYy0wLjA1LTAuMDUtMC4xLTAuMDktMC4xNy0wLjEyYy0wLjA3LTAuMDMtMC4xNC0wLjA0LTAuMjItMC4wNGMtMC4wMywwLjAxLTAuMDYsMC4wMy0wLjA4LDAuMDVjLTAuMDUsMC4wMy0wLjEsMC4wNy0wLjE1LDAuMTEgICAgICBjLTAuMDcsMC4wNC0wLjE0LDAuMDgtMC4yMSwwLjExYy0wLjE3LDAuMDYtMC4zNiwwLjA2LTAuNTIsMGMtMC4wOC0wLjAyLTAuMTUtMC4wNi0wLjIxLTAuMTFjLTAuMDYtMC4wNC0wLjEtMC4wOC0wLjE1LTAuMTEgICAgICBjLTAuMDItMC4wMi0wLjA1LTAuMDQtMC4wOC0wLjA1Yy0wLjA3LDAtMC4xNSwwLjAxLTAuMjIsMC4wNGMtMC4wNiwwLjAzLTAuMTIsMC4wNy0wLjE3LDAuMTJjLTAuMDUsMC4wNS0wLjA5LDAuMTItMC4xMiwwLjE5ICAgICAgYy0wLjAzLDAuMDctMC4wNiwwLjE1LTAuMDgsMC4yM2MtMC4wMiwwLjA4LTAuMDQsMC4xNi0wLjA1LDAuMjRjLTAuMDEsMC4wOS0wLjAzLDAuMTctMC4wMywwLjI1Ii8+JiN4YTsJCQk8L2c+JiN4YTsJCQk8ZyBpZD0ic2hhcGU2NjAtNTgiIHRyYW5zZm9ybT0idHJhbnNsYXRlKDIxLjc0NTcsLTIwLjU4NDcpIj4mI3hhOwkJCQk8dGl0bGUgaWQ9InRpdGxlNjc0NjkiPnBhdGgxMDY5PC90aXRsZT4mI3hhOwkJCQk8cGF0aCBpZD0icGF0aDY3NDcxIiBpbmtzY2FwZTpjb25uZWN0b3ItY3VydmF0dXJlPSIwIiBzdHlsZT0iZmlsbDojMUM1MTZCOyIgZD0iTTAuNyw3My42NmMwLjM5LDAsMC43LDAuMzEsMC43LDAuNyAgICAgIHMtMC4zMSwwLjctMC43LDAuN1MwLDc0Ljc0LDAsNzQuMzZjMCwwLDAsMCwwLDBDMCw3My45NywwLjMyLDczLjY2LDAuNyw3My42NnoiLz4mI3hhOwkJCTwvZz4mI3hhOwkJCTxnIGlkPSJzaGFwZTY2MS02MCIgdHJhbnNmb3JtPSJ0cmFuc2xhdGUoMjAuNDQyNCwtMTYuNzI0NSkiPiYjeGE7CQkJCTx0aXRsZSBpZD0idGl0bGU2NzQ3NCI+bGluZTEwNzE8L3RpdGxlPiYjeGE7CQkJCTxwYXRoIGlkPSJwYXRoNjc0NzYiIGlua3NjYXBlOmNvbm5lY3Rvci1jdXJ2YXR1cmU9IjAiIHN0eWxlPSJmaWxsOm5vbmU7IiBkPSJNMCw3NC44NmgwLjEyIi8+JiN4YTsJCQk8L2c+JiN4YTsJCQk8ZyBpZD0ic2hhcGU2NjItNjMiIHRyYW5zZm9ybT0idHJhbnNsYXRlKDE5LjExOCwtMTUuMzE1NCkiPiYjeGE7CQkJCTx0aXRsZSBpZD0idGl0bGU2NzQ3OSI+cGF0aDEwNzM8L3RpdGxlPiYjeGE7CQkJCTxwYXRoIGlkPSJwYXRoNjc0ODEiIGlua3NjYXBlOmNvbm5lY3Rvci1jdXJ2YXR1cmU9IjAiIHN0eWxlPSJmaWxsOiMxQzUxNkI7IiBkPSJNMCw3NC4yN2MwLDAuMTgsMC4wNSwwLjMyLDAuMTQsMC40MyAgICAgIGMwLjEsMC4xLDAuMjIsMC4xNiwwLjM4LDAuMTZoMS43MmMwLjE0LDAuMDEsMC4yOC0wLjA1LDAuMzgtMC4xNmMwLjEtMC4xMSwwLjE1LTAuMjUsMC4xNS0wLjQzYzAtMC4wOCwwLTAuMTYtMC4wMS0wLjI0ICAgICAgYzAtMC4wOC0wLjAxLTAuMTctMC4wMy0wLjI1Yy0wLjAxLTAuMDgtMC4wMy0wLjE2LTAuMDUtMC4yNGMtMC4wMi0wLjA4LTAuMDUtMC4xNS0wLjA4LTAuMjJjLTAuMDMtMC4wNy0wLjA3LTAuMTMtMC4xMi0wLjE5ICAgICAgYy0wLjA1LTAuMDUtMC4xLTAuMDktMC4xNy0wLjEyYy0wLjA3LTAuMDMtMC4xNC0wLjA0LTAuMjItMC4wNEMyLjA2LDcyLjk4LDIuMDMsNzMsMiw3My4wMmMtMC4wNCwwLjAyLTAuMDksMC4wNi0wLjE0LDAuMSAgICAgIGMtMC4wNywwLjA0LTAuMTQsMC4wOC0wLjIxLDAuMTFjLTAuMTcsMC4wNi0wLjM2LDAuMDYtMC41MiwwYy0wLjA4LTAuMDItMC4xNS0wLjA2LTAuMjEtMC4xMWMtMC4wNi0wLjA0LTAuMS0wLjA4LTAuMTUtMC4xMSAgICAgIGMtMC4wMi0wLjAyLTAuMDUtMC4wNC0wLjA4LTAuMDVjLTAuMDcsMC0wLjE1LDAuMDEtMC4yMiwwLjA0Yy0wLjA2LDAuMDMtMC4xMiwwLjA3LTAuMTcsMC4xMmMtMC4wNSwwLjA1LTAuMDksMC4xMi0wLjEyLDAuMTkgICAgICBjLTAuMDMsMC4wNy0wLjA2LDAuMTUtMC4wOCwwLjIzYy0wLjAyLDAuMDgtMC4wNCwwLjE2LTAuMDUsMC4yNGMtMC4wMSwwLjA5LTAuMDMsMC4xNy0wLjAzLDAuMjVMMCw3NC4yN3oiLz4mI3hhOwkJCQk8cGF0aCBpZD0icGF0aDY3NDgzIiBpbmtzY2FwZTpjb25uZWN0b3ItY3VydmF0dXJlPSIwIiBzdHlsZT0iZmlsbDpub25lOyIgZD0iTTAsNzQuMjdjMCwwLjE4LDAuMDUsMC4zMiwwLjE0LDAuNDMgICAgICBjMC4xLDAuMSwwLjIyLDAuMTYsMC4zOCwwLjE2aDEuNzJjMC4xNCwwLjAxLDAuMjgtMC4wNSwwLjM4LTAuMTZjMC4xLTAuMTEsMC4xNS0wLjI1LDAuMTUtMC40M2MwLTAuMDgsMC0wLjE2LTAuMDEtMC4yNCAgICAgIGMwLTAuMDgtMC4wMS0wLjE3LTAuMDMtMC4yNWMtMC4wMS0wLjA4LTAuMDMtMC4xNi0wLjA1LTAuMjRjLTAuMDItMC4wOC0wLjA1LTAuMTUtMC4wOC0wLjIyYy0wLjAzLTAuMDctMC4wNy0wLjEzLTAuMTItMC4xOSAgICAgIGMtMC4wNS0wLjA1LTAuMS0wLjA5LTAuMTctMC4xMmMtMC4wNy0wLjAzLTAuMTQtMC4wNC0wLjIyLTAuMDRDMi4wNiw3Mi45OCwyLjAzLDczLDIsNzMuMDJjLTAuMDQsMC4wMi0wLjA5LDAuMDYtMC4xNCwwLjEgICAgICBjLTAuMDcsMC4wNC0wLjE0LDAuMDgtMC4yMSwwLjExYy0wLjE3LDAuMDYtMC4zNiwwLjA2LTAuNTIsMGMtMC4wOC0wLjAyLTAuMTUtMC4wNi0wLjIxLTAuMTFjLTAuMDYtMC4wNC0wLjEtMC4wOC0wLjE1LTAuMTEgICAgICBjLTAuMDItMC4wMi0wLjA1LTAuMDQtMC4wOC0wLjA1Yy0wLjA3LDAtMC4xNSwwLjAxLTAuMjIsMC4wNGMtMC4wNiwwLjAzLTAuMTIsMC4wNy0wLjE3LDAuMTJjLTAuMDUsMC4wNS0wLjA5LDAuMTItMC4xMiwwLjE5ICAgICAgYy0wLjAzLDAuMDctMC4wNiwwLjE1LTAuMDgsMC4yM2MtMC4wMiwwLjA4LTAuMDQsMC4xNi0wLjA1LDAuMjRjLTAuMDEsMC4wOS0wLjAzLDAuMTctMC4wMywwLjI1Ii8+JiN4YTsJCQk8L2c+JiN4YTsJCQk8ZyBpZD0ic2hhcGU2NjMtNjYiIHRyYW5zZm9ybT0idHJhbnNsYXRlKDE5LjgwMzUsLTE3LjM0NzgpIj4mI3hhOwkJCQk8dGl0bGUgaWQ9InRpdGxlNjc0ODYiPnBhdGgxMDc1PC90aXRsZT4mI3hhOwkJCQk8cGF0aCBpZD0icGF0aDY3NDg4IiBpbmtzY2FwZTpjb25uZWN0b3ItY3VydmF0dXJlPSIwIiBzdHlsZT0iZmlsbDojMUM1MTZCOyIgZD0iTTAuNyw3My42NmMwLjM5LDAsMC43LDAuMzEsMC43LDAuNyAgICAgIHMtMC4zMSwwLjctMC43LDAuN1MwLDc0Ljc0LDAsNzQuMzZjMCwwLDAsMCwwLDBDMCw3My45OCwwLjMxLDczLjY2LDAuNyw3My42NkMwLjY5LDczLjY2LDAuNyw3My42NiwwLjcsNzMuNjZ6Ii8+JiN4YTsJCQk8L2c+JiN4YTsJCQk8ZyBpZD0ic2hhcGU2NjQtNjgiIHRyYW5zZm9ybT0idHJhbnNsYXRlKDI0LjMzMSwtMTYuNzI0NSkiPiYjeGE7CQkJCTx0aXRsZSBpZD0idGl0bGU2NzQ5MSI+bGluZTEwNzc8L3RpdGxlPiYjeGE7CQkJCTxwYXRoIGlkPSJwYXRoNjc0OTMiIGlua3NjYXBlOmNvbm5lY3Rvci1jdXJ2YXR1cmU9IjAiIHN0eWxlPSJmaWxsOm5vbmU7IiBkPSJNMCw3NC44NmgwLjEyIi8+JiN4YTsJCQk8L2c+JiN4YTsJCQk8ZyBpZD0ic2hhcGU2NjUtNzEiIHRyYW5zZm9ybT0idHJhbnNsYXRlKDIzLjAwMjMsLTE1LjMxNTQpIj4mI3hhOwkJCQk8dGl0bGUgaWQ9InRpdGxlNjc0OTYiPnBhdGgxMDc5PC90aXRsZT4mI3hhOwkJCQk8cGF0aCBpZD0icGF0aDY3NDk4IiBpbmtzY2FwZTpjb25uZWN0b3ItY3VydmF0dXJlPSIwIiBzdHlsZT0iZmlsbDojMUM1MTZCOyIgZD0iTTAsNzQuMjdjMCwwLjE4LDAuMDUsMC4zMiwwLjE0LDAuNDMgICAgICBjMC4xLDAuMSwwLjIyLDAuMTYsMC4zOCwwLjE2aDEuNzJjMC4xNCwwLjAxLDAuMjgtMC4wNSwwLjM4LTAuMTZjMC4xLTAuMTEsMC4xNS0wLjI1LDAuMTUtMC40M2MwLTAuMDgsMC0wLjE2LTAuMDEtMC4yNCAgICAgIGMwLTAuMDgtMC4wMS0wLjE3LTAuMDMtMC4yNWMtMC4wMS0wLjA4LTAuMDMtMC4xNi0wLjA1LTAuMjRjLTAuMDItMC4wOC0wLjA1LTAuMTUtMC4wOC0wLjIyYy0wLjAzLTAuMDctMC4wNy0wLjEzLTAuMTItMC4xOSAgICAgIGMtMC4wNS0wLjA1LTAuMS0wLjA5LTAuMTctMC4xMmMtMC4wNy0wLjAzLTAuMTQtMC4wNC0wLjIyLTAuMDRDMi4wNiw3Mi45OCwyLjAzLDczLDIsNzMuMDJjLTAuMDQsMC4wMi0wLjA5LDAuMDYtMC4xNCwwLjEgICAgICBjLTAuMDcsMC4wNC0wLjE0LDAuMDgtMC4yMSwwLjExYy0wLjE3LDAuMDYtMC4zNiwwLjA2LTAuNTIsMGMtMC4wOC0wLjAyLTAuMTUtMC4wNi0wLjIxLTAuMTFjLTAuMDYtMC4wNC0wLjEtMC4wOC0wLjE1LTAuMTEgICAgICBjLTAuMDItMC4wMi0wLjA1LTAuMDQtMC4wOC0wLjA1Yy0wLjA3LDAtMC4xNSwwLjAxLTAuMjIsMC4wNGMtMC4wNiwwLjAzLTAuMTIsMC4wNy0wLjE3LDAuMTJjLTAuMDUsMC4wNS0wLjA5LDAuMTItMC4xMiwwLjE5ICAgICAgYy0wLjAzLDAuMDctMC4wNiwwLjE1LTAuMDgsMC4yM2MtMC4wMiwwLjA4LTAuMDQsMC4xNi0wLjA1LDAuMjRjLTAuMDEsMC4wOS0wLjAzLDAuMTctMC4wMywwLjI1TDAsNzQuMjd6Ii8+JiN4YTsJCQkJPHBhdGggaWQ9InBhdGg2NzUwMCIgaW5rc2NhcGU6Y29ubmVjdG9yLWN1cnZhdHVyZT0iMCIgc3R5bGU9ImZpbGw6bm9uZTsiIGQ9Ik0wLDc0LjI3YzAsMC4xOCwwLjA1LDAuMzIsMC4xNCwwLjQzICAgICAgYzAuMSwwLjEsMC4yMiwwLjE2LDAuMzgsMC4xNmgxLjcyYzAuMTQsMC4wMSwwLjI4LTAuMDUsMC4zOC0wLjE2YzAuMS0wLjExLDAuMTUtMC4yNSwwLjE1LTAuNDNjMC0wLjA4LDAtMC4xNi0wLjAxLTAuMjQgICAgICBjMC0wLjA4LTAuMDEtMC4xNy0wLjAzLTAuMjVjLTAuMDEtMC4wOC0wLjAzLTAuMTYtMC4wNS0wLjI0Yy0wLjAyLTAuMDgtMC4wNS0wLjE1LTAuMDgtMC4yMmMtMC4wMy0wLjA3LTAuMDctMC4xMy0wLjEyLTAuMTkgICAgICBjLTAuMDUtMC4wNS0wLjEtMC4wOS0wLjE3LTAuMTJjLTAuMDctMC4wMy0wLjE0LTAuMDQtMC4yMi0wLjA0QzIuMDYsNzIuOTgsMi4wMyw3MywyLDczLjAyYy0wLjA0LDAuMDItMC4wOSwwLjA2LTAuMTQsMC4xICAgICAgYy0wLjA3LDAuMDQtMC4xNCwwLjA4LTAuMjEsMC4xMWMtMC4xNywwLjA2LTAuMzYsMC4wNi0wLjUyLDBjLTAuMDgtMC4wMi0wLjE1LTAuMDYtMC4yMS0wLjExYy0wLjA2LTAuMDQtMC4xLTAuMDgtMC4xNS0wLjExICAgICAgYy0wLjAyLTAuMDItMC4wNS0wLjA0LTAuMDgtMC4wNWMtMC4wNywwLTAuMTUsMC4wMS0wLjIyLDAuMDRjLTAuMDYsMC4wMy0wLjEyLDAuMDctMC4xNywwLjEyYy0wLjA1LDAuMDUtMC4wOSwwLjEyLTAuMTIsMC4xOSAgICAgIGMtMC4wMywwLjA3LTAuMDYsMC4xNS0wLjA4LDAuMjNjLTAuMDIsMC4wOC0wLjA0LDAuMTYtMC4wNSwwLjI0Yy0wLjAxLDAuMDktMC4wMywwLjE3LTAuMDMsMC4yNSIvPiYjeGE7CQkJPC9nPiYjeGE7CQkJPGcgaWQ9InNoYXBlNjY2LTc0IiB0cmFuc2Zvcm09InRyYW5zbGF0ZSgyMy42OTIsLTE3LjM0NzgpIj4mI3hhOwkJCQk8dGl0bGUgaWQ9InRpdGxlNjc1MDMiPnBhdGgxMDgxPC90aXRsZT4mI3hhOwkJCQk8cGF0aCBpZD0icGF0aDY3NTA1IiBpbmtzY2FwZTpjb25uZWN0b3ItY3VydmF0dXJlPSIwIiBzdHlsZT0iZmlsbDojMUM1MTZCOyIgZD0iTTAuNyw3My42NmMwLjM5LDAsMC43LDAuMzEsMC43LDAuNyAgICAgIHMtMC4zMSwwLjctMC43LDAuN1MwLDc0Ljc0LDAsNzQuMzZjMCwwLDAsMCwwLDBDMCw3My45OCwwLjMxLDczLjY2LDAuNyw3My42NkMwLjY5LDczLjY2LDAuNyw3My42NiwwLjcsNzMuNjZ6Ii8+JiN4YTsJCQk8L2c+JiN4YTsJCQk8ZyBpZD0ic2hhcGU2NjctNzYiIHRyYW5zZm9ybT0idHJhbnNsYXRlKDI1LjMzNDQsLTQ3LjU5OTkpIj4mI3hhOwkJCQk8dGl0bGUgaWQ9InRpdGxlNjc1MDgiPnBhdGgxMDgzPC90aXRsZT4mI3hhOwkJCQk8cGF0aCBpZD0icGF0aDY3NTEwIiBpbmtzY2FwZTpjb25uZWN0b3ItY3VydmF0dXJlPSIwIiBzdHlsZT0iZmlsbDojMDBCNkMyOyIgZD0iTTAuMzUsNjguNTNsMC45NiwxLjg4bDIuMDgtMC4xNCAgICAgIGMwLjY0LDAuNzgsMS40MiwxLjQzLDIuMjksMS45NGwwLjE2LDEuOTlsMi4wMSwwLjY2bDEuMzEtMS41MmMwLjk5LDAuMSwyLDAuMDMsMi45Ny0wLjIxbDEuNjcsMS40MWwxLjg4LTAuOTZsLTAuMTYtMi4xNyAgICAgIGMwLjc2LTAuNjMsMS40LTEuMzksMS45LTIuMjRsMi4wOC0wLjE4bDAuNjYtMi4wMWwtMS41OS0xLjM3YzAuMDktMC45OSwwLjAyLTEuOTktMC4yMy0yLjk2bDEuMzUtMS41OWwtMC45Ni0xLjg4bC0yLjEsMC4xNSAgICAgIGMtMC42My0wLjc3LTEuNC0xLjQyLTIuMjYtMS45M2wtMC4xNy0yLjA0bC0yLjAxLTAuNjVsLTEuMzQsMS41NWMtMC45OC0wLjEtMS45Ny0wLjAyLTIuOTIsMC4yMmwtMS42Ny0xLjQxbC0xLjg4LDAuOTYgICAgICBsMC4xNSwyLjE3Yy0wLjc2LDAuNjQtMS40LDEuNC0xLjksMi4yNmwtMS45OCwwLjE3TDAsNjIuNjRsMS40OSwxLjI5Yy0wLjEsMS0wLjAzLDIuMDEsMC4yMSwyLjk5TDAuMzUsNjguNTN6IE02LjcxLDU4LjMxICAgICAgYzMuNTktMS44Miw3Ljk5LTAuMzksOS44MSwzLjJjMS44MiwzLjU5LDAuMzksNy45OS0zLjIsOS44MWMtMy41OSwxLjgyLTcuOTgsMC4zOS05LjgxLTMuMkMxLjY5LDY0LjUzLDMuMTIsNjAuMTQsNi43MSw1OC4zMXoiLz4mI3hhOwkJCTwvZz4mI3hhOwkJCTxnIGlkPSJzaGFwZTY2OC03OCIgdHJhbnNmb3JtPSJ0cmFuc2xhdGUoMTUuOTM0MiwtMTEuNTAxNCkiPiYjeGE7CQkJCTx0aXRsZSBpZD0idGl0bGU2NzUxMyI+cGF0aDEwODc8L3RpdGxlPiYjeGE7CQkJCTxwYXRoIGlkPSJwYXRoNjc1MTUiIGlua3NjYXBlOmNvbm5lY3Rvci1jdXJ2YXR1cmU9IjAiIHN0eWxlPSJmaWxsOiMxQzUxNkI7IiBkPSJNMC4yMyw3MC42MWwwLjY1LDEuMjZsMS40LTAuMSAgICAgIGMwLjQzLDAuNTIsMC45NSwwLjk3LDEuNTMsMS4zMWwwLjExLDEuMzNsMS4zNCwwLjQ1bDAuODgtMS4wMmMwLjY3LDAuMDcsMS4zNCwwLjAyLDEuOTktMC4xNGwxLjExLDAuOTVsMS4yNy0wLjY0bC0wLjExLTEuNDYgICAgICBjMC41MS0wLjQyLDAuOTQtMC45MywxLjI4LTEuNWwxLjQtMC4xMmwwLjQ0LTEuMzVsLTEuMDYtMC45MmMwLjA3LTAuNjYsMC4wMS0xLjMzLTAuMTYtMS45OGwwLjkxLTEuMDdsLTAuNjUtMS4yNmwtMS40LDAuMSAgICAgIGMtMC40My0wLjUyLTAuOTQtMC45NS0xLjUyLTEuMjlMOS41Myw2MS44bC0xLjM1LTAuNDVsLTAuOSwxLjA1Yy0wLjY2LTAuMDctMS4zMi0wLjAyLTEuOTYsMC4xNEw0LjIsNjEuNTlsLTEuMjYsMC42NWwwLjEsMS40NSAgICAgIGMtMC41MSwwLjQzLTAuOTQsMC45NC0xLjI4LDEuNTJsLTEuMzIsMC4xMUwwLDY2LjY2bDEsMC44N2MtMC4wNywwLjY3LTAuMDIsMS4zNSwwLjE1LDIuMDFMMC4yMyw3MC42MXogTTQuNSw2My43NSAgICAgIGMyLjQxLTEuMjIsNS4zNi0wLjI2LDYuNTgsMi4xNWMxLjIyLDIuNDEsMC4yNiw1LjM2LTIuMTUsNi41OGMtMi40MSwxLjIyLTUuMzYsMC4yNi02LjU4LTIuMTVDMS4xMyw2Ny45MiwyLjA5LDY0Ljk3LDQuNSw2My43NSAgICAgIHoiLz4mI3hhOwkJCTwvZz4mI3hhOwkJCTxnIGlkPSJncm91cDY2OS04MCIgdHJhbnNmb3JtPSJ0cmFuc2xhdGUoNDEuMTQzMywtMTcuNTU5OCkiPiYjeGE7CQkJCTx0aXRsZSBpZD0idGl0bGU2NzUxOCI+Qml6VGFsayBTZXJ2ZXI8L3RpdGxlPiYjeGE7CQkJCTxnIGlkPSJzaGFwZTY3MC04MSIgdHJhbnNmb3JtPSJ0cmFuc2xhdGUoMi42ODcyOCwtMi4yMjY4NSkiPiYjeGE7CQkJCQk8dGl0bGUgaWQ9InRpdGxlNjc1MjAiPlNoZWV0LjY3MDwvdGl0bGU+JiN4YTsJCQkJCTxwYXRoIGlkPSJwYXRoNjc1MjIiIGlua3NjYXBlOmNvbm5lY3Rvci1jdXJ2YXR1cmU9IjAiIHN0eWxlPSJmaWxsOiMzRjQ3OEY7IiBkPSJNMTAuNzYsNTUuMzFIMC43OUMwLjM1LDU1LjMxLDAsNTUuNjcsMCw1Ni4xICAgICAgIHYxMy4xaDQuMjZjMC40NCwwLDAuNzksMC4zNiwwLjc5LDAuNzl2MC43OWMwLjE3LTAuMTEsMC4zNy0wLjE4LDAuNTgtMC4xOGMwLjU3LDAsMS4wMywwLjQ2LDEuMDMsMS4wMiAgICAgICBjMCwwLjU3LTAuNDYsMS4wMy0xLjAzLDEuMDNjLTAuMjEsMC0wLjQxLTAuMDctMC41OC0wLjE4djIuMzloNS43MWMwLjQzLDAsMC43OS0wLjM2LDAuNzktMC43OVY1Ni4xICAgICAgIEMxMS41NSw1NS42NywxMS4xOSw1NS4zMSwxMC43Niw1NS4zMXogTTguNiw2NS4xN0gyLjk2Yy0wLjQ0LDAtMC43OS0wLjMyLTAuNzktMC43MWMwLTAuNCwwLjM1LTAuNzIsMC43OS0wLjcySDguNiAgICAgICBjMC40MywwLDAuNzksMC4zMiwwLjc5LDAuNzJDOS4zOSw2NC44NSw5LjAzLDY1LjE3LDguNiw2NS4xN3ogTTguNiw2Mi4xNEgyLjk2Yy0wLjQ0LDAtMC43OS0wLjMyLTAuNzktMC43MiAgICAgICBjMC0wLjM5LDAuMzUtMC43MSwwLjc5LTAuNzFIOC42YzAuNDMsMCwwLjc5LDAuMzIsMC43OSwwLjcxQzkuMzksNjEuODIsOS4wMyw2Mi4xNCw4LjYsNjIuMTR6IE04LjYsNTkuMTVIMi45NiAgICAgICBjLTAuNDQsMC0wLjc5LTAuMzItMC43OS0wLjcxYzAtMC40LDAuMzUtMC43MiwwLjc5LTAuNzJIOC42YzAuNDMsMCwwLjc5LDAuMzIsMC43OSwwLjcyQzkuMzksNTguODMsOS4wMyw1OS4xNSw4LjYsNTkuMTV6Ii8+JiN4YTsJCQkJPC9nPiYjeGE7CQkJCTxnIGlkPSJzaGFwZTY3MS04MyI+JiN4YTsJCQkJCTx0aXRsZSBpZD0idGl0bGU2NzUyNSI+U2hlZXQuNjcxPC90aXRsZT4mI3hhOwkJCQkJPHBhdGggaWQ9InBhdGg2NzUyNyIgaW5rc2NhcGU6Y29ubmVjdG9yLWN1cnZhdHVyZT0iMCIgc3R5bGU9ImZpbGw6IzNGNDc4RjsiIGQ9Ik02LjQ2LDY3LjVIMC43OUMwLjM1LDY3LjUsMCw2Ny44NiwwLDY4LjI5ICAgICAgIHY1Ljc4YzAsMC40MywwLjM1LDAuNzksMC43OSwwLjc5aDUuNjdjMC40MywwLDAuNzgtMC4zNiwwLjc4LTAuNzl2LTUuNzhDNy4yNCw2Ny44Niw2Ljg5LDY3LjUsNi40Niw2Ny41eiBNNS41MSw3NC4yNCAgICAgICBjLTAuNDUsMC0wLjgtMC4zNi0wLjgtMC44MWMwLTAuMzUsMC4yMy0wLjY2LDAuNTYtMC43NnYtMS4xSDEuOTh2MS4xYzAuMzIsMC4xLDAuNTYsMC40MSwwLjU2LDAuNzZjMCwwLjQ1LTAuMzYsMC44MS0wLjgsMC44MSAgICAgICBzLTAuOC0wLjM2LTAuOC0wLjgxYzAtMC4zNSwwLjIzLTAuNjUsMC41NC0wLjc1di0xLjIxYzAtMC4yMiwwLjE4LTAuNCwwLjQtMC40aDEuNXYtMS4zOGMtMC4zMy0wLjExLTAuNTYtMC40MS0wLjU2LTAuNzcgICAgICAgYzAtMC40NCwwLjM2LTAuOCwwLjgtMC44czAuOCwwLjM2LDAuOCwwLjhjMCwwLjM2LTAuMjMsMC42Ni0wLjU1LDAuNzd2MS4zOGwwLDBoMS41YzAuMjEsMCwwLjM5LDAuMTgsMC4zOSwwLjR2MS4yMSAgICAgICBjMC4zMiwwLjEsMC41NSwwLjQsMC41NSwwLjc1QzYuMzEsNzMuODgsNS45NSw3NC4yNCw1LjUxLDc0LjI0eiIvPiYjeGE7CQkJCTwvZz4mI3hhOwkJCTwvZz4mI3hhOwkJCTxnIGlkPSJncm91cDY3Mi04NSIgdHJhbnNmb3JtPSJ0cmFuc2xhdGUoMzYuNjM0MywtNTUuOTQwMykiPiYjeGE7CQkJCTx0aXRsZSBpZD0idGl0bGU2NzUzMSI+SURPQzwvdGl0bGU+JiN4YTsJCQkJPGcgaWQ9InNoYXBlNjczLTg2Ij4mI3hhOwkJCQkJPHRpdGxlIGlkPSJ0aXRsZTY3NTMzIj5TaGVldC42NzM8L3RpdGxlPiYjeGE7CQkJCQk8cGF0aCBpZD0icGF0aDY3NTM1IiBpbmtzY2FwZTpjb25uZWN0b3ItY3VydmF0dXJlPSIwIiBzdHlsZT0iZmlsbDojRTlFOUUwOyIgZD0iTTIuNjcsNjkuOUgwLjEzQzAuMDYsNjkuOSwwLDY5Ljk2LDAsNzAuMDcgICAgICAgdjQuN2MwLDAuMDMsMC4wNiwwLjA5LDAuMTMsMC4wOWgzLjUxYzAuMDcsMCwwLjEzLTAuMDYsMC4xMy0wLjA5di0zLjcyYzAtMC4wNi0wLjAxLTAuMDgtMC4wMy0wLjFsLTEuMDItMS4wMyAgICAgICBDMi43MSw2OS45MSwyLjY5LDY5LjksMi42Nyw2OS45eiIvPiYjeGE7CQkJCTwvZz4mI3hhOwkJCQk8ZyBpZD0ic2hhcGU2NzQtODgiIHRyYW5zZm9ybT0idHJhbnNsYXRlKDIuNzE0NzcsLTMuODkyNjQpIj4mI3hhOwkJCQkJPHRpdGxlIGlkPSJ0aXRsZTY3NTM4Ij5TaGVldC42NzQ8L3RpdGxlPiYjeGE7CQkJCQk8cGF0aCBpZD0icGF0aDY3NTQwIiBpbmtzY2FwZTpjb25uZWN0b3ItY3VydmF0dXJlPSIwIiBzdHlsZT0iZmlsbDojRDlEN0NBOyIgZD0iTTAsNzMuODF2MS4wNWgxLjA0TDAsNzMuODF6Ii8+JiN4YTsJCQkJPC9nPiYjeGE7CQkJCTxnIGlkPSJzaGFwZTY3NS05MCI+JiN4YTsJCQkJCTx0aXRsZSBpZD0idGl0bGU2NzU0MyI+U2hlZXQuNjc1PC90aXRsZT4mI3hhOwkJCQkJPHBhdGggaWQ9InBhdGg2NzU0NSIgaW5rc2NhcGU6Y29ubmVjdG9yLWN1cnZhdHVyZT0iMCIgc3R5bGU9ImZpbGw6IzRCQUNDNjsiIGQ9Ik0zLjY0LDc0Ljg2SDAuMTNDMC4wNiw3NC44NiwwLDc0LjgsMCw3NC43MyAgICAgICB2LTEuMzhoMy43N3YxLjM4QzMuNzcsNzQuOCwzLjcxLDc0Ljg2LDMuNjQsNzQuODZ6Ii8+JiN4YTsJCQkJPC9nPiYjeGE7CQkJCTxnIGlkPSJzaGFwZTY3Ni05MiIgdHJhbnNmb3JtPSJ0cmFuc2xhdGUoMC40Mzg1MTUsLTIuMTE2NTkpIj4mI3hhOwkJCQkJPHRpdGxlIGlkPSJ0aXRsZTY3NTQ4Ij5wYXRoMjUwMzA8L3RpdGxlPiYjeGE7CQkJCQk8ZyBpZD0ic2hhZG93Njc2LTkzIiB0cmFuc2Zvcm09InRyYW5zbGF0ZSgwLjM0NTYsMS45NzI4KSI+JiN4YTsJCQkJCQk8ZyBpZD0icGF0aDY3NTUwIiBpbmtzY2FwZTpjb25uZWN0b3ItY3VydmF0dXJlPSIwIiBzdHlsZT0iZmlsdGVyOnVybCgjZmlsdGVyXzIpOyI+JiN4YTsJCQkJCQkJPHBvbHlnb24gc3R5bGU9Im9wYWNpdHk6MC4yMjtmaWxsOiM1QjlCRDU7IiBwb2ludHM9IjAsNzQuODYgMS40OCw3NC44NiAyLjkzLDczLjQxIDAsNzMuNDEgICAgICAgICIvPiYjeGE7CQkJCQkJPC9nPiYjeGE7CQkJCQk8L2c+JiN4YTsJCQkJCTxwYXRoIGlkPSJwYXRoNjc1NTMiIGlua3NjYXBlOmNvbm5lY3Rvci1jdXJ2YXR1cmU9IjAiIHN0eWxlPSJmaWxsOiNCRUJFQkU7IiBkPSJNMCw3NC44NmgxLjQ4bDEuNDUtMS40NUgwVjc0Ljg2eiIvPiYjeGE7CQkJCTwvZz4mI3hhOwkJCQk8ZyBpZD0ic2hhcGU2NzctOTciIHRyYW5zZm9ybT0idHJhbnNsYXRlKDAuNDc4NTk2LC0yLjM4MTc2KSI+JiN4YTsJCQkJCTx0aXRsZSBpZD0idGl0bGU2NzU1NiI+cGF0aDI1MDMyPC90aXRsZT4mI3hhOwkJCQkJPGcgaWQ9InNoYWRvdzY3Ny05OCIgdHJhbnNmb3JtPSJ0cmFuc2xhdGUoMC4zNDU2LDEuOTcyOCkiPiYjeGE7CQkJCQkJPHBhdGggaWQ9InBhdGg2NzU1OCIgaW5rc2NhcGU6Y29ubmVjdG9yLWN1cnZhdHVyZT0iMCIgc3R5bGU9ImZpbGw6IzVCOUJENTtmaWxsLW9wYWNpdHk6MC4yMjsiIGQ9Ik0xLjY5LDczLjk0SDEuNDF2MC42OSAgICAgICAgbC0wLjI1LTAuNjlIMC45MWwtMC4yMiwwLjU4Yy0wLjAyLTAuMTUtMC4xNy0wLjItMC4yOS0wLjIzYy0wLjA3LTAuMDMtMC4xNi0wLjA3LTAuMTUtMC4xMWMwLTAuMDMsMC4wNC0wLjA2LDAuMTItMC4wNiAgICAgICAgYzAuMDYsMC4wMSwwLjExLDAuMDEsMC4yMSwwLjA2bDAuMTEtMC4xN2MtMC4xLTAuMDUtMC4yMy0wLjA4LTAuMzMtMC4wOGMtMC4xMywwLTAuMjMsMC4wNC0wLjI5LDAuMSAgICAgICAgQzAuMDMsNzQuMDgsMCw3NC4xNCwwLDc0LjJjMCwwLjA5LDAuMDMsMC4xNSwwLjEsMC4yYzAuMDYsMC4wNSwwLjEzLDAuMDcsMC4yLDAuMDljMC4wOCwwLjAzLDAuMTQsMC4wNSwwLjE0LDAuMSAgICAgICAgYzAsMC4wMSwwLDAuMDMtMC4wMiwwLjA0Yy0wLjAyLDAuMDItMC4wNSwwLjAzLTAuMDksMC4wM2MtMC4wOCwwLTAuMTQtMC4wMS0wLjI0LTAuMDdMMCw3NC43N2MwLjEsMC4wNSwwLjIxLDAuMDksMC4zMywwLjA5ICAgICAgICBoMC4wMWMwLjEtMC4wMSwwLjE5LTAuMDQsMC4yNS0wLjA5YzAuMDEsMCwwLjAxLDAsMC4wMS0wLjAxbC0wLjAzLDAuMDhoMC4yN2wwLjA0LTAuMTNjMC4wNCwwLjAxLDAuMDksMC4wMiwwLjE1LDAuMDIgICAgICAgIGMwLjA2LDAsMC4xLTAuMDEsMC4xNS0wLjAybDAuMDUsMC4xM2gwLjQydi0wLjI4aDAuMWMwLjIyLDAsMC4zNS0wLjExLDAuMzUtMC4zQzIuMSw3NC4wNCwxLjk4LDczLjk0LDEuNjksNzMuOTR6ICAgICAgICAgTTEuMDMsNzQuNTNjLTAuMDMsMC0wLjA2LDAtMC4wOS0wLjAybDAuMDktMC4yOGwwLjA5LDAuMjlDMS4wOSw3NC41MywxLjA3LDc0LjUzLDEuMDMsNzQuNTN6IE0xLjcxLDc0LjM3SDEuNjV2LTAuMjRoMC4wNiAgICAgICAgYzAuMDksMCwwLjE2LDAuMDMsMC4xNiwwLjEyQzEuODcsNzQuMzQsMS44LDc0LjM3LDEuNzEsNzQuMzd6Ii8+JiN4YTsJCQkJCTwvZz4mI3hhOwkJCQkJPHBhdGggaWQ9InBhdGg2NzU2MSIgaW5rc2NhcGU6Y29ubmVjdG9yLWN1cnZhdHVyZT0iMCIgc3R5bGU9ImZpbGw6I0ZGRkZGRjsiIGQ9Ik0xLjY5LDczLjk0SDEuNDF2MC42OWwtMC4yNS0wLjY5SDAuOTEgICAgICAgbC0wLjIyLDAuNThjLTAuMDItMC4xNS0wLjE3LTAuMi0wLjI5LTAuMjNjLTAuMDctMC4wMy0wLjE2LTAuMDctMC4xNS0wLjExYzAtMC4wMywwLjA0LTAuMDYsMC4xMi0wLjA2ICAgICAgIGMwLjA2LDAuMDEsMC4xMSwwLjAxLDAuMjEsMC4wNmwwLjExLTAuMTdjLTAuMS0wLjA1LTAuMjMtMC4wOC0wLjMzLTAuMDhjLTAuMTMsMC0wLjIzLDAuMDQtMC4yOSwwLjEgICAgICAgQzAuMDMsNzQuMDgsMCw3NC4xNCwwLDc0LjJjMCwwLjA5LDAuMDMsMC4xNSwwLjEsMC4yYzAuMDYsMC4wNSwwLjEzLDAuMDcsMC4yLDAuMDljMC4wOCwwLjAzLDAuMTQsMC4wNSwwLjE0LDAuMSAgICAgICBjMCwwLjAxLDAsMC4wMy0wLjAyLDAuMDRjLTAuMDIsMC4wMi0wLjA1LDAuMDMtMC4wOSwwLjAzYy0wLjA4LDAtMC4xNC0wLjAxLTAuMjQtMC4wN0wwLDc0Ljc3YzAuMSwwLjA1LDAuMjEsMC4wOSwwLjMzLDAuMDkgICAgICAgaDAuMDFjMC4xLTAuMDEsMC4xOS0wLjA0LDAuMjUtMC4wOWMwLjAxLDAsMC4wMSwwLDAuMDEtMC4wMWwtMC4wMywwLjA4aDAuMjdsMC4wNC0wLjEzYzAuMDQsMC4wMSwwLjA5LDAuMDIsMC4xNSwwLjAyICAgICAgIGMwLjA2LDAsMC4xLTAuMDEsMC4xNS0wLjAybDAuMDUsMC4xM2gwLjQydi0wLjI4aDAuMWMwLjIyLDAsMC4zNS0wLjExLDAuMzUtMC4zQzIuMSw3NC4wNCwxLjk4LDczLjk0LDEuNjksNzMuOTR6IE0xLjAzLDc0LjUzICAgICAgIGMtMC4wMywwLTAuMDYsMC0wLjA5LTAuMDJsMC4wOS0wLjI4bDAuMDksMC4yOUMxLjA5LDc0LjUzLDEuMDcsNzQuNTMsMS4wMyw3NC41M3ogTTEuNzEsNzQuMzdIMS42NXYtMC4yNGgwLjA2ICAgICAgIGMwLjA5LDAsMC4xNiwwLjAzLDAuMTYsMC4xMkMxLjg3LDc0LjM0LDEuOCw3NC4zNywxLjcxLDc0LjM3eiIvPiYjeGE7CQkJCTwvZz4mI3hhOwkJCQk8ZyBpZD0iZ3JvdXA2NzgtMTAyIiB0cmFuc2Zvcm09InRyYW5zbGF0ZSgwLjU5MDY2OSwtMC4zODkwOTYpIj4mI3hhOwkJCQkJPHRpdGxlIGlkPSJ0aXRsZTY3NTY0Ij5TaGVldC42Nzg8L3RpdGxlPiYjeGE7CQkJCQk8ZyBpZD0ic2hhcGU2NzktMTAzIiB0cmFuc2Zvcm09InRyYW5zbGF0ZSgwLC0wLjAxNTc5OTQpIj4mI3hhOwkJCQkJCTx0aXRsZSBpZD0idGl0bGU2NzU2NiI+U2hlZXQuNjc5PC90aXRsZT4mI3hhOwkJCQkJCTxyZWN0IGlkPSJyZWN0Njc1NjgiIHg9IjAiIHk9Ijc0LjEzIiBzdHlsZT0iZmlsbDojRkZGRkZGOyIgd2lkdGg9IjAuMTYiIGhlaWdodD0iMC43MyIvPiYjeGE7CQkJCQk8L2c+JiN4YTsJCQkJCTxnIGlkPSJzaGFwZTY4MC0xMDUiIHRyYW5zZm9ybT0idHJhbnNsYXRlKDAuMzAxMjc1LC0wLjAxNzQ1NzgpIj4mI3hhOwkJCQkJCTx0aXRsZSBpZD0idGl0bGU2NzU3MSI+U2hlZXQuNjgwPC90aXRsZT4mI3hhOwkJCQkJCTxwYXRoIGlkPSJwYXRoNjc1NzMiIGlua3NjYXBlOmNvbm5lY3Rvci1jdXJ2YXR1cmU9IjAiIHN0eWxlPSJmaWxsOiNGRkZGRkY7IiBkPSJNMC4zMiw3NC4xM2MwLjA0LDAsMC4wOSwwLjAxLDAuMTMsMC4wMiAgICAgICAgYzAuMDQsMC4wMSwwLjA4LDAuMDQsMC4xMSwwLjA3YzAuMDMsMC4wMywwLjA1LDAuMDcsMC4wNywwLjExYzAuMDIsMC4wNSwwLjAzLDAuMSwwLjAyLDAuMTZjMCwwLjA1LTAuMDEsMC4xLTAuMDIsMC4xNSAgICAgICAgYy0wLjAxLDAuMDQtMC4wMywwLjA4LTAuMDYsMC4xMmMtMC4wMywwLjAzLTAuMDYsMC4wNi0wLjEsMC4wOGMtMC4wNSwwLjAyLTAuMSwwLjAzLTAuMTUsMC4wM2wtMC4zMiwwdi0wLjczSDAuMzJ6ICAgICAgICAgTTAuMyw3NC43MmMwLjAyLDAsMC4wNSwwLDAuMDctMC4wMWMwLjAyLTAuMDEsMC4wNC0wLjAyLDAuMDYtMC4wNGMwLjAyLTAuMDIsMC4wMy0wLjA0LDAuMDQtMC4wNyAgICAgICAgYzAuMDEtMC4wMywwLjAyLTAuMDcsMC4wMi0wLjFjMC0wLjAzLDAtMC4wNy0wLjAxLTAuMWMtMC4wMS0wLjAzLTAuMDItMC4wNS0wLjA0LTAuMDhjLTAuMDItMC4wMi0wLjA0LTAuMDQtMC4wNi0wLjA1ICAgICAgICBjLTAuMDMtMC4wMS0wLjA3LTAuMDItMC4xLTAuMDJsLTAuMTEsMHYwLjQ2SDAuM3oiLz4mI3hhOwkJCQkJPC9nPiYjeGE7CQkJCQk8ZyBpZD0ic2hhcGU2ODEtMTA3IiB0cmFuc2Zvcm09InRyYW5zbGF0ZSgxLjAyNzY1KSI+JiN4YTsJCQkJCQk8dGl0bGUgaWQ9InRpdGxlNjc1NzYiPlNoZWV0LjY4MTwvdGl0bGU+JiN4YTsJCQkJCQk8cGF0aCBpZD0icGF0aDY3NTc4IiBpbmtzY2FwZTpjb25uZWN0b3ItY3VydmF0dXJlPSIwIiBzdHlsZT0iZmlsbDojRkZGRkZGOyIgZD0iTTAuMDIsNzQuMzNjMC4wMi0wLjA0LDAuMDQtMC4wOSwwLjA3LTAuMTIgICAgICAgIGMwLjAzLTAuMDMsMC4wNy0wLjA2LDAuMTEtMC4wOGMwLjEtMC4wNCwwLjIxLTAuMDQsMC4zLDBjMC4wNCwwLjAyLDAuMDgsMC4wNSwwLjExLDAuMDhjMC4wMywwLjA0LDAuMDYsMC4wOCwwLjA3LDAuMTIgICAgICAgIGMwLjAyLDAuMDUsMC4wMiwwLjEsMC4wMiwwLjE1YzAsMC4wNS0wLjAxLDAuMS0wLjAyLDAuMTVjLTAuMDIsMC4wNC0wLjA0LDAuMDktMC4wNywwLjEyYy0wLjAzLDAuMDMtMC4wNywwLjA2LTAuMTEsMC4wOCAgICAgICAgYy0wLjEsMC4wNC0wLjIsMC4wNC0wLjMsMGMtMC4wNC0wLjAyLTAuMDgtMC4wNS0wLjExLTAuMDhjLTAuMDMtMC4wMy0wLjA2LTAuMDgtMC4wNy0wLjEyQzAsNzQuNTgsMCw3NC41MywwLDc0LjQ4ICAgICAgICBDMCw3NC40MywwLDc0LjM4LDAuMDIsNzQuMzN6IE0wLjE3LDc0LjU3YzAuMDEsMC4wMywwLjAyLDAuMDUsMC4wMywwLjA4YzAuMDIsMC4wMiwwLjA0LDAuMDQsMC4wNiwwLjA2ICAgICAgICBjMC4wNiwwLjAzLDAuMTMsMC4wMywwLjE4LDBjMC4wMi0wLjAxLDAuMDUtMC4wMywwLjA2LTAuMDZjMC4wMi0wLjAyLDAuMDMtMC4wNSwwLjAzLTAuMDhjMC4wMS0wLjAzLDAuMDEtMC4wNiwwLjAxLTAuMDkgICAgICAgIGMwLTAuMDMsMC0wLjA2LTAuMDEtMC4wOWMtMC4wMS0wLjAzLTAuMDItMC4wNi0wLjAzLTAuMDhjLTAuMDItMC4wMi0wLjA0LTAuMDQtMC4wNi0wLjA2Yy0wLjA2LTAuMDMtMC4xMy0wLjAzLTAuMTgsMCAgICAgICAgYy0wLjAyLDAuMDEtMC4wNSwwLjAzLTAuMDYsMC4wNmMtMC4wMiwwLjAyLTAuMDMsMC4wNS0wLjAzLDAuMDhjLTAuMDEsMC4wMy0wLjAxLDAuMDYtMC4wMSwwLjA5ICAgICAgICBDMC4xNiw3NC41MSwwLjE2LDc0LjU0LDAuMTcsNzQuNTd6Ii8+JiN4YTsJCQkJCTwvZz4mI3hhOwkJCQkJPGcgaWQ9InNoYXBlNjgyLTEwOSIgdHJhbnNmb3JtPSJ0cmFuc2xhdGUoMS44MjU4OSwtMC4wMDI1MzIyNCkiPiYjeGE7CQkJCQkJPHRpdGxlIGlkPSJ0aXRsZTY3NTgxIj5TaGVldC42ODI8L3RpdGxlPiYjeGE7CQkJCQkJPHBhdGggaWQ9InBhdGg2NzU4MyIgaW5rc2NhcGU6Y29ubmVjdG9yLWN1cnZhdHVyZT0iMCIgc3R5bGU9ImZpbGw6I0ZGRkZGRjsiIGQ9Ik0wLjUsNzQuMzFjLTAuMDEtMC4wMi0wLjAyLTAuMDMtMC4wNC0wLjA0ICAgICAgICBjLTAuMDEtMC4wMS0wLjAzLTAuMDItMC4wNS0wLjAzYy0wLjAyLTAuMDEtMC4wNC0wLjAxLTAuMDYtMC4wMWMtMC4wMywwLTAuMDYsMC4wMS0wLjA5LDAuMDJjLTAuMDIsMC4wMS0wLjA1LDAuMDMtMC4wNiwwLjA2ICAgICAgICBjLTAuMDIsMC4wMi0wLjAzLDAuMDUtMC4wMywwLjA4Yy0wLjAxLDAuMDMtMC4wMSwwLjA2LTAuMDEsMC4wOWMwLDAuMDMsMCwwLjA2LDAuMDEsMC4wOWMwLjAxLDAuMDMsMC4wMiwwLjA1LDAuMDMsMC4wOCAgICAgICAgYzAuMDIsMC4wMiwwLjA0LDAuMDQsMC4wNiwwLjA2YzAuMDMsMC4wMSwwLjA2LDAuMDIsMC4wOSwwLjAyYzAuMDQsMCwwLjA4LTAuMDEsMC4xMS0wLjA0YzAuMDMtMC4wMywwLjA1LTAuMDcsMC4wNS0wLjEyICAgICAgICBsMC4xNSwwYzAsMC4wNC0wLjAxLDAuMDgtMC4wMywwLjEyYy0wLjAyLDAuMDQtMC4wNCwwLjA3LTAuMDcsMC4wOWMtMC4wMywwLjAzLTAuMDYsMC4wNS0wLjEsMC4wNiAgICAgICAgYy0wLjA0LDAuMDEtMC4wOCwwLjAyLTAuMTIsMC4wMmMtMC4wNSwwLTAuMS0wLjAxLTAuMTUtMC4wM2MtMC4wNC0wLjAyLTAuMDgtMC4wNS0wLjExLTAuMDhjLTAuMDMtMC4wMy0wLjA2LTAuMDgtMC4wNy0wLjEyICAgICAgICBDMC4wMSw3NC41OCwwLDc0LjUzLDAsNzQuNDhjMC0wLjA1LDAuMDEtMC4xLDAuMDItMC4xNWMwLjAyLTAuMDQsMC4wNC0wLjA5LDAuMDctMC4xMmMwLjAzLTAuMDMsMC4wNy0wLjA2LDAuMTEtMC4wOCAgICAgICAgYzAuMDgtMC4wMywwLjE4LTAuMDQsMC4yNi0wLjAxYzAuMDMsMC4wMSwwLjA3LDAuMDMsMC4xLDAuMDVjMC4wMywwLjAyLDAuMDUsMC4wNSwwLjA3LDAuMDhjMC4wMiwwLjAzLDAuMDMsMC4wNywwLjAzLDAuMTEgICAgICAgIGwtMC4xNSwwQzAuNTIsNzQuMzMsMC41MSw3NC4zMiwwLjUsNzQuMzFMMC41LDc0LjMxeiIvPiYjeGE7CQkJCQk8L2c+JiN4YTsJCQkJPC9nPiYjeGE7CQkJPC9nPiYjeGE7CQkJPGcgaWQ9Imdyb3VwNjgzLTExMSIgdHJhbnNmb3JtPSJ0cmFuc2xhdGUoMzMuNTA1MiwtNTIuMjI5MSkiPiYjeGE7CQkJCTx0aXRsZSBpZD0idGl0bGU2NzU4OCI+RURJRkFDVDwvdGl0bGU+JiN4YTsJCQkJPGcgaWQ9InNoYXBlNjg0LTExMiI+JiN4YTsJCQkJCTx0aXRsZSBpZD0idGl0bGU2NzU5MCI+U2hlZXQuNjg0PC90aXRsZT4mI3hhOwkJCQkJPHBhdGggaWQ9InBhdGg2NzU5MiIgaW5rc2NhcGU6Y29ubmVjdG9yLWN1cnZhdHVyZT0iMCIgc3R5bGU9ImZpbGw6I0U5RTlFMDsiIGQ9Ik0yLjc4LDY5Ljc0SDAuMTNDMC4wNiw2OS43NCwwLDY5LjgsMCw2OS45MiAgICAgICB2NC44NGMwLDAuMDQsMC4wNiwwLjEsMC4xMywwLjFoMy42NmMwLjA3LDAsMC4xMy0wLjA2LDAuMTMtMC4xdi0zLjgzYzAtMC4wNiwwLTAuMDgtMC4wMi0wLjFsLTEuMDYtMS4wNiAgICAgICBDMi44Miw2OS43NSwyLjgsNjkuNzQsMi43OCw2OS43NHoiLz4mI3hhOwkJCQk8L2c+JiN4YTsJCQkJPGcgaWQ9InNoYXBlNjg1LTExNCIgdHJhbnNmb3JtPSJ0cmFuc2xhdGUoMi44MjkxNSwtNC4wMTU1NykiPiYjeGE7CQkJCQk8dGl0bGUgaWQ9InRpdGxlNjc1OTUiPlNoZWV0LjY4NTwvdGl0bGU+JiN4YTsJCQkJCTxwYXRoIGlkPSJwYXRoNjc1OTciIGlua3NjYXBlOmNvbm5lY3Rvci1jdXJ2YXR1cmU9IjAiIHN0eWxlPSJmaWxsOiNEOUQ3Q0E7IiBkPSJNMCw3My43N3YxLjA5aDEuMDhMMCw3My43N3oiLz4mI3hhOwkJCQk8L2c+JiN4YTsJCQkJPGcgaWQ9InNoYXBlNjg2LTExNiI+JiN4YTsJCQkJCTx0aXRsZSBpZD0idGl0bGU2NzYwMCI+U2hlZXQuNjg2PC90aXRsZT4mI3hhOwkJCQkJPHBhdGggaWQ9InBhdGg2NzYwMiIgaW5rc2NhcGU6Y29ubmVjdG9yLWN1cnZhdHVyZT0iMCIgc3R5bGU9ImZpbGw6Izk1QTVBNTsiIGQ9Ik0zLjc5LDc0Ljg2SDAuMTNDMC4wNiw3NC44NiwwLDc0LjgsMCw3NC43MiAgICAgICBWNzMuM2gzLjkydjEuNDJDMy45Miw3NC44LDMuODYsNzQuODYsMy43OSw3NC44NnoiLz4mI3hhOwkJCQk8L2c+JiN4YTsJCQkJPGcgaWQ9InNoYXBlNjg3LTExOCIgdHJhbnNmb3JtPSJ0cmFuc2xhdGUoMC40NTYzMTUsLTMuOTI0MzEpIj4mI3hhOwkJCQkJPHRpdGxlIGlkPSJ0aXRsZTY3NjA1Ij5TaGVldC42ODc8L3RpdGxlPiYjeGE7CQkJCQk8cGF0aCBpZD0icGF0aDY3NjA3IiBpbmtzY2FwZTpjb25uZWN0b3ItY3VydmF0dXJlPSIwIiBzdHlsZT0iZmlsbDojQzhCREI4OyIgZD0iTTAuNjQsNzQuODZIMC4wOWMtMC4wNSwwLTAuMDktMC4wNS0wLjA5LTAuMSAgICAgICBjMC0wLjA1LDAuMDQtMC4wOSwwLjA5LTAuMDloMC41NWMwLjA1LDAsMC4wOSwwLjA0LDAuMDksMC4wOUMwLjczLDc0LjgxLDAuNjksNzQuODYsMC42NCw3NC44NnoiLz4mI3hhOwkJCQk8L2c+JiN4YTsJCQkJPGcgaWQ9InNoYXBlNjg4LTEyMCIgdHJhbnNmb3JtPSJ0cmFuc2xhdGUoMC40NTYzMTUsLTMuNDY3OTkpIj4mI3hhOwkJCQkJPHRpdGxlIGlkPSJ0aXRsZTY3NjEwIj5TaGVldC42ODg8L3RpdGxlPiYjeGE7CQkJCQk8cGF0aCBpZD0icGF0aDY3NjEyIiBpbmtzY2FwZTpjb25uZWN0b3ItY3VydmF0dXJlPSIwIiBzdHlsZT0iZmlsbDojQzhCREI4OyIgZD0iTTAuOTEsNzQuODZIMC4wOWMtMC4wNSwwLTAuMDktMC4wNS0wLjA5LTAuMSAgICAgICBjMC0wLjA1LDAuMDQtMC4wOSwwLjA5LTAuMDloMC44MmMwLjA1LDAsMC4wOSwwLjA0LDAuMDksMC4wOUMxLDc0LjgxLDAuOTYsNzQuODYsMC45MSw3NC44NnoiLz4mI3hhOwkJCQk8L2c+JiN4YTsJCQkJPGcgaWQ9InNoYXBlNjg5LTEyMiIgdHJhbnNmb3JtPSJ0cmFuc2xhdGUoMS42NDI3MywtMy40Njc5OSkiPiYjeGE7CQkJCQk8dGl0bGUgaWQ9InRpdGxlNjc2MTUiPlNoZWV0LjY4OTwvdGl0bGU+JiN4YTsJCQkJCTxwYXRoIGlkPSJwYXRoNjc2MTciIGlua3NjYXBlOmNvbm5lY3Rvci1jdXJ2YXR1cmU9IjAiIHN0eWxlPSJmaWxsOiNDOEJEQjg7IiBkPSJNMC4wOSw3NC44NmMtMC4wMiwwLTAuMDUtMC4wMS0wLjA2LTAuMDMgICAgICAgQzAuMDEsNzQuODEsMCw3NC43OSwwLDc0Ljc2YzAtMC4wMiwwLjAxLTAuMDQsMC4wMy0wLjA2YzAuMDMtMC4wMywwLjA5LTAuMDMsMC4xMywwYzAuMDEsMC4wMiwwLjAyLDAuMDQsMC4wMiwwLjA2ICAgICAgIGMwLDAuMDMtMC4wMSwwLjA1LTAuMDIsMC4wN0MwLjE0LDc0Ljg1LDAuMTEsNzQuODYsMC4wOSw3NC44NnoiLz4mI3hhOwkJCQk8L2c+JiN4YTsJCQkJPGcgaWQ9InNoYXBlNjkwLTEyNCIgdHJhbnNmb3JtPSJ0cmFuc2xhdGUoMi4wMDc3OSwtMy40Njc5OSkiPiYjeGE7CQkJCQk8dGl0bGUgaWQ9InRpdGxlNjc2MjAiPlNoZWV0LjY5MDwvdGl0bGU+JiN4YTsJCQkJCTxwYXRoIGlkPSJwYXRoNjc2MjIiIGlua3NjYXBlOmNvbm5lY3Rvci1jdXJ2YXR1cmU9IjAiIHN0eWxlPSJmaWxsOiNDOEJEQjg7IiBkPSJNMC44Miw3NC44NkgwLjA5Yy0wLjA1LDAtMC4wOS0wLjA1LTAuMDktMC4xICAgICAgIGMwLTAuMDUsMC4wNC0wLjA5LDAuMDktMC4wOWgwLjczYzAuMDUsMCwwLjA5LDAuMDQsMC4wOSwwLjA5QzAuOTEsNzQuODEsMC44Nyw3NC44NiwwLjgyLDc0Ljg2eiIvPiYjeGE7CQkJCTwvZz4mI3hhOwkJCQk8ZyBpZD0ic2hhcGU2OTEtMTI2IiB0cmFuc2Zvcm09InRyYW5zbGF0ZSgwLjQ1NjMxNSwtMi4wOTkwNSkiPiYjeGE7CQkJCQk8dGl0bGUgaWQ9InRpdGxlNjc2MjUiPlNoZWV0LjY5MTwvdGl0bGU+JiN4YTsJCQkJCTxwYXRoIGlkPSJwYXRoNjc2MjciIGlua3NjYXBlOmNvbm5lY3Rvci1jdXJ2YXR1cmU9IjAiIHN0eWxlPSJmaWxsOiNDOEJEQjg7IiBkPSJNMC4wOSw3NC44NmMtMC4wMiwwLTAuMDUtMC4wMS0wLjA2LTAuMDMgICAgICAgQzAuMDEsNzQuODEsMCw3NC43OSwwLDc0Ljc2YzAtMC4wMiwwLjAxLTAuMDQsMC4wMy0wLjA2YzAuMDMtMC4wMywwLjA5LTAuMDMsMC4xMywwYzAuMDEsMC4wMiwwLjAyLDAuMDQsMC4wMiwwLjA2ICAgICAgIGMwLDAuMDMtMC4wMSwwLjA1LTAuMDIsMC4wN0MwLjE0LDc0Ljg1LDAuMTEsNzQuODYsMC4wOSw3NC44NnoiLz4mI3hhOwkJCQk8L2c+JiN4YTsJCQkJPGcgaWQ9InNoYXBlNjkyLTEyOCIgdHJhbnNmb3JtPSJ0cmFuc2xhdGUoMC44MjEzNjcsLTIuMDk5MDUpIj4mI3hhOwkJCQkJPHRpdGxlIGlkPSJ0aXRsZTY3NjMwIj5TaGVldC42OTI8L3RpdGxlPiYjeGE7CQkJCQk8cGF0aCBpZD0icGF0aDY3NjMyIiBpbmtzY2FwZTpjb25uZWN0b3ItY3VydmF0dXJlPSIwIiBzdHlsZT0iZmlsbDojQzhCREI4OyIgZD0iTTAuODIsNzQuODZIMC4wOWMtMC4wNSwwLTAuMDktMC4wNS0wLjA5LTAuMSAgICAgICBjMC0wLjA1LDAuMDQtMC4wOSwwLjA5LTAuMDloMC43M2MwLjA1LDAsMC4wOSwwLjA0LDAuMDksMC4wOUMwLjkxLDc0LjgxLDAuODcsNzQuODYsMC44Miw3NC44NnoiLz4mI3hhOwkJCQk8L2c+JiN4YTsJCQkJPGcgaWQ9InNoYXBlNjkzLTEzMCIgdHJhbnNmb3JtPSJ0cmFuc2xhdGUoMy4xMDI5NCwtMy40Njc5OSkiPiYjeGE7CQkJCQk8dGl0bGUgaWQ9InRpdGxlNjc2MzUiPlNoZWV0LjY5MzwvdGl0bGU+JiN4YTsJCQkJCTxwYXRoIGlkPSJwYXRoNjc2MzciIGlua3NjYXBlOmNvbm5lY3Rvci1jdXJ2YXR1cmU9IjAiIHN0eWxlPSJmaWxsOiNDOEJEQjg7IiBkPSJNMC4yNyw3NC44NkgwLjA5Yy0wLjA1LDAtMC4wOS0wLjA1LTAuMDktMC4xICAgICAgIGMwLTAuMDUsMC4wNC0wLjA5LDAuMDktMC4wOWgwLjE4YzAuMDUsMCwwLjEsMC4wNCwwLjEsMC4wOUMwLjM3LDc0LjgxLDAuMzIsNzQuODYsMC4yNyw3NC44NnoiLz4mI3hhOwkJCQk8L2c+JiN4YTsJCQkJPGcgaWQ9InNoYXBlNjk0LTEzMiIgdHJhbnNmb3JtPSJ0cmFuc2xhdGUoMC40NTYzMTUsLTMuMDExNjgpIj4mI3hhOwkJCQkJPHRpdGxlIGlkPSJ0aXRsZTY3NjQwIj5TaGVldC42OTQ8L3RpdGxlPiYjeGE7CQkJCQk8cGF0aCBpZD0icGF0aDY3NjQyIiBpbmtzY2FwZTpjb25uZWN0b3ItY3VydmF0dXJlPSIwIiBzdHlsZT0iZmlsbDojQzhCREI4OyIgZD0iTTIuMSw3NC44NkgwLjA5Yy0wLjA1LDAtMC4wOS0wLjA1LTAuMDktMC4xICAgICAgIGMwLTAuMDUsMC4wNC0wLjA5LDAuMDktMC4wOUgyLjFjMC4wNSwwLDAuMDksMC4wNCwwLjA5LDAuMDlDMi4xOSw3NC44MSwyLjE1LDc0Ljg2LDIuMSw3NC44NnoiLz4mI3hhOwkJCQk8L2c+JiN4YTsJCQkJPGcgaWQ9InNoYXBlNjk1LTEzNCIgdHJhbnNmb3JtPSJ0cmFuc2xhdGUoMi43Mzc4OSwtMy4wMTE2OCkiPiYjeGE7CQkJCQk8dGl0bGUgaWQ9InRpdGxlNjc2NDUiPlNoZWV0LjY5NTwvdGl0bGU+JiN4YTsJCQkJCTxwYXRoIGlkPSJwYXRoNjc2NDciIGlua3NjYXBlOmNvbm5lY3Rvci1jdXJ2YXR1cmU9IjAiIHN0eWxlPSJmaWxsOiNDOEJEQjg7IiBkPSJNMC42NCw3NC44NkgwLjA5Yy0wLjA1LDAtMC4wOS0wLjA1LTAuMDktMC4xICAgICAgIGMwLTAuMDUsMC4wNC0wLjA5LDAuMDktMC4wOWgwLjU1YzAuMDUsMCwwLjA5LDAuMDQsMC4wOSwwLjA5QzAuNzMsNzQuODEsMC42OSw3NC44NiwwLjY0LDc0Ljg2eiIvPiYjeGE7CQkJCTwvZz4mI3hhOwkJCQk8ZyBpZD0ic2hhcGU2OTYtMTM2IiB0cmFuc2Zvcm09InRyYW5zbGF0ZSgwLjQ1NjMxNSwtMi41NTUzNikiPiYjeGE7CQkJCQk8dGl0bGUgaWQ9InRpdGxlNjc2NTAiPlNoZWV0LjY5NjwvdGl0bGU+JiN4YTsJCQkJCTxwYXRoIGlkPSJwYXRoNjc2NTIiIGlua3NjYXBlOmNvbm5lY3Rvci1jdXJ2YXR1cmU9IjAiIHN0eWxlPSJmaWxsOiNDOEJEQjg7IiBkPSJNMC40Niw3NC44NkgwLjA5Yy0wLjA1LDAtMC4wOS0wLjA1LTAuMDktMC4xICAgICAgIGMwLTAuMDUsMC4wNC0wLjA5LDAuMDktMC4wOWgwLjM3YzAuMDUsMCwwLjA5LDAuMDQsMC4wOSwwLjA5QzAuNTUsNzQuODEsMC41MSw3NC44NiwwLjQ2LDc0Ljg2eiIvPiYjeGE7CQkJCTwvZz4mI3hhOwkJCQk8ZyBpZD0ic2hhcGU2OTctMTM4IiB0cmFuc2Zvcm09InRyYW5zbGF0ZSgxLjE4NjQyLC0yLjU1NTM2KSI+JiN4YTsJCQkJCTx0aXRsZSBpZD0idGl0bGU2NzY1NSI+U2hlZXQuNjk3PC90aXRsZT4mI3hhOwkJCQkJPHBhdGggaWQ9InBhdGg2NzY1NyIgaW5rc2NhcGU6Y29ubmVjdG9yLWN1cnZhdHVyZT0iMCIgc3R5bGU9ImZpbGw6I0M4QkRCODsiIGQ9Ik0xLDc0Ljg2SDAuMDljLTAuMDUsMC0wLjA5LTAuMDUtMC4wOS0wLjEgICAgICAgYzAtMC4wNSwwLjA0LTAuMDksMC4wOS0wLjA5SDFjMC4wNSwwLDAuMSwwLjA0LDAuMSwwLjA5QzEuMSw3NC44MSwxLjA1LDc0Ljg2LDEsNzQuODZ6Ii8+JiN4YTsJCQkJPC9nPiYjeGE7CQkJCTxnIGlkPSJzaGFwZTY5OC0xNDAiIHRyYW5zZm9ybT0idHJhbnNsYXRlKDIuNDY0MSwtMi41NTUzNikiPiYjeGE7CQkJCQk8dGl0bGUgaWQ9InRpdGxlNjc2NjAiPlNoZWV0LjY5ODwvdGl0bGU+JiN4YTsJCQkJCTxwYXRoIGlkPSJwYXRoNjc2NjIiIGlua3NjYXBlOmNvbm5lY3Rvci1jdXJ2YXR1cmU9IjAiIHN0eWxlPSJmaWxsOiNDOEJEQjg7IiBkPSJNMC45MSw3NC44NkgwLjA5Yy0wLjA1LDAtMC4wOS0wLjA1LTAuMDktMC4xICAgICAgIGMwLTAuMDUsMC4wNC0wLjA5LDAuMDktMC4wOWgwLjgyYzAuMDUsMCwwLjA5LDAuMDQsMC4wOSwwLjA5QzEsNzQuODEsMC45Niw3NC44NiwwLjkxLDc0Ljg2eiIvPiYjeGE7CQkJCTwvZz4mI3hhOwkJCQk8ZyBpZD0iZ3JvdXA2OTktMTQyIiB0cmFuc2Zvcm09InRyYW5zbGF0ZSgwLjMxODA3OSwtMC41NDIwNCkiPiYjeGE7CQkJCQk8dGl0bGUgaWQ9InRpdGxlNjc2NjUiPlNoZWV0LjY5OTwvdGl0bGU+JiN4YTsJCQkJCTxnIGlkPSJzaGFwZTcwMC0xNDMiIHRyYW5zZm9ybT0idHJhbnNsYXRlKDAsLTAuMDA5OTI4ODkpIj4mI3hhOwkJCQkJCTx0aXRsZSBpZD0idGl0bGU2NzY2NyI+U2hlZXQuNzAwPC90aXRsZT4mI3hhOwkJCQkJCTxwYXRoIGlkPSJwYXRoNjc2NjkiIGlua3NjYXBlOmNvbm5lY3Rvci1jdXJ2YXR1cmU9IjAiIHN0eWxlPSJmaWxsOiNGRkZGRkY7IiBkPSJNMC40MSw3NC4zMXYwLjFIMC4xMnYwLjEyaDAuMjZ2MC4wOUgwLjEyICAgICAgICB2MC4xM2gwLjI5djAuMTFIMHYtMC41NUwwLjQxLDc0LjMxeiIvPiYjeGE7CQkJCQk8L2c+JiN4YTsJCQkJCTxnIGlkPSJzaGFwZTcwMS0xNDUiIHRyYW5zZm9ybT0idHJhbnNsYXRlKDAuNDkzNTQ4LC0wLjAxMTE3KSI+JiN4YTsJCQkJCQk8dGl0bGUgaWQ9InRpdGxlNjc2NzIiPlNoZWV0LjcwMTwvdGl0bGU+JiN4YTsJCQkJCQk8cGF0aCBpZD0icGF0aDY3Njc0IiBpbmtzY2FwZTpjb25uZWN0b3ItY3VydmF0dXJlPSIwIiBzdHlsZT0iZmlsbDojRkZGRkZGOyIgZD0iTTAuMjQsNzQuMzFjMC4wMywwLDAuMDcsMC4wMSwwLjEsMC4wMiAgICAgICAgYzAuMDMsMC4wMSwwLjA2LDAuMDMsMC4wOCwwLjA1YzAuMDIsMC4wMiwwLjA0LDAuMDUsMC4wNSwwLjA4YzAuMDEsMC4wNCwwLjAyLDAuMDgsMC4wMiwwLjEyYzAsMC4wNCwwLDAuMDctMC4wMiwwLjExICAgICAgICBjLTAuMDEsMC4wMy0wLjAzLDAuMDYtMC4wNSwwLjA5Yy0wLjAyLDAuMDItMC4wNSwwLjA0LTAuMDgsMC4wNmMtMC4wMywwLjAxLTAuMDcsMC4wMi0wLjExLDAuMDJsLTAuMjQsMHYtMC41NUgwLjI0eiAgICAgICAgIE0wLjIzLDc0Ljc1YzAuMDIsMCwwLjAzLDAsMC4wNS0wLjAxYzAuMDItMC4wMSwwLjAzLTAuMDIsMC4wNC0wLjAzYzAuMDEtMC4wMSwwLjAyLTAuMDMsMC4wMy0wLjA1ICAgICAgICBjMC4wMS0wLjAyLDAuMDEtMC4wNSwwLjAxLTAuMDhjMC0wLjAzLDAtMC4wNS0wLjAxLTAuMDdjMC0wLjAyLTAuMDEtMC4wNC0wLjAzLTAuMDZjLTAuMDEtMC4wMi0wLjAzLTAuMDMtMC4wNS0wLjA0ICAgICAgICBjLTAuMDItMC4wMS0wLjA1LTAuMDEtMC4wNy0wLjAxbC0wLjA5LDB2MC4zNEgwLjIzeiIvPiYjeGE7CQkJCQk8L2c+JiN4YTsJCQkJCTxnIGlkPSJzaGFwZTcwMi0xNDciIHRyYW5zZm9ybT0idHJhbnNsYXRlKDEuMDYwNzQsLTAuMDEwNzU2MykiPiYjeGE7CQkJCQkJPHRpdGxlIGlkPSJ0aXRsZTY3Njc3Ij5TaGVldC43MDI8L3RpdGxlPiYjeGE7CQkJCQkJPHJlY3QgaWQ9InJlY3Q2NzY3OSIgeD0iMCIgeT0iNzQuMzEiIHN0eWxlPSJmaWxsOiNGRkZGRkY7IiB3aWR0aD0iMC4xMiIgaGVpZ2h0PSIwLjU1Ii8+JiN4YTsJCQkJCTwvZz4mI3hhOwkJCQkJPGcgaWQ9InNoYXBlNzAzLTE0OSIgdHJhbnNmb3JtPSJ0cmFuc2xhdGUoMS4yODY2MiwtMC4wMTAzNDI2KSI+JiN4YTsJCQkJCQk8dGl0bGUgaWQ9InRpdGxlNjc2ODIiPlNoZWV0LjcwMzwvdGl0bGU+JiN4YTsJCQkJCQk8cGF0aCBpZD0icGF0aDY3Njg0IiBpbmtzY2FwZTpjb25uZWN0b3ItY3VydmF0dXJlPSIwIiBzdHlsZT0iZmlsbDojRkZGRkZGOyIgZD0iTTAuMzgsNzQuMzF2MC4xSDAuMTJ2MC4xM2gwLjIzdjAuMDlIMC4xMiAgICAgICAgdjAuMjNIMHYtMC41NUwwLjM4LDc0LjMxeiIvPiYjeGE7CQkJCQk8L2c+JiN4YTsJCQkJCTxnIGlkPSJzaGFwZTcwNC0xNTEiIHRyYW5zZm9ybT0idHJhbnNsYXRlKDEuNjQyODIsLTAuMDEwMzQyNikiPiYjeGE7CQkJCQkJPHRpdGxlIGlkPSJ0aXRsZTY3Njg3Ij5TaGVldC43MDQ8L3RpdGxlPiYjeGE7CQkJCQkJPHBhdGggaWQ9InBhdGg2NzY4OSIgaW5rc2NhcGU6Y29ubmVjdG9yLWN1cnZhdHVyZT0iMCIgc3R5bGU9ImZpbGw6I0ZGRkZGRjsiIGQ9Ik0wLjMzLDc0LjMxbDAuMiwwLjU1SDAuNDFsLTAuMDQtMC4xM0gwLjE2ICAgICAgICBsLTAuMDQsMC4xM0gwbDAuMjEtMC41NUgwLjMzeiBNMC4zMyw3NC42NGwtMC4wNi0wLjJsLTAuMDgsMC4yMUwwLjMzLDc0LjY0eiIvPiYjeGE7CQkJCQk8L2c+JiN4YTsJCQkJCTxnIGlkPSJzaGFwZTcwNS0xNTMiIHRyYW5zZm9ybT0idHJhbnNsYXRlKDIuMjAxMzIpIj4mI3hhOwkJCQkJCTx0aXRsZSBpZD0idGl0bGU2NzY5MiI+U2hlZXQuNzA1PC90aXRsZT4mI3hhOwkJCQkJCTxwYXRoIGlkPSJwYXRoNjc2OTQiIGlua3NjYXBlOmNvbm5lY3Rvci1jdXJ2YXR1cmU9IjAiIHN0eWxlPSJmaWxsOiNGRkZGRkY7IiBkPSJNMC4zNyw3NC40NGMtMC4wMS0wLjAxLTAuMDItMC4wMi0wLjAzLTAuMDMgICAgICAgIGMtMC4wMS0wLjAxLTAuMDItMC4wMi0wLjA0LTAuMDJjLTAuMDEsMC0wLjAzLTAuMDEtMC4wNC0wLjAxYy0wLjAyLDAtMC4wNSwwLTAuMDcsMC4wMmMtMC4wMiwwLjAxLTAuMDMsMC4wMi0wLjA1LDAuMDQgICAgICAgIGMtMC4wMSwwLjAyLTAuMDIsMC4wNC0wLjAzLDAuMDZjLTAuMDEsMC4wMi0wLjAxLDAuMDUtMC4wMSwwLjA3YzAsMC4wMiwwLDAuMDUsMC4wMSwwLjA3YzAuMDEsMC4wMiwwLjAxLDAuMDQsMC4wMywwLjA2ICAgICAgICBjMC4wMSwwLjAyLDAuMDMsMC4wMywwLjA1LDAuMDRjMC4wMiwwLjAxLDAuMDQsMC4wMiwwLjA3LDAuMDJjMC4wMywwLDAuMDYtMC4wMSwwLjA5LTAuMDNjMC4wMi0wLjAyLDAuMDQtMC4wNiwwLjA0LTAuMDkgICAgICAgIGwwLjEyLDBjMCwwLjAzLTAuMDEsMC4wNi0wLjAyLDAuMDljLTAuMDEsMC4wMy0wLjAzLDAuMDUtMC4wNSwwLjA3Yy0wLjAyLDAuMDItMC4wNSwwLjAzLTAuMDcsMC4wNCAgICAgICAgYy0wLjAzLDAuMDEtMC4wNiwwLjAyLTAuMDksMC4wMmMtMC4wNCwwLTAuMDgtMC4wMS0wLjExLTAuMDJjLTAuMDMtMC4wMS0wLjA2LTAuMDMtMC4wOC0wLjA2Yy0wLjAyLTAuMDMtMC4wNC0wLjA2LTAuMDUtMC4wOSAgICAgICAgQzAuMDEsNzQuNjUsMCw3NC42MSwwLDc0LjU3YzAtMC4wNCwwLjAxLTAuMDgsMC4wMi0wLjExYzAuMDEtMC4wMywwLjAzLTAuMDYsMC4wNS0wLjA5YzAuMDItMC4wMywwLjA1LTAuMDUsMC4wOC0wLjA2ICAgICAgICBjMC4wNi0wLjAzLDAuMTMtMC4wMywwLjItMC4wMWMwLjAzLDAuMDEsMC4wNSwwLjAyLDAuMDcsMC4wNGMwLjAyLDAuMDIsMC4wNCwwLjA0LDAuMDUsMC4wNmMwLjAxLDAuMDMsMC4wMiwwLjA1LDAuMDMsMC4wOCAgICAgICAgbC0wLjEyLDBDMC4zOSw3NC40NywwLjM4LDc0LjQ2LDAuMzcsNzQuNDRMMC4zNyw3NC40NHoiLz4mI3hhOwkJCQkJPC9nPiYjeGE7CQkJCQk8ZyBpZD0ic2hhcGU3MDYtMTU1IiB0cmFuc2Zvcm09InRyYW5zbGF0ZSgyLjc0NjU4LC0wLjAxMDc1NjMpIj4mI3hhOwkJCQkJCTx0aXRsZSBpZD0idGl0bGU2NzY5NyI+U2hlZXQuNzA2PC90aXRsZT4mI3hhOwkJCQkJCTxwYXRoIGlkPSJwYXRoNjc2OTkiIGlua3NjYXBlOmNvbm5lY3Rvci1jdXJ2YXR1cmU9IjAiIHN0eWxlPSJmaWxsOiNGRkZGRkY7IiBkPSJNMCw3NC40MXYtMC4xaDAuNDV2MC4xSDAuMjh2MC40NUgwLjE2di0wLjQ1ICAgICAgICBIMHoiLz4mI3hhOwkJCQkJPC9nPiYjeGE7CQkJCTwvZz4mI3hhOwkJCTwvZz4mI3hhOwkJCTxnIGlkPSJncm91cDcwNy0xNTciIHRyYW5zZm9ybT0idHJhbnNsYXRlKDMwLjQ4MzEsLTU1Ljk0MDMpIj4mI3hhOwkJCQk8dGl0bGUgaWQ9InRpdGxlNjc3MDQiPlhNTCBGaWxlPC90aXRsZT4mI3hhOwkJCQk8ZyBpZD0iZ3JvdXA3MDgtMTU4Ij4mI3hhOwkJCQkJPHRpdGxlIGlkPSJ0aXRsZTY3NzA2Ij5TaGVldC43MDg8L3RpdGxlPiYjeGE7CQkJCQk8ZyBpZD0ic2hhcGU3MDktMTU5Ij4mI3hhOwkJCQkJCTx0aXRsZSBpZD0idGl0bGU2NzcwOCI+U2hlZXQuNzA5PC90aXRsZT4mI3hhOwkJCQkJCTxwYXRoIGlkPSJwYXRoNjc3MTAiIGlua3NjYXBlOmNvbm5lY3Rvci1jdXJ2YXR1cmU9IjAiIHN0eWxlPSJmaWxsOiNFOUU5RTA7IiBkPSJNMi42Nyw2OS45SDAuMTNDMC4wNiw2OS45LDAsNjkuOTYsMCw3MC4wNyAgICAgICAgdjQuN2MwLDAuMDMsMC4wNiwwLjA5LDAuMTMsMC4wOWgzLjUxYzAuMDcsMCwwLjEzLTAuMDYsMC4xMy0wLjA5di0zLjcyYzAtMC4wNi0wLjAxLTAuMDgtMC4wMy0wLjFsLTEuMDItMS4wMyAgICAgICAgQzIuNzEsNjkuOTEsMi42OSw2OS45LDIuNjcsNjkuOXoiLz4mI3hhOwkJCQkJPC9nPiYjeGE7CQkJCQk8ZyBpZD0ic2hhcGU3MTAtMTYxIiB0cmFuc2Zvcm09InRyYW5zbGF0ZSgyLjcxNDc3LC0zLjg5MjY0KSI+JiN4YTsJCQkJCQk8dGl0bGUgaWQ9InRpdGxlNjc3MTMiPlNoZWV0LjcxMDwvdGl0bGU+JiN4YTsJCQkJCQk8cGF0aCBpZD0icGF0aDY3NzE1IiBpbmtzY2FwZTpjb25uZWN0b3ItY3VydmF0dXJlPSIwIiBzdHlsZT0iZmlsbDojRDlEN0NBOyIgZD0iTTAsNzMuODF2MS4wNWgxLjA0TDAsNzMuODF6Ii8+JiN4YTsJCQkJCTwvZz4mI3hhOwkJCQkJPGcgaWQ9InNoYXBlNzExLTE2MyI+JiN4YTsJCQkJCQk8dGl0bGUgaWQ9InRpdGxlNjc3MTgiPlNoZWV0LjcxMTwvdGl0bGU+JiN4YTsJCQkJCQk8cGF0aCBpZD0icGF0aDY3NzIwIiBpbmtzY2FwZTpjb25uZWN0b3ItY3VydmF0dXJlPSIwIiBzdHlsZT0iZmlsbDojNEJBQ0M2OyIgZD0iTTMuNjQsNzQuODZIMC4xM0MwLjA2LDc0Ljg2LDAsNzQuOCwwLDc0LjczICAgICAgICB2LTEuMzhoMy43N3YxLjM4QzMuNzcsNzQuOCwzLjcxLDc0Ljg2LDMuNjQsNzQuODZ6Ii8+JiN4YTsJCQkJCTwvZz4mI3hhOwkJCQkJPGcgaWQ9Imdyb3VwNzEyLTE2NSIgdHJhbnNmb3JtPSJ0cmFuc2xhdGUoMC43MDE2MzgsLTAuMjY1NDA3KSI+JiN4YTsJCQkJCQk8dGl0bGUgaWQ9InRpdGxlNjc3MjMiPlNoZWV0LjcxMjwvdGl0bGU+JiN4YTsJCQkJCQk8ZyBpZD0ic2hhcGU3MTMtMTY2Ij4mI3hhOwkJCQkJCQk8dGl0bGUgaWQ9InRpdGxlNjc3MjUiPlNoZWV0LjcxMzwvdGl0bGU+JiN4YTsJCQkJCQkJPHBhdGggaWQ9InBhdGg2NzcyNyIgaW5rc2NhcGU6Y29ubmVjdG9yLWN1cnZhdHVyZT0iMCIgc3R5bGU9ImZpbGw6I0ZGRkZGRjsiIGQ9Ik0wLjQzLDc0LjQybDAuMjIsMC40NEgwLjQ4bC0wLjE0LTAuMzRIMC4zMyAgICAgICAgIGwtMC4xNSwwLjM0SDAuMDFsMC4yMy0wLjQ0TDAsNzMuOTZoMC4xNmwwLjE2LDAuMzdoMC4wMWwwLjE3LTAuMzdoMC4xNkwwLjQzLDc0LjQyeiIvPiYjeGE7CQkJCQkJPC9nPiYjeGE7CQkJCQkJPGcgaWQ9InNoYXBlNzE0LTE2OCIgdHJhbnNmb3JtPSJ0cmFuc2xhdGUoMC44NjE5ODQpIj4mI3hhOwkJCQkJCQk8dGl0bGUgaWQ9InRpdGxlNjc3MzAiPlNoZWV0LjcxNDwvdGl0bGU+JiN4YTsJCQkJCQkJPHBhdGggaWQ9InBhdGg2NzczMiIgaW5rc2NhcGU6Y29ubmVjdG9yLWN1cnZhdHVyZT0iMCIgc3R5bGU9ImZpbGw6I0ZGRkZGRjsiIGQ9Ik0wLjY3LDczLjk2aDAuMTV2MC45SDAuNjd2LTAuNjJsLTAuMiwwLjUgICAgICAgICBIMC4zNGwtMC4xOS0wLjV2MC42Mkgwdi0wLjloMC4xNWwwLjI2LDAuNjFMMC42Nyw3My45NnoiLz4mI3hhOwkJCQkJCTwvZz4mI3hhOwkJCQkJCTxnIGlkPSJzaGFwZTcxNS0xNzAiIHRyYW5zZm9ybT0idHJhbnNsYXRlKDEuODk4ODUpIj4mI3hhOwkJCQkJCQk8dGl0bGUgaWQ9InRpdGxlNjc3MzUiPlNoZWV0LjcxNTwvdGl0bGU+JiN4YTsJCQkJCQkJPHBhdGggaWQ9InBhdGg2NzczNyIgaW5rc2NhcGU6Y29ubmVjdG9yLWN1cnZhdHVyZT0iMCIgc3R5bGU9ImZpbGw6I0ZGRkZGRjsiIGQ9Ik0wLjE1LDczLjk2djAuNzloMC40djAuMTFIMHYtMC45SDAuMTV6Ii8+JiN4YTsJCQkJCQk8L2c+JiN4YTsJCQkJCTwvZz4mI3hhOwkJCQkJPGcgaWQ9InNoYXBlNzE2LTE3MiIgdHJhbnNmb3JtPSJ0cmFuc2xhdGUoMC42OTIwMDQsLTIuODMxMDEpIj4mI3hhOwkJCQkJCTx0aXRsZSBpZD0idGl0bGU2Nzc0MSI+U2hlZXQuNzE2PC90aXRsZT4mI3hhOwkJCQkJCTxwYXRoIGlkPSJwYXRoNjc3NDMiIGlua3NjYXBlOmNvbm5lY3Rvci1jdXJ2YXR1cmU9IjAiIHN0eWxlPSJmaWxsOiM0QkFDQzY7IiBkPSJNMC4xLDc0Ljg2Yy0wLjAzLDAtMC4wNS0wLjAxLTAuMDctMC4wMyAgICAgICAgQzAsNzQuNzksMCw3NC43NCwwLjAzLDc0LjdsMC41My0wLjUzYzAuMDMtMC4wMywwLjA5LTAuMDMsMC4xMiwwYzAuMDQsMC4wNCwwLjA0LDAuMDksMCwwLjEzbC0wLjUyLDAuNTMgICAgICAgIEMwLjE0LDc0Ljg1LDAuMTIsNzQuODYsMC4xLDc0Ljg2eiIvPiYjeGE7CQkJCQk8L2c+JiN4YTsJCQkJCTxnIGlkPSJzaGFwZTcxNy0xNzQiIHRyYW5zZm9ybT0idHJhbnNsYXRlKDAuNjkyMDA0LC0yLjMwMDIpIj4mI3hhOwkJCQkJCTx0aXRsZSBpZD0idGl0bGU2Nzc0NiI+U2hlZXQuNzE3PC90aXRsZT4mI3hhOwkJCQkJCTxwYXRoIGlkPSJwYXRoNjc3NDgiIGlua3NjYXBlOmNvbm5lY3Rvci1jdXJ2YXR1cmU9IjAiIHN0eWxlPSJmaWxsOiM0QkFDQzY7IiBkPSJNMC42Miw3NC44NmMtMC4wMiwwLTAuMDQtMC4wMS0wLjA2LTAuMDMgICAgICAgIEwwLjAzLDc0LjNDMCw3NC4yNiwwLDc0LjIxLDAuMDMsNzQuMTdjMC4wNC0wLjAzLDAuMDktMC4wMywwLjEzLDBsMC41MiwwLjUzYzAuMDQsMC4wNCwwLjA0LDAuMDksMCwwLjEzICAgICAgICBDMC42Nyw3NC44NSwwLjY0LDc0Ljg2LDAuNjIsNzQuODZ6Ii8+JiN4YTsJCQkJCTwvZz4mI3hhOwkJCQkJPGcgaWQ9InNoYXBlNzE4LTE3NiIgdHJhbnNmb3JtPSJ0cmFuc2xhdGUoMi4yNjgzMiwtMi4zMDAyKSI+JiN4YTsJCQkJCQk8dGl0bGUgaWQ9InRpdGxlNjc3NTEiPlNoZWV0LjcxODwvdGl0bGU+JiN4YTsJCQkJCQk8cGF0aCBpZD0icGF0aDY3NzUzIiBpbmtzY2FwZTpjb25uZWN0b3ItY3VydmF0dXJlPSIwIiBzdHlsZT0iZmlsbDojNEJBQ0M2OyIgZD0iTTAuMSw3NC44NmMtMC4wMywwLTAuMDUtMC4wMS0wLjA3LTAuMDMgICAgICAgIEMwLDc0Ljc5LDAsNzQuNzQsMC4wMyw3NC43bDAuNTMtMC41M2MwLjAzLTAuMDMsMC4wOS0wLjAzLDAuMTIsMGMwLjA0LDAuMDQsMC4wNCwwLjA5LDAsMC4xM2wtMC41MiwwLjUzICAgICAgICBDMC4xNCw3NC44NSwwLjEyLDc0Ljg2LDAuMSw3NC44NnoiLz4mI3hhOwkJCQkJPC9nPiYjeGE7CQkJCQk8ZyBpZD0ic2hhcGU3MTktMTc4IiB0cmFuc2Zvcm09InRyYW5zbGF0ZSgyLjI2ODMyLC0yLjgzMTAxKSI+JiN4YTsJCQkJCQk8dGl0bGUgaWQ9InRpdGxlNjc3NTYiPlNoZWV0LjcxOTwvdGl0bGU+JiN4YTsJCQkJCQk8cGF0aCBpZD0icGF0aDY3NzU4IiBpbmtzY2FwZTpjb25uZWN0b3ItY3VydmF0dXJlPSIwIiBzdHlsZT0iZmlsbDojNEJBQ0M2OyIgZD0iTTAuNjIsNzQuODZjLTAuMDIsMC0wLjA0LTAuMDEtMC4wNi0wLjAzICAgICAgICBMMC4wMyw3NC4zQzAsNzQuMjYsMCw3NC4yMSwwLjAzLDc0LjE3YzAuMDQtMC4wMywwLjA5LTAuMDMsMC4xMywwbDAuNTIsMC41M2MwLjA0LDAuMDQsMC4wNCwwLjA5LDAsMC4xMyAgICAgICAgQzAuNjcsNzQuODUsMC42NCw3NC44NiwwLjYyLDc0Ljg2eiIvPiYjeGE7CQkJCQk8L2c+JiN4YTsJCQkJCTxnIGlkPSJzaGFwZTcyMC0xODAiIHRyYW5zZm9ybT0idHJhbnNsYXRlKDEuNDc3NjIsLTIuMTIzMjYpIj4mI3hhOwkJCQkJCTx0aXRsZSBpZD0idGl0bGU2Nzc2MSI+U2hlZXQuNzIwPC90aXRsZT4mI3hhOwkJCQkJCTxwYXRoIGlkPSJwYXRoNjc3NjMiIGlua3NjYXBlOmNvbm5lY3Rvci1jdXJ2YXR1cmU9IjAiIHN0eWxlPSJmaWxsOiM0QkFDQzY7IiBkPSJNMC4xLDc0Ljg2Yy0wLjAxLDAtMC4wMi0wLjAxLTAuMDMtMC4wMSAgICAgICAgQzAuMDIsNzQuODMsMCw3NC43OCwwLjAyLDc0Ljc0bDAuNTItMS41MWMwLjAyLTAuMDQsMC4wNy0wLjA3LDAuMTEtMC4wNWMwLjA1LDAuMDIsMC4wNywwLjA3LDAuMDYsMC4xMUwwLjE4LDc0LjggICAgICAgIEMwLjE3LDc0LjgzLDAuMTMsNzQuODYsMC4xLDc0Ljg2eiIvPiYjeGE7CQkJCQk8L2c+JiN4YTsJCQkJPC9nPiYjeGE7CQkJPC9nPiYjeGE7CQkJPGcgaWQ9Imdyb3VwNzIxLTE4MiIgdHJhbnNmb3JtPSJ0cmFuc2xhdGUoODAuNzA3NCwtMTEuNzQ5NykiPiYjeGE7CQkJCTx0aXRsZSBpZD0idGl0bGU2Nzc2OCI+ZzE2NDA4PC90aXRsZT4mI3hhOwkJCQk8ZyBpZD0ic2hhcGU3MjItMTgzIj4mI3hhOwkJCQkJPHRpdGxlIGlkPSJ0aXRsZTY3NzcwIj5yZWN0MTYzODA8L3RpdGxlPiYjeGE7CQkJCQkmI3hhOwkJCQkJCTxyZWN0IGlkPSJyZWN0Njc3NzIiIHg9IjAiIHk9IjY3LjM4IiBzdHlsZT0iZmlsbDojRkZGRkZGO3N0cm9rZTojNTU2QThBO3N0cm9rZS13aWR0aDowLjI1O3N0cm9rZS1taXRlcmxpbWl0OjM7IiB3aWR0aD0iNC4zNiIgaGVpZ2h0PSI3LjQ4Ii8+JiN4YTsJCQkJPC9nPiYjeGE7CQkJCTxnIGlkPSJncm91cDcyMy0xODUiIHRyYW5zZm9ybT0idHJhbnNsYXRlKDAuMTY0MzU4LC0wLjA4MjE3OTEpIj4mI3hhOwkJCQkJPHRpdGxlIGlkPSJ0aXRsZTY3Nzc1Ij5nMTY0MDA8L3RpdGxlPiYjeGE7CQkJCQk8ZyBpZD0ic2hhcGU3MjQtMTg2IiB0cmFuc2Zvcm09InRyYW5zbGF0ZSgxLjk3MjMpIj4mI3hhOwkJCQkJCTx0aXRsZSBpZD0idGl0bGU2Nzc3NyI+cmVjdDE2MzgyPC90aXRsZT4mI3hhOwkJCQkJCTxyZWN0IGlkPSJyZWN0Njc3NzkiIHg9IjAiIHk9IjY3LjU0IiBzdHlsZT0iZmlsbDojRTVFNUU1OyIgd2lkdGg9IjIuMTQiIGhlaWdodD0iNy4zMSIvPiYjeGE7CQkJCQk8L2c+JiN4YTsJCQkJCTxnIGlkPSJzaGFwZTcyNS0xODgiIHRyYW5zZm9ybT0idHJhbnNsYXRlKDAsLTUuMjU5NDcpIj4mI3hhOwkJCQkJCTx0aXRsZSBpZD0idGl0bGU2Nzc4MiI+cmVjdDE2Mzg0PC90aXRsZT4mI3hhOwkJCQkJCTxyZWN0IGlkPSJyZWN0Njc3ODQiIHg9IjAiIHk9Ijc0LjYxIiBzdHlsZT0iZmlsbDojMkJDN0Y0OyIgd2lkdGg9IjEuOTciIGhlaWdodD0iMC4yNSIvPiYjeGE7CQkJCQk8L2c+JiN4YTsJCQkJCTxnIGlkPSJzaGFwZTcyNi0xOTAiIHRyYW5zZm9ybT0idHJhbnNsYXRlKDAsLTYuNDA5OTcpIj4mI3hhOwkJCQkJCTx0aXRsZSBpZD0idGl0bGU2Nzc4NyI+cG9seWdvbjE2Mzg2PC90aXRsZT4mI3hhOwkJCQkJCTxyZWN0IGlkPSJyZWN0Njc3ODkiIHg9IjAiIHk9Ijc0LjYxIiBzdHlsZT0iZmlsbDpub25lOyIgd2lkdGg9IjIuOTYiIGhlaWdodD0iMC4yNSIvPiYjeGE7CQkJCQk8L2c+JiN4YTsJCQkJCTxnIGlkPSJzaGFwZTcyNy0xOTIiIHRyYW5zZm9ybT0idHJhbnNsYXRlKDAsLTYuNDA5OTcpIj4mI3hhOwkJCQkJCTx0aXRsZSBpZD0idGl0bGU2Nzc5MiI+cG9seWxpbmUxNjM4ODwvdGl0bGU+JiN4YTsJCQkJCQk8cmVjdCBpZD0icmVjdDY3Nzk0IiB4PSIwIiB5PSI3NC42MSIgc3R5bGU9ImZpbGw6bm9uZTsiIHdpZHRoPSIyLjk2IiBoZWlnaHQ9IjAuMjUiLz4mI3hhOwkJCQkJPC9nPiYjeGE7CQkJCQk8ZyBpZD0ic2hhcGU3MjgtMTk0IiB0cmFuc2Zvcm09InRyYW5zbGF0ZSgwLC01LjgzNDcyKSI+JiN4YTsJCQkJCQk8dGl0bGUgaWQ9InRpdGxlNjc3OTciPnJlY3QxNjM5MDwvdGl0bGU+JiN4YTsJCQkJCQk8cmVjdCBpZD0icmVjdDY3Nzk5IiB4PSIwIiB5PSI3NC42MSIgc3R5bGU9ImZpbGw6IzJCQzdGNDsiIHdpZHRoPSIxLjk3IiBoZWlnaHQ9IjAuMjUiLz4mI3hhOwkJCQkJPC9nPiYjeGE7CQkJCQk8ZyBpZD0ic2hhcGU3MjktMTk2IiB0cmFuc2Zvcm09InRyYW5zbGF0ZSgwLC02LjQwOTk3KSI+JiN4YTsJCQkJCQk8dGl0bGUgaWQ9InRpdGxlNjc4MDIiPnJlY3QxNjM5MjwvdGl0bGU+JiN4YTsJCQkJCQk8cmVjdCBpZD0icmVjdDY3ODA0IiB4PSIwIiB5PSI3NC42MSIgc3R5bGU9ImZpbGw6IzJCQzdGNDsiIHdpZHRoPSIxLjk3IiBoZWlnaHQ9IjAuMjUiLz4mI3hhOwkJCQkJPC9nPiYjeGE7CQkJCQk8ZyBpZD0ic2hhcGU3MzAtMTk4IiB0cmFuc2Zvcm09InRyYW5zbGF0ZSgxLjk3MjMsLTUuMjU5NDcpIj4mI3hhOwkJCQkJCTx0aXRsZSBpZD0idGl0bGU2NzgwNyI+cmVjdDE2Mzk0PC90aXRsZT4mI3hhOwkJCQkJCTxyZWN0IGlkPSJyZWN0Njc4MDkiIHg9IjAiIHk9Ijc0LjYxIiBzdHlsZT0iZmlsbDojNTU2QThBOyIgd2lkdGg9IjIuMTQiIGhlaWdodD0iMC4yNSIvPiYjeGE7CQkJCQk8L2c+JiN4YTsJCQkJCTxnIGlkPSJzaGFwZTczMS0yMDAiIHRyYW5zZm9ybT0idHJhbnNsYXRlKDEuOTcyMywtNS44MzQ3MikiPiYjeGE7CQkJCQkJPHRpdGxlIGlkPSJ0aXRsZTY3ODEyIj5yZWN0MTYzOTY8L3RpdGxlPiYjeGE7CQkJCQkJPHJlY3QgaWQ9InJlY3Q2NzgxNCIgeD0iMCIgeT0iNzQuNjEiIHN0eWxlPSJmaWxsOiM1NTZBOEE7IiB3aWR0aD0iMi4xNCIgaGVpZ2h0PSIwLjI1Ii8+JiN4YTsJCQkJCTwvZz4mI3hhOwkJCQkJPGcgaWQ9InNoYXBlNzMyLTIwMiIgdHJhbnNmb3JtPSJ0cmFuc2xhdGUoMS45NzIzLC02LjQwOTk3KSI+JiN4YTsJCQkJCQk8dGl0bGUgaWQ9InRpdGxlNjc4MTciPnJlY3QxNjM5ODwvdGl0bGU+JiN4YTsJCQkJCQk8cmVjdCBpZD0icmVjdDY3ODE5IiB4PSIwIiB5PSI3NC42MSIgc3R5bGU9ImZpbGw6IzU1NkE4QTsiIHdpZHRoPSIyLjE0IiBoZWlnaHQ9IjAuMjUiLz4mI3hhOwkJCQkJPC9nPiYjeGE7CQkJCTwvZz4mI3hhOwkJCQk8ZyBpZD0ic2hhcGU3MzMtMjA0IiB0cmFuc2Zvcm09InRyYW5zbGF0ZSgwLjA4MjE3OTEsLTYuNDkyMTUpIj4mI3hhOwkJCQkJPHRpdGxlIGlkPSJ0aXRsZTY3ODIzIj5yZWN0MTY0MDI8L3RpdGxlPiYjeGE7CQkJCQk8cmVjdCBpZD0icmVjdDY3ODI1IiB4PSIwIiB5PSI3NC42MSIgc3R5bGU9ImZpbGw6IzU1NkE4QTsiIHdpZHRoPSIwLjI1IiBoZWlnaHQ9IjAuMjUiLz4mI3hhOwkJCQk8L2c+JiN4YTsJCQkJPGcgaWQ9InNoYXBlNzM0LTIwNiIgdHJhbnNmb3JtPSJ0cmFuc2xhdGUoMC4wODIxNzkxLC01LjkxNjkpIj4mI3hhOwkJCQkJPHRpdGxlIGlkPSJ0aXRsZTY3ODI4Ij5yZWN0MTY0MDQ8L3RpdGxlPiYjeGE7CQkJCQk8cmVjdCBpZD0icmVjdDY3ODMwIiB4PSIwIiB5PSI3NC42MSIgc3R5bGU9ImZpbGw6IzU1NkE4QTsiIHdpZHRoPSIwLjI1IiBoZWlnaHQ9IjAuMjUiLz4mI3hhOwkJCQk8L2c+JiN4YTsJCQkJPGcgaWQ9InNoYXBlNzM1LTIwOCIgdHJhbnNmb3JtPSJ0cmFuc2xhdGUoMC4wODIxNzkxLC01LjM0MTY0KSI+JiN4YTsJCQkJCTx0aXRsZSBpZD0idGl0bGU2NzgzMyI+cmVjdDE2NDA2PC90aXRsZT4mI3hhOwkJCQkJPHJlY3QgaWQ9InJlY3Q2NzgzNSIgeD0iMCIgeT0iNzQuNjEiIHN0eWxlPSJmaWxsOiM1NTZBOEE7IiB3aWR0aD0iMC4yNSIgaGVpZ2h0PSIwLjI1Ii8+JiN4YTsJCQkJPC9nPiYjeGE7CQkJPC9nPiYjeGE7CQkJPGcgaWQ9Imdyb3VwNzM2LTIxMCIgdHJhbnNmb3JtPSJ0cmFuc2xhdGUoODEuNDM4LC0xNC44MzE3KSI+JiN4YTsJCQkJPHRpdGxlIGlkPSJ0aXRsZTY3ODM5Ij5nMTY0Mjg8L3RpdGxlPiYjeGE7CQkJCTxnIGlkPSJzaGFwZTczNy0yMTEiPiYjeGE7CQkJCQk8dGl0bGUgaWQ9InRpdGxlNjc4NDEiPnBhdGgxNjQyMjwvdGl0bGU+JiN4YTsJCQkJCTxyZWN0IGlkPSJyZWN0Njc4NDMiIHg9IjAiIHk9IjczLjU5IiBzdHlsZT0iZmlsbDojNTU2QThBOyIgd2lkdGg9IjAuMjIiIGhlaWdodD0iMS4yNyIvPiYjeGE7CQkJCTwvZz4mI3hhOwkJCQk8ZyBpZD0ic2hhcGU3MzgtMjEzIiB0cmFuc2Zvcm09InRyYW5zbGF0ZSgwLjUyNzU5KSI+JiN4YTsJCQkJCTx0aXRsZSBpZD0idGl0bGU2Nzg0NiI+cGF0aDE2NDI0PC90aXRsZT4mI3hhOwkJCQkJPHBhdGggaWQ9InBhdGg2Nzg0OCIgaW5rc2NhcGU6Y29ubmVjdG9yLWN1cnZhdHVyZT0iMCIgc3R5bGU9ImZpbGw6IzU1NkE4QTsiIGQ9Ik0wLDc0Ljg2di0xLjI3aDAuNCAgICAgICBjMC4xLTAuMDEsMC4yMSwwLjAyLDAuMjksMC4wOGMwLjA3LDAuMDUsMC4xMSwwLjEzLDAuMSwwLjIxYzAsMC4wNy0wLjAyLDAuMTMtMC4wNiwwLjE5Yy0wLjA0LDAuMDUtMC4xLDAuMDktMC4xNywwLjExICAgICAgIGMwLjA4LDAuMDEsMC4xNSwwLjA0LDAuMjEsMC4xYzAuMDUsMC4wNiwwLjA4LDAuMTMsMC4wOCwwLjIxYzAsMC4xLTAuMDUsMC4yLTAuMTMsMC4yNmMtMC4wOSwwLjA3LTAuMjEsMC4xLTAuMzIsMC4xTDAsNzQuODZ6ICAgICAgICBNMC4yMSw3My43NnYwLjM2aDAuMTRjMC4wNiwwLDAuMTItMC4wMSwwLjE3LTAuMDVjMC4wNC0wLjA0LDAuMDctMC4wOSwwLjA2LTAuMTVjMC0wLjExLTAuMDctMC4xNi0wLjIyLTAuMTZIMC4yMXogICAgICAgIE0wLjIxLDc0LjI5djAuNGgwLjE4YzAuMDcsMCwwLjEzLTAuMDIsMC4xOC0wLjA1YzAuMDQtMC4wNCwwLjA3LTAuMDksMC4wNi0wLjE1Yy0wLjAxLTAuMTQtMC4xLTAuMi0wLjI4LTAuMkgwLjIxeiIvPiYjeGE7CQkJCTwvZz4mI3hhOwkJCQk8ZyBpZD0ic2hhcGU3MzktMjE1IiB0cmFuc2Zvcm09InRyYW5zbGF0ZSgxLjYxOTc1KSI+JiN4YTsJCQkJCTx0aXRsZSBpZD0idGl0bGU2Nzg1MSI+cGF0aDE2NDI2PC90aXRsZT4mI3hhOwkJCQkJPHBhdGggaWQ9InBhdGg2Nzg1MyIgaW5rc2NhcGU6Y29ubmVjdG9yLWN1cnZhdHVyZT0iMCIgc3R5bGU9ImZpbGw6IzU1NkE4QTsiIGQ9Ik0xLjM2LDc0Ljg2SDEuMTV2LTAuODMgICAgICAgYzAtMC4wNiwwLjAxLTAuMTUsMC4wMS0wLjI0Yy0wLjAxLDAuMDQtMC4wMiwwLjA4LTAuMDMsMC4xMmwtMC4zOCwwLjk0SDAuNjFsLTAuMzgtMC45NGMtMC4wMS0wLjA0LTAuMDMtMC4wOC0wLjAzLTAuMTMgICAgICAgYzAsMC4wNiwwLDAuMTQsMCwwLjI1djAuODJIMHYtMS4yNmgwLjNsMC4zMiwwLjg0YzAuMDIsMC4wNSwwLjA0LDAuMSwwLjA1LDAuMTVoMC4wMWMwLjAyLTAuMDcsMC4wNC0wLjEyLDAuMDUtMC4xNWwwLjM0LTAuODQgICAgICAgaDAuMjlWNzQuODZ6Ii8+JiN4YTsJCQkJPC9nPiYjeGE7CQkJPC9nPiYjeGE7CQkJPGcgaWQ9Imdyb3VwNzQwLTIxNyIgdHJhbnNmb3JtPSJ0cmFuc2xhdGUoODMuNjkyMywtNi44NTkyMSkiPiYjeGE7CQkJCTx0aXRsZSBpZD0idGl0bGU2Nzg1NyI+U2hlZXQuNzQwPC90aXRsZT4mI3hhOwkJCQk8ZyBpZD0iZ3JvdXA3NDEtMjE4Ij4mI3hhOwkJCQkJPHRpdGxlIGlkPSJ0aXRsZTY3ODU5Ij5nMTY0MDg8L3RpdGxlPiYjeGE7CQkJCQk8ZyBpZD0ic2hhcGU3NDItMjE5Ij4mI3hhOwkJCQkJCTx0aXRsZSBpZD0idGl0bGU2Nzg2MSI+cmVjdDE2MzgwPC90aXRsZT4mI3hhOwkJCQkJCSYjeGE7CQkJCQkJCTxyZWN0IGlkPSJyZWN0Njc4NjMiIHg9IjAiIHk9IjY3LjM4IiBzdHlsZT0iZmlsbDojRkZGRkZGO3N0cm9rZTojNTU2QThBO3N0cm9rZS13aWR0aDowLjI1O3N0cm9rZS1taXRlcmxpbWl0OjM7IiB3aWR0aD0iNC4zNiIgaGVpZ2h0PSI3LjQ4Ii8+JiN4YTsJCQkJCTwvZz4mI3hhOwkJCQkJPGcgaWQ9Imdyb3VwNzQzLTIyMSIgdHJhbnNmb3JtPSJ0cmFuc2xhdGUoMC4xNjQzNTgsLTAuMDgyMTc5MSkiPiYjeGE7CQkJCQkJPHRpdGxlIGlkPSJ0aXRsZTY3ODY2Ij5nMTY0MDA8L3RpdGxlPiYjeGE7CQkJCQkJPGcgaWQ9InNoYXBlNzQ0LTIyMiIgdHJhbnNmb3JtPSJ0cmFuc2xhdGUoMS45NzIzKSI+JiN4YTsJCQkJCQkJPHRpdGxlIGlkPSJ0aXRsZTY3ODY4Ij5yZWN0MTYzODI8L3RpdGxlPiYjeGE7CQkJCQkJCTxyZWN0IGlkPSJyZWN0Njc4NzAiIHg9IjAiIHk9IjY3LjU0IiBzdHlsZT0iZmlsbDojRTVFNUU1OyIgd2lkdGg9IjIuMTQiIGhlaWdodD0iNy4zMSIvPiYjeGE7CQkJCQkJPC9nPiYjeGE7CQkJCQkJPGcgaWQ9InNoYXBlNzQ1LTIyNCIgdHJhbnNmb3JtPSJ0cmFuc2xhdGUoMCwtNS4yNTk0NykiPiYjeGE7CQkJCQkJCTx0aXRsZSBpZD0idGl0bGU2Nzg3MyI+cmVjdDE2Mzg0PC90aXRsZT4mI3hhOwkJCQkJCQk8cmVjdCBpZD0icmVjdDY3ODc1IiB4PSIwIiB5PSI3NC42MSIgc3R5bGU9ImZpbGw6IzJCQzdGNDsiIHdpZHRoPSIxLjk3IiBoZWlnaHQ9IjAuMjUiLz4mI3hhOwkJCQkJCTwvZz4mI3hhOwkJCQkJCTxnIGlkPSJzaGFwZTc0Ni0yMjYiIHRyYW5zZm9ybT0idHJhbnNsYXRlKDAsLTYuNDA5OTcpIj4mI3hhOwkJCQkJCQk8dGl0bGUgaWQ9InRpdGxlNjc4NzgiPnBvbHlnb24xNjM4NjwvdGl0bGU+JiN4YTsJCQkJCQkJPHJlY3QgaWQ9InJlY3Q2Nzg4MCIgeD0iMCIgeT0iNzQuNjEiIHN0eWxlPSJmaWxsOm5vbmU7IiB3aWR0aD0iMi45NiIgaGVpZ2h0PSIwLjI1Ii8+JiN4YTsJCQkJCQk8L2c+JiN4YTsJCQkJCQk8ZyBpZD0ic2hhcGU3NDctMjI4IiB0cmFuc2Zvcm09InRyYW5zbGF0ZSgwLC02LjQwOTk3KSI+JiN4YTsJCQkJCQkJPHRpdGxlIGlkPSJ0aXRsZTY3ODgzIj5wb2x5bGluZTE2Mzg4PC90aXRsZT4mI3hhOwkJCQkJCQk8cmVjdCBpZD0icmVjdDY3ODg1IiB4PSIwIiB5PSI3NC42MSIgc3R5bGU9ImZpbGw6bm9uZTsiIHdpZHRoPSIyLjk2IiBoZWlnaHQ9IjAuMjUiLz4mI3hhOwkJCQkJCTwvZz4mI3hhOwkJCQkJCTxnIGlkPSJzaGFwZTc0OC0yMzAiIHRyYW5zZm9ybT0idHJhbnNsYXRlKDAsLTUuODM0NzIpIj4mI3hhOwkJCQkJCQk8dGl0bGUgaWQ9InRpdGxlNjc4ODgiPnJlY3QxNjM5MDwvdGl0bGU+JiN4YTsJCQkJCQkJPHJlY3QgaWQ9InJlY3Q2Nzg5MCIgeD0iMCIgeT0iNzQuNjEiIHN0eWxlPSJmaWxsOiMyQkM3RjQ7IiB3aWR0aD0iMS45NyIgaGVpZ2h0PSIwLjI1Ii8+JiN4YTsJCQkJCQk8L2c+JiN4YTsJCQkJCQk8ZyBpZD0ic2hhcGU3NDktMjMyIiB0cmFuc2Zvcm09InRyYW5zbGF0ZSgwLC02LjQwOTk3KSI+JiN4YTsJCQkJCQkJPHRpdGxlIGlkPSJ0aXRsZTY3ODkzIj5yZWN0MTYzOTI8L3RpdGxlPiYjeGE7CQkJCQkJCTxyZWN0IGlkPSJyZWN0Njc4OTUiIHg9IjAiIHk9Ijc0LjYxIiBzdHlsZT0iZmlsbDojMkJDN0Y0OyIgd2lkdGg9IjEuOTciIGhlaWdodD0iMC4yNSIvPiYjeGE7CQkJCQkJPC9nPiYjeGE7CQkJCQkJPGcgaWQ9InNoYXBlNzUwLTIzNCIgdHJhbnNmb3JtPSJ0cmFuc2xhdGUoMS45NzIzLC01LjI1OTQ3KSI+JiN4YTsJCQkJCQkJPHRpdGxlIGlkPSJ0aXRsZTY3ODk4Ij5yZWN0MTYzOTQ8L3RpdGxlPiYjeGE7CQkJCQkJCTxyZWN0IGlkPSJyZWN0Njc5MDAiIHg9IjAiIHk9Ijc0LjYxIiBzdHlsZT0iZmlsbDojNTU2QThBOyIgd2lkdGg9IjIuMTQiIGhlaWdodD0iMC4yNSIvPiYjeGE7CQkJCQkJPC9nPiYjeGE7CQkJCQkJPGcgaWQ9InNoYXBlNzUxLTIzNiIgdHJhbnNmb3JtPSJ0cmFuc2xhdGUoMS45NzIzLC01LjgzNDcyKSI+JiN4YTsJCQkJCQkJPHRpdGxlIGlkPSJ0aXRsZTY3OTAzIj5yZWN0MTYzOTY8L3RpdGxlPiYjeGE7CQkJCQkJCTxyZWN0IGlkPSJyZWN0Njc5MDUiIHg9IjAiIHk9Ijc0LjYxIiBzdHlsZT0iZmlsbDojNTU2QThBOyIgd2lkdGg9IjIuMTQiIGhlaWdodD0iMC4yNSIvPiYjeGE7CQkJCQkJPC9nPiYjeGE7CQkJCQkJPGcgaWQ9InNoYXBlNzUyLTIzOCIgdHJhbnNmb3JtPSJ0cmFuc2xhdGUoMS45NzIzLC02LjQwOTk3KSI+JiN4YTsJCQkJCQkJPHRpdGxlIGlkPSJ0aXRsZTY3OTA4Ij5yZWN0MTYzOTg8L3RpdGxlPiYjeGE7CQkJCQkJCTxyZWN0IGlkPSJyZWN0Njc5MTAiIHg9IjAiIHk9Ijc0LjYxIiBzdHlsZT0iZmlsbDojNTU2QThBOyIgd2lkdGg9IjIuMTQiIGhlaWdodD0iMC4yNSIvPiYjeGE7CQkJCQkJPC9nPiYjeGE7CQkJCQk8L2c+JiN4YTsJCQkJCTxnIGlkPSJzaGFwZTc1My0yNDAiIHRyYW5zZm9ybT0idHJhbnNsYXRlKDAuMDgyMTc5MSwtNi40OTIxNSkiPiYjeGE7CQkJCQkJPHRpdGxlIGlkPSJ0aXRsZTY3OTE0Ij5yZWN0MTY0MDI8L3RpdGxlPiYjeGE7CQkJCQkJPHJlY3QgaWQ9InJlY3Q2NzkxNiIgeD0iMCIgeT0iNzQuNjEiIHN0eWxlPSJmaWxsOiM1NTZBOEE7IiB3aWR0aD0iMC4yNSIgaGVpZ2h0PSIwLjI1Ii8+JiN4YTsJCQkJCTwvZz4mI3hhOwkJCQkJPGcgaWQ9InNoYXBlNzU0LTI0MiIgdHJhbnNmb3JtPSJ0cmFuc2xhdGUoMC4wODIxNzkxLC01LjkxNjkpIj4mI3hhOwkJCQkJCTx0aXRsZSBpZD0idGl0bGU2NzkxOSI+cmVjdDE2NDA0PC90aXRsZT4mI3hhOwkJCQkJCTxyZWN0IGlkPSJyZWN0Njc5MjEiIHg9IjAiIHk9Ijc0LjYxIiBzdHlsZT0iZmlsbDojNTU2QThBOyIgd2lkdGg9IjAuMjUiIGhlaWdodD0iMC4yNSIvPiYjeGE7CQkJCQk8L2c+JiN4YTsJCQkJCTxnIGlkPSJzaGFwZTc1NS0yNDQiIHRyYW5zZm9ybT0idHJhbnNsYXRlKDAuMDgyMTc5MSwtNS4zNDE2NCkiPiYjeGE7CQkJCQkJPHRpdGxlIGlkPSJ0aXRsZTY3OTI0Ij5yZWN0MTY0MDY8L3RpdGxlPiYjeGE7CQkJCQkJPHJlY3QgaWQ9InJlY3Q2NzkyNiIgeD0iMCIgeT0iNzQuNjEiIHN0eWxlPSJmaWxsOiM1NTZBOEE7IiB3aWR0aD0iMC4yNSIgaGVpZ2h0PSIwLjI1Ii8+JiN4YTsJCQkJCTwvZz4mI3hhOwkJCQk8L2c+JiN4YTsJCQk8L2c+JiN4YTsJCQk8ZyBpZD0iZ3JvdXA3NTYtMjQ2IiB0cmFuc2Zvcm09InRyYW5zbGF0ZSg4Ni4yNTc1LC05LjM0NjM3KSI+JiN4YTsJCQkJPHRpdGxlIGlkPSJ0aXRsZTY3OTMxIj5TQVA8L3RpdGxlPiYjeGE7CQkJCTxnIGlkPSJzaGFwZTc1Ny0yNDciIHRyYW5zZm9ybT0idHJhbnNsYXRlKDAsLTAuMDAyMjE1ODgpIj4mI3hhOwkJCQkJPHRpdGxlIGlkPSJ0aXRsZTY3OTMzIj5wYXRoMjUwMzA8L3RpdGxlPiYjeGE7CQkJCQk8cGF0aCBpZD0icGF0aDY3OTM1IiBpbmtzY2FwZTpjb25uZWN0b3ItY3VydmF0dXJlPSIwIiBzdHlsZT0iZmlsbDojMDE0MTg1OyIgZD0iTTAsNzQuODZoMS41bDEuNDgtMS40OEgwVjc0Ljg2eiIvPiYjeGE7CQkJCTwvZz4mI3hhOwkJCQk8ZyBpZD0ic2hhcGU3NTgtMjQ5IiB0cmFuc2Zvcm09InRyYW5zbGF0ZSgwLjA0MDgxOTQsLTAuMjcyMjY1KSI+JiN4YTsJCQkJCTx0aXRsZSBpZD0idGl0bGU2NzkzOCI+cGF0aDI1MDMyPC90aXRsZT4mI3hhOwkJCQkJPHBhdGggaWQ9InBhdGg2Nzk0MCIgaW5rc2NhcGU6Y29ubmVjdG9yLWN1cnZhdHVyZT0iMCIgc3R5bGU9ImZpbGw6I0ZGRkZGRjsiIGQ9Ik0xLjczLDczLjkzaC0wLjN2MC43bC0wLjI1LTAuN0gwLjkzICAgICAgIGwtMC4yMiwwLjU4Yy0wLjAzLTAuMTUtMC4xOC0wLjItMC4zLTAuMjNjLTAuMDgtMC4wMy0wLjE3LTAuMDctMC4xNi0wLjExYzAtMC4wMywwLjA0LTAuMDYsMC4xMy0wLjA2ICAgICAgIGMwLjA2LDAsMC4xMSwwLjAxLDAuMjEsMC4wNmwwLjExLTAuMThjLTAuMS0wLjA1LTAuMjMtMC4wOC0wLjMzLTAuMDhjLTAuMTMsMC0wLjI0LDAuMDQtMC4zLDAuMTFDMC4wMyw3NC4wNywwLDc0LjEzLDAsNzQuMTkgICAgICAgYzAsMC4wOSwwLjAzLDAuMTUsMC4xLDAuMjFjMC4wNiwwLjA0LDAuMTMsMC4wNywwLjIsMC4wOWMwLjA4LDAuMDIsMC4xNSwwLjA0LDAuMTUsMC4wOWMwLDAuMDItMC4wMSwwLjAzLTAuMDIsMC4wNSAgICAgICBjLTAuMDIsMC4wMi0wLjA1LDAuMDMtMC4xLDAuMDNjLTAuMDgsMC0wLjE0LTAuMDItMC4yNC0wLjA3TDAsNzQuNzdjMC4xLDAuMDUsMC4yMiwwLjA5LDAuMzMsMC4wOWgwLjAyICAgICAgIGMwLjEtMC4wMSwwLjE5LTAuMDQsMC4yNS0wLjA5YzAuMDEsMCwwLjAxLTAuMDEsMC4wMS0wLjAxbC0wLjAzLDAuMDhoMC4yN2wwLjA0LTAuMTRjMC4wNSwwLjAyLDAuMSwwLjAzLDAuMTYsMC4wMyAgICAgICBzMC4xLTAuMDEsMC4xNS0wLjAybDAuMDUsMC4xM2gwLjQzdi0wLjI4aDAuMWMwLjIzLDAsMC4zNi0wLjEyLDAuMzYtMC4zMUMyLjE0LDc0LjAzLDIuMDEsNzMuOTMsMS43Myw3My45M3ogTTEuMDUsNzQuNTMgICAgICAgYy0wLjA0LDAtMC4wNi0wLjAxLTAuMDktMC4wMmwwLjA5LTAuM2wwLjA5LDAuM0MxLjExLDc0LjUyLDEuMDgsNzQuNTMsMS4wNSw3NC41M3ogTTEuNzQsNzQuMzZIMS42OHYtMC4yNGgwLjA2ICAgICAgIGMwLjA5LDAsMC4xNiwwLjAzLDAuMTYsMC4xMkMxLjksNzQuMzMsMS44Myw3NC4zNiwxLjc0LDc0LjM2eiIvPiYjeGE7CQkJCTwvZz4mI3hhOwkJCTwvZz4mI3hhOwkJCTxnIGlkPSJncm91cDc1OS0yNTEiIHRyYW5zZm9ybT0idHJhbnNsYXRlKDc4LjAxODEsLTYuODU5MjEpIj4mI3hhOwkJCQk8dGl0bGUgaWQ9InRpdGxlNjc5NDQiPlNoZWV0Ljc1OTwvdGl0bGU+JiN4YTsJCQkJPGcgaWQ9Imdyb3VwNzYwLTI1MiI+JiN4YTsJCQkJCTx0aXRsZSBpZD0idGl0bGU2Nzk0NiI+ZzE2NDA4PC90aXRsZT4mI3hhOwkJCQkJPGcgaWQ9InNoYXBlNzYxLTI1MyI+JiN4YTsJCQkJCQk8dGl0bGUgaWQ9InRpdGxlNjc5NDgiPnJlY3QxNjM4MDwvdGl0bGU+JiN4YTsJCQkJCQkmI3hhOwkJCQkJCQk8cmVjdCBpZD0icmVjdDY3OTUwIiB4PSIwIiB5PSI2Ny4zOCIgc3R5bGU9ImZpbGw6I0ZGRkZGRjtzdHJva2U6IzU1NkE4QTtzdHJva2Utd2lkdGg6MC4yNTtzdHJva2UtbWl0ZXJsaW1pdDozOyIgd2lkdGg9IjQuMzYiIGhlaWdodD0iNy40OCIvPiYjeGE7CQkJCQk8L2c+JiN4YTsJCQkJCTxnIGlkPSJncm91cDc2Mi0yNTUiIHRyYW5zZm9ybT0idHJhbnNsYXRlKDAuMTY0MzU4LC0wLjA4MjE3OTEpIj4mI3hhOwkJCQkJCTx0aXRsZSBpZD0idGl0bGU2Nzk1MyI+ZzE2NDAwPC90aXRsZT4mI3hhOwkJCQkJCTxnIGlkPSJzaGFwZTc2My0yNTYiIHRyYW5zZm9ybT0idHJhbnNsYXRlKDEuOTcyMykiPiYjeGE7CQkJCQkJCTx0aXRsZSBpZD0idGl0bGU2Nzk1NSI+cmVjdDE2MzgyPC90aXRsZT4mI3hhOwkJCQkJCQk8cmVjdCBpZD0icmVjdDY3OTU3IiB4PSIwIiB5PSI2Ny41NCIgc3R5bGU9ImZpbGw6I0U1RTVFNTsiIHdpZHRoPSIyLjE0IiBoZWlnaHQ9IjcuMzEiLz4mI3hhOwkJCQkJCTwvZz4mI3hhOwkJCQkJCTxnIGlkPSJzaGFwZTc2NC0yNTgiIHRyYW5zZm9ybT0idHJhbnNsYXRlKDAsLTUuMjU5NDcpIj4mI3hhOwkJCQkJCQk8dGl0bGUgaWQ9InRpdGxlNjc5NjAiPnJlY3QxNjM4NDwvdGl0bGU+JiN4YTsJCQkJCQkJPHJlY3QgaWQ9InJlY3Q2Nzk2MiIgeD0iMCIgeT0iNzQuNjEiIHN0eWxlPSJmaWxsOiMyQkM3RjQ7IiB3aWR0aD0iMS45NyIgaGVpZ2h0PSIwLjI1Ii8+JiN4YTsJCQkJCQk8L2c+JiN4YTsJCQkJCQk8ZyBpZD0ic2hhcGU3NjUtMjYwIiB0cmFuc2Zvcm09InRyYW5zbGF0ZSgwLC02LjQwOTk3KSI+JiN4YTsJCQkJCQkJPHRpdGxlIGlkPSJ0aXRsZTY3OTY1Ij5wb2x5Z29uMTYzODY8L3RpdGxlPiYjeGE7CQkJCQkJCTxyZWN0IGlkPSJyZWN0Njc5NjciIHg9IjAiIHk9Ijc0LjYxIiBzdHlsZT0iZmlsbDpub25lOyIgd2lkdGg9IjIuOTYiIGhlaWdodD0iMC4yNSIvPiYjeGE7CQkJCQkJPC9nPiYjeGE7CQkJCQkJPGcgaWQ9InNoYXBlNzY2LTI2MiIgdHJhbnNmb3JtPSJ0cmFuc2xhdGUoMCwtNi40MDk5NykiPiYjeGE7CQkJCQkJCTx0aXRsZSBpZD0idGl0bGU2Nzk3MCI+cG9seWxpbmUxNjM4ODwvdGl0bGU+JiN4YTsJCQkJCQkJPHJlY3QgaWQ9InJlY3Q2Nzk3MiIgeD0iMCIgeT0iNzQuNjEiIHN0eWxlPSJmaWxsOm5vbmU7IiB3aWR0aD0iMi45NiIgaGVpZ2h0PSIwLjI1Ii8+JiN4YTsJCQkJCQk8L2c+JiN4YTsJCQkJCQk8ZyBpZD0ic2hhcGU3NjctMjY0IiB0cmFuc2Zvcm09InRyYW5zbGF0ZSgwLC01LjgzNDcyKSI+JiN4YTsJCQkJCQkJPHRpdGxlIGlkPSJ0aXRsZTY3OTc1Ij5yZWN0MTYzOTA8L3RpdGxlPiYjeGE7CQkJCQkJCTxyZWN0IGlkPSJyZWN0Njc5NzciIHg9IjAiIHk9Ijc0LjYxIiBzdHlsZT0iZmlsbDojMkJDN0Y0OyIgd2lkdGg9IjEuOTciIGhlaWdodD0iMC4yNSIvPiYjeGE7CQkJCQkJPC9nPiYjeGE7CQkJCQkJPGcgaWQ9InNoYXBlNzY4LTI2NiIgdHJhbnNmb3JtPSJ0cmFuc2xhdGUoMCwtNi40MDk5NykiPiYjeGE7CQkJCQkJCTx0aXRsZSBpZD0idGl0bGU2Nzk4MCI+cmVjdDE2MzkyPC90aXRsZT4mI3hhOwkJCQkJCQk8cmVjdCBpZD0icmVjdDY3OTgyIiB4PSIwIiB5PSI3NC42MSIgc3R5bGU9ImZpbGw6IzJCQzdGNDsiIHdpZHRoPSIxLjk3IiBoZWlnaHQ9IjAuMjUiLz4mI3hhOwkJCQkJCTwvZz4mI3hhOwkJCQkJCTxnIGlkPSJzaGFwZTc2OS0yNjgiIHRyYW5zZm9ybT0idHJhbnNsYXRlKDEuOTcyMywtNS4yNTk0NykiPiYjeGE7CQkJCQkJCTx0aXRsZSBpZD0idGl0bGU2Nzk4NSI+cmVjdDE2Mzk0PC90aXRsZT4mI3hhOwkJCQkJCQk8cmVjdCBpZD0icmVjdDY3OTg3IiB4PSIwIiB5PSI3NC42MSIgc3R5bGU9ImZpbGw6IzU1NkE4QTsiIHdpZHRoPSIyLjE0IiBoZWlnaHQ9IjAuMjUiLz4mI3hhOwkJCQkJCTwvZz4mI3hhOwkJCQkJCTxnIGlkPSJzaGFwZTc3MC0yNzAiIHRyYW5zZm9ybT0idHJhbnNsYXRlKDEuOTcyMywtNS44MzQ3MikiPiYjeGE7CQkJCQkJCTx0aXRsZSBpZD0idGl0bGU2Nzk5MCI+cmVjdDE2Mzk2PC90aXRsZT4mI3hhOwkJCQkJCQk8cmVjdCBpZD0icmVjdDY3OTkyIiB4PSIwIiB5PSI3NC42MSIgc3R5bGU9ImZpbGw6IzU1NkE4QTsiIHdpZHRoPSIyLjE0IiBoZWlnaHQ9IjAuMjUiLz4mI3hhOwkJCQkJCTwvZz4mI3hhOwkJCQkJCTxnIGlkPSJzaGFwZTc3MS0yNzIiIHRyYW5zZm9ybT0idHJhbnNsYXRlKDEuOTcyMywtNi40MDk5NykiPiYjeGE7CQkJCQkJCTx0aXRsZSBpZD0idGl0bGU2Nzk5NSI+cmVjdDE2Mzk4PC90aXRsZT4mI3hhOwkJCQkJCQk8cmVjdCBpZD0icmVjdDY3OTk3IiB4PSIwIiB5PSI3NC42MSIgc3R5bGU9ImZpbGw6IzU1NkE4QTsiIHdpZHRoPSIyLjE0IiBoZWlnaHQ9IjAuMjUiLz4mI3hhOwkJCQkJCTwvZz4mI3hhOwkJCQkJPC9nPiYjeGE7CQkJCQk8ZyBpZD0ic2hhcGU3NzItMjc0IiB0cmFuc2Zvcm09InRyYW5zbGF0ZSgwLjA4MjE3OTEsLTYuNDkyMTUpIj4mI3hhOwkJCQkJCTx0aXRsZSBpZD0idGl0bGU2ODAwMSI+cmVjdDE2NDAyPC90aXRsZT4mI3hhOwkJCQkJCTxyZWN0IGlkPSJyZWN0NjgwMDMiIHg9IjAiIHk9Ijc0LjYxIiBzdHlsZT0iZmlsbDojNTU2QThBOyIgd2lkdGg9IjAuMjUiIGhlaWdodD0iMC4yNSIvPiYjeGE7CQkJCQk8L2c+JiN4YTsJCQkJCTxnIGlkPSJzaGFwZTc3My0yNzYiIHRyYW5zZm9ybT0idHJhbnNsYXRlKDAuMDgyMTc5MSwtNS45MTY5KSI+JiN4YTsJCQkJCQk8dGl0bGUgaWQ9InRpdGxlNjgwMDYiPnJlY3QxNjQwNDwvdGl0bGU+JiN4YTsJCQkJCQk8cmVjdCBpZD0icmVjdDY4MDA4IiB4PSIwIiB5PSI3NC42MSIgc3R5bGU9ImZpbGw6IzU1NkE4QTsiIHdpZHRoPSIwLjI1IiBoZWlnaHQ9IjAuMjUiLz4mI3hhOwkJCQkJPC9nPiYjeGE7CQkJCQk8ZyBpZD0ic2hhcGU3NzQtMjc4IiB0cmFuc2Zvcm09InRyYW5zbGF0ZSgwLjA4MjE3OTEsLTUuMzQxNjQpIj4mI3hhOwkJCQkJCTx0aXRsZSBpZD0idGl0bGU2ODAxMSI+cmVjdDE2NDA2PC90aXRsZT4mI3hhOwkJCQkJCTxyZWN0IGlkPSJyZWN0NjgwMTMiIHg9IjAiIHk9Ijc0LjYxIiBzdHlsZT0iZmlsbDojNTU2QThBOyIgd2lkdGg9IjAuMjUiIGhlaWdodD0iMC4yNSIvPiYjeGE7CQkJCQk8L2c+JiN4YTsJCQkJPC9nPiYjeGE7CQkJPC9nPiYjeGE7CQkJPGcgaWQ9Imdyb3VwNzc1LTI4MCIgdHJhbnNmb3JtPSJ0cmFuc2xhdGUoNzkuNDAxMiwtOS4zOTg5OSkiPiYjeGE7CQkJCTx0aXRsZSBpZD0idGl0bGU2ODAxOCI+T3JhY2xlICMyLjE0MDk4PC90aXRsZT4mI3hhOwkJCQk8ZyBpZD0iZ3JvdXA3NzYtMjgxIj4mI3hhOwkJCQkJPHRpdGxlIGlkPSJ0aXRsZTY4MDIwIj5TaGVldC43NzY8L3RpdGxlPiYjeGE7CQkJCQk8ZyBpZD0ic2hhcGU3NzctMjgyIj4mI3hhOwkJCQkJCTx0aXRsZSBpZD0idGl0bGU2ODAyMiI+U2hlZXQuNzc3PC90aXRsZT4mI3hhOwkJCQkJCSYjeGE7CQkJCQkJCTxsaW5lYXJHcmFkaWVudCBpZD0icmVjdDY4MDI0XzFfIiBncmFkaWVudFVuaXRzPSJ1c2VyU3BhY2VPblVzZSIgeDE9Ii0xNzkuNzQ2MyIgeTE9Ii0yNzEuNzcyNyIgeDI9Ii0xNzcuMzIzMiIgeTI9Ii0yNzEuNzcyNyIgZ3JhZGllbnRUcmFuc2Zvcm09Im1hdHJpeCgxLjY1MzEgMCAwIC0wLjYwNDkgMjk3LjEzMSAtOTAuMjgzOSkiPiYjeGE7CQkJCQkJCTxzdG9wIG9mZnNldD0iMCIgc3R5bGU9InN0b3AtY29sb3I6I0VDMjIyNyIvPiYjeGE7CQkJCQkJCTxzdG9wIG9mZnNldD0iMC40NDUiIHN0eWxlPSJzdG9wLWNvbG9yOiNFOTIyMjciLz4mI3hhOwkJCQkJCQk8c3RvcCBvZmZzZXQ9IjAuNjg1IiBzdHlsZT0ic3RvcC1jb2xvcjojREYyMjI3Ii8+JiN4YTsJCQkJCQkJPHN0b3Agb2Zmc2V0PSIwLjg4IiBzdHlsZT0ic3RvcC1jb2xvcjojRDIyMTI3Ii8+JiN4YTsJCQkJCQkJPHN0b3Agb2Zmc2V0PSIxIiBzdHlsZT0ic3RvcC1jb2xvcjojQzcyMTI4Ii8+JiN4YTsJCQkJCQk8L2xpbmVhckdyYWRpZW50PiYjeGE7CQkJCQkJPHJlY3QgaWQ9InJlY3Q2ODAyNCIgeD0iMCIgeT0iNzMuMzkiIHN0eWxlPSJmaWxsOnVybCgjcmVjdDY4MDI0XzFfKTsiIHdpZHRoPSI0LjAxIiBoZWlnaHQ9IjEuNDciLz4mI3hhOwkJCQkJPC9nPiYjeGE7CQkJCTwvZz4mI3hhOwkJCQk8ZyBpZD0ic2hhcGU3NzgtMjg2IiB0cmFuc2Zvcm09InRyYW5zbGF0ZSgwLjU3OTkwNCwtMC41NDIzMTgpIj4mI3hhOwkJCQkJPHRpdGxlIGlkPSJ0aXRsZTY4MDI4Ij5TaGVldC43Nzg8L3RpdGxlPiYjeGE7CQkJCQk8cGF0aCBpZD0icGF0aDY4MDMwIiBpbmtzY2FwZTpjb25uZWN0b3ItY3VydmF0dXJlPSIwIiBzdHlsZT0iZmlsbDojRkZGRkZGOyIgZD0iTTEuMjIsNzQuNzJoMC4xOWwtMC4wOS0wLjE2bC0wLjE5LDAuMjlIMS4wNSAgICAgICBsMC4yMi0wLjM1YzAuMDEtMC4wMiwwLjAzLTAuMDIsMC4wNS0wLjAyYzAuMDEsMCwwLjAzLDAuMDEsMC4wNCwwLjAybDAuMjIsMC4zNUgxLjQ5bC0wLjAzLTAuMDZIMS4yN0wxLjIyLDc0LjcyeiBNMi4wOSw3NC43OSAgICAgICB2LTAuMzFIMi4wMnYwLjM0YzAsMC4wMSwwLDAuMDEsMC4wMSwwLjAyYzAuMDEsMC4wMSwwLjAyLDAuMDIsMC4wMywwLjAyaDAuMzJsMC4wNC0wLjA3SDIuMDl6IE0wLjkyLDc0LjczICAgICAgIGMwLjA3LDAsMC4xMy0wLjA1LDAuMTMtMC4xMnMtMC4wNi0wLjEzLTAuMTMtMC4xM2gtMC4zdjAuMzdoMC4wN3YtMC4zaDAuMjNjMC4wMywwLDAuMDYsMC4wMywwLjA2LDAuMDZzLTAuMDMsMC4wNi0wLjA2LDAuMDYgICAgICAgaC0wLjJsMC4yMSwwLjE4aDAuMWwtMC4xNC0wLjEySDAuOTJ6IE0wLjE4LDc0Ljg1Yy0wLjEsMC0wLjE4LTAuMDgtMC4xOC0wLjE4czAuMDgtMC4xOSwwLjE4LTAuMTlIMC40ICAgICAgIGMwLjEsMCwwLjE4LDAuMDksMC4xOCwwLjE5YzAsMC4xLTAuMDgsMC4xOC0wLjE4LDAuMThMMC4xOCw3NC44NXogTTAuMzksNzQuNzljMC4wNywwLDAuMTItMC4wNiwwLjEyLTAuMTIgICAgICAgYzAtMC4wNy0wLjA1LTAuMTItMC4xMi0wLjEyaC0wLjJjLTAuMDcsMC0wLjEyLDAuMDUtMC4xMiwwLjEyYzAsMC4wNiwwLjA1LDAuMTIsMC4xMiwwLjEySDAuMzl6IE0xLjczLDc0Ljg1ICAgICAgIGMtMC4xLDAtMC4xOC0wLjA4LTAuMTgtMC4xOHMwLjA4LTAuMTksMC4xOC0wLjE5aDAuMjVsLTAuMDQsMC4wN0gxLjczYy0wLjA3LDAtMC4xMiwwLjA1LTAuMTIsMC4xMiAgICAgICBjMCwwLjA2LDAuMDUsMC4xMiwwLjEyLDAuMTJoMC4yNWwtMC4wNCwwLjA2TDEuNzMsNzQuODV6IE0yLjU5LDc0Ljc5Yy0wLjA2LDAtMC4xLTAuMDQtMC4xMS0wLjA5aDAuM2wwLjA0LTAuMDZIMi40OCAgICAgICBjMC4wMS0wLjA1LDAuMDUtMC4wOSwwLjExLTAuMDlIMi44bDAuMDQtMC4wN0gyLjU5Yy0wLjEsMC0wLjE4LDAuMDktMC4xOCwwLjE5YzAsMC4xLDAuMDgsMC4xOCwwLjE4LDAuMThIMi44bDAuMDUtMC4wNiAgICAgICBMMi41OSw3NC43OXoiLz4mI3hhOwkJCQkJPHBhdGggaWQ9InBhdGg2ODAzMiIgaW5rc2NhcGU6Y29ubmVjdG9yLWN1cnZhdHVyZT0iMCIgc3R5bGU9ImZpbGw6bm9uZTsiIGQ9Ik0xLjIyLDc0LjcyaDAuMTlsLTAuMDktMC4xNmwtMC4xOSwwLjI5SDEuMDUgICAgICAgbDAuMjItMC4zNWMwLjAxLTAuMDIsMC4wMy0wLjAyLDAuMDUtMC4wMmMwLjAxLDAsMC4wMywwLjAxLDAuMDQsMC4wMmwwLjIyLDAuMzVIMS40OWwtMC4wMy0wLjA2SDEuMjdMMS4yMiw3NC43MiBNMi4wOSw3NC43OSAgICAgICB2LTAuMzFIMi4wMnYwLjM0YzAsMC4wMSwwLDAuMDEsMC4wMSwwLjAyYzAuMDEsMC4wMSwwLjAyLDAuMDIsMC4wMywwLjAyaDAuMzJsMC4wNC0wLjA3SDIuMDkgTTAuOTIsNzQuNzMgICAgICAgYzAuMDcsMCwwLjEzLTAuMDUsMC4xMy0wLjEycy0wLjA2LTAuMTMtMC4xMy0wLjEzaC0wLjN2MC4zN2gwLjA3di0wLjNoMC4yM2MwLjAzLDAsMC4wNiwwLjAzLDAuMDYsMC4wNnMtMC4wMywwLjA2LTAuMDYsMC4wNiAgICAgICBoLTAuMmwwLjIxLDAuMThoMC4xbC0wLjE0LTAuMTJIMC45MiBNMC4xOCw3NC44NWMtMC4xLDAtMC4xOC0wLjA4LTAuMTgtMC4xOHMwLjA4LTAuMTksMC4xOC0wLjE5SDAuNCAgICAgICBjMC4xLDAsMC4xOCwwLjA5LDAuMTgsMC4xOWMwLDAuMS0wLjA4LDAuMTgtMC4xOCwwLjE4TDAuMTgsNzQuODUgTTAuMzksNzQuNzljMC4wNywwLDAuMTItMC4wNiwwLjEyLTAuMTIgICAgICAgYzAtMC4wNy0wLjA1LTAuMTItMC4xMi0wLjEyaC0wLjJjLTAuMDcsMC0wLjEyLDAuMDUtMC4xMiwwLjEyYzAsMC4wNiwwLjA1LDAuMTIsMC4xMiwwLjEySDAuMzkgTTEuNzMsNzQuODUgICAgICAgYy0wLjEsMC0wLjE4LTAuMDgtMC4xOC0wLjE4czAuMDgtMC4xOSwwLjE4LTAuMTloMC4yNWwtMC4wNCwwLjA3SDEuNzNjLTAuMDcsMC0wLjEyLDAuMDUtMC4xMiwwLjEyICAgICAgIGMwLDAuMDYsMC4wNSwwLjEyLDAuMTIsMC4xMmgwLjI1bC0wLjA0LDAuMDZMMS43Myw3NC44NSBNMi41OSw3NC43OWMtMC4wNiwwLTAuMS0wLjA0LTAuMTEtMC4wOWgwLjNsMC4wNC0wLjA2SDIuNDggICAgICAgYzAuMDEtMC4wNSwwLjA1LTAuMDksMC4xMS0wLjA5SDIuOGwwLjA0LTAuMDdIMi41OWMtMC4xLDAtMC4xOCwwLjA5LTAuMTgsMC4xOWMwLDAuMSwwLjA4LDAuMTgsMC4xOCwwLjE4SDIuOGwwLjA1LTAuMDZIMi41OSIvPiYjeGE7CQkJCTwvZz4mI3hhOwkJCTwvZz4mI3hhOwkJCTxnIGlkPSJncm91cDc3OS0yODkiIHRyYW5zZm9ybT0idHJhbnNsYXRlKDYuODg0OTEsLTM4Ljc3ODQpIj4mI3hhOwkJCQk8dGl0bGUgaWQ9InRpdGxlNjgwMzYiPmcxNjI2MS4xOTAzMzwvdGl0bGU+JiN4YTsJCQkJPGcgaWQ9InNoYXBlNzgwLTI5MCIgdHJhbnNmb3JtPSJ0cmFuc2xhdGUoMS4zOTA3OCwtMS4xNjE1OCkiPiYjeGE7CQkJCQk8dGl0bGUgaWQ9InRpdGxlNjgwMzgiPnJlY3QxNjIyNzwvdGl0bGU+JiN4YTsJCQkJCTxyZWN0IGlkPSJyZWN0NjgwNDAiIHg9IjAiIHk9IjcwLjA3IiBzdHlsZT0iZmlsbDojRkZGRkZGOyIgd2lkdGg9IjcuMzQiIGhlaWdodD0iNC43OCIvPiYjeGE7CQkJCTwvZz4mI3hhOwkJCQk8ZyBpZD0iZ3JvdXA3ODEtMjkyIj4mI3hhOwkJCQkJPHRpdGxlIGlkPSJ0aXRsZTY4MDQzIj5nMTYyNTk8L3RpdGxlPiYjeGE7CQkJCQk8ZyBpZD0iZ3JvdXA3ODItMjkzIj4mI3hhOwkJCQkJCTx0aXRsZSBpZD0idGl0bGU2ODA0NSI+ZzE2MjU1PC90aXRsZT4mI3hhOwkJCQkJCTxnIGlkPSJzaGFwZTc4My0yOTQiIHRyYW5zZm9ybT0idHJhbnNsYXRlKDEuODkxNDUsLTEuMTEyNjIpIj4mI3hhOwkJCQkJCQk8dGl0bGUgaWQ9InRpdGxlNjgwNDciPnJlY3QxNjIyOTwvdGl0bGU+JiN4YTsJCQkJCQkJPHJlY3QgaWQ9InJlY3Q2ODA0OSIgeD0iMCIgeT0iNzAuNCIgc3R5bGU9ImZpbGw6I0I4QzFDRTsiIHdpZHRoPSIwLjMzIiBoZWlnaHQ9IjQuNDUiLz4mI3hhOwkJCQkJCTwvZz4mI3hhOwkJCQkJCTxnIGlkPSJzaGFwZTc4NC0yOTYiIHRyYW5zZm9ybT0idHJhbnNsYXRlKDMuNjcxNjUsLTEuMTEyNjIpIj4mI3hhOwkJCQkJCQk8dGl0bGUgaWQ9InRpdGxlNjgwNTIiPnJlY3QxNjIzMTwvdGl0bGU+JiN4YTsJCQkJCQkJPHJlY3QgaWQ9InJlY3Q2ODA1NCIgeD0iMCIgeT0iNzAuNCIgc3R5bGU9ImZpbGw6I0I4QzFDRTsiIHdpZHRoPSIwLjMzIiBoZWlnaHQ9IjQuNDUiLz4mI3hhOwkJCQkJCTwvZz4mI3hhOwkJCQkJCTxnIGlkPSJzaGFwZTc4NS0yOTgiIHRyYW5zZm9ybT0idHJhbnNsYXRlKDUuNDUxODQsLTEuMTEyNjIpIj4mI3hhOwkJCQkJCQk8dGl0bGUgaWQ9InRpdGxlNjgwNTciPnJlY3QxNjIzMzwvdGl0bGU+JiN4YTsJCQkJCQkJPHJlY3QgaWQ9InJlY3Q2ODA1OSIgeD0iMCIgeT0iNzAuNCIgc3R5bGU9ImZpbGw6I0I4QzFDRTsiIHdpZHRoPSIwLjMzIiBoZWlnaHQ9IjQuNDUiLz4mI3hhOwkJCQkJCTwvZz4mI3hhOwkJCQkJCTxnIGlkPSJzaGFwZTc4Ni0zMDAiIHRyYW5zZm9ybT0idHJhbnNsYXRlKDcuMzQzMjksLTEuMTEyNjIpIj4mI3hhOwkJCQkJCQk8dGl0bGUgaWQ9InRpdGxlNjgwNjIiPnJlY3QxNjIzNTwvdGl0bGU+JiN4YTsJCQkJCQkJPHJlY3QgaWQ9InJlY3Q2ODA2NCIgeD0iMCIgeT0iNzAuNCIgc3R5bGU9ImZpbGw6I0I4QzFDRTsiIHdpZHRoPSIwLjMzIiBoZWlnaHQ9IjQuNDUiLz4mI3hhOwkJCQkJCTwvZz4mI3hhOwkJCQkJCTxnIGlkPSJzaGFwZTc4Ny0zMDIiIHRyYW5zZm9ybT0idHJhbnNsYXRlKDAuMzMzNzg2KSI+JiN4YTsJCQkJCQkJPHRpdGxlIGlkPSJ0aXRsZTY4MDY3Ij5wb2x5Z29uMTYyMzc8L3RpdGxlPiYjeGE7CQkJCQkJCTxwYXRoIGlkPSJwYXRoNjgwNjkiIGlua3NjYXBlOmNvbm5lY3Rvci1jdXJ2YXR1cmU9IjAiIHN0eWxlPSJmaWxsOiM1NTZBOEE7IiBkPSJNMC4zNSw3NC4wOGwwLjIxLTAuNDVoOC40NWwwLjIsMC40NSAgICAgICAgIGwwLjExLDAuMjJsMC4yNSwwLjU2SDBsMC4yNS0wLjU2TDAuMzUsNzQuMDh6Ii8+JiN4YTsJCQkJCQk8L2c+JiN4YTsJCQkJCQk8ZyBpZD0ic2hhcGU3ODgtMzA0IiB0cmFuc2Zvcm09InRyYW5zbGF0ZSg0LjY3MywtMC43NzIxNTgpIj4mI3hhOwkJCQkJCQk8dGl0bGUgaWQ9InRpdGxlNjgwNzIiPnJlY3QxNjIzOTwvdGl0bGU+JiN4YTsJCQkJCQkJPHJlY3QgaWQ9InJlY3Q2ODA3NCIgeD0iMCIgeT0iNjguNjIiIHN0eWxlPSJmaWxsOiM1NTZBOEE7IiB3aWR0aD0iMC44OSIgaGVpZ2h0PSI2LjIzIi8+JiN4YTsJCQkJCQk8L2c+JiN4YTsJCQkJCQk8ZyBpZD0ic2hhcGU3ODktMzA2IiB0cmFuc2Zvcm09InRyYW5zbGF0ZSg2LjU2NDQ2LC0wLjc3MjE1OCkiPiYjeGE7CQkJCQkJCTx0aXRsZSBpZD0idGl0bGU2ODA3NyI+cmVjdDE2MjQxPC90aXRsZT4mI3hhOwkJCQkJCQk8cmVjdCBpZD0icmVjdDY4MDc5IiB4PSIwIiB5PSI2OC42MiIgc3R5bGU9ImZpbGw6IzU1NkE4QTsiIHdpZHRoPSIwLjg5IiBoZWlnaHQ9IjYuMjMiLz4mI3hhOwkJCQkJCTwvZz4mI3hhOwkJCQkJCTxnIGlkPSJzaGFwZTc5MC0zMDgiIHRyYW5zZm9ybT0idHJhbnNsYXRlKDguMjMzMzksLTAuNzcyMTU4KSI+JiN4YTsJCQkJCQkJPHRpdGxlIGlkPSJ0aXRsZTY4MDgyIj5yZWN0MTYyNDM8L3RpdGxlPiYjeGE7CQkJCQkJCTxyZWN0IGlkPSJyZWN0NjgwODQiIHg9IjAiIHk9IjY5LjQ2IiBzdHlsZT0iZmlsbDojNTU2QThBOyIgd2lkdGg9IjAuODkiIGhlaWdodD0iNS40Ii8+JiN4YTsJCQkJCQk8L2c+JiN4YTsJCQkJCQk8ZyBpZD0ic2hhcGU3OTEtMzEwIiB0cmFuc2Zvcm09InRyYW5zbGF0ZSgyLjg5MjgxLC0wLjc3MjE1OCkiPiYjeGE7CQkJCQkJCTx0aXRsZSBpZD0idGl0bGU2ODA4NyI+cmVjdDE2MjQ1PC90aXRsZT4mI3hhOwkJCQkJCQk8cmVjdCBpZD0icmVjdDY4MDg5IiB4PSIwIiB5PSI2OC42MiIgc3R5bGU9ImZpbGw6IzU1NkE4QTsiIHdpZHRoPSIwLjg5IiBoZWlnaHQ9IjYuMjMiLz4mI3hhOwkJCQkJCTwvZz4mI3hhOwkJCQkJCTxnIGlkPSJzaGFwZTc5Mi0zMTIiIHRyYW5zZm9ybT0idHJhbnNsYXRlKDEuMTEyNjIsLTAuNzcyMTU4KSI+JiN4YTsJCQkJCQkJPHRpdGxlIGlkPSJ0aXRsZTY4MDkyIj5yZWN0MTYyNDc8L3RpdGxlPiYjeGE7CQkJCQkJCTxyZWN0IGlkPSJyZWN0NjgwOTQiIHg9IjAiIHk9IjY5LjQ2IiBzdHlsZT0iZmlsbDojNTU2QThBOyIgd2lkdGg9IjAuODkiIGhlaWdodD0iNS40Ii8+JiN4YTsJCQkJCQk8L2c+JiN4YTsJCQkJCQk8ZyBpZD0ic2hhcGU3OTMtMzE0IiB0cmFuc2Zvcm09InRyYW5zbGF0ZSgwLC01LjY2NzY5KSI+JiN4YTsJCQkJCQkJPHRpdGxlIGlkPSJ0aXRsZTY4MDk3Ij5wb2x5Z29uMTYyNDk8L3RpdGxlPiYjeGE7CQkJCQkJCSYjeGE7CQkJCQkJCQk8cGF0aCBpZD0icGF0aDY4MDk5IiBpbmtzY2FwZTpjb25uZWN0b3ItY3VydmF0dXJlPSIwIiBzdHlsZT0iZmlsbDojRkZGRkZGO3N0cm9rZTojNTU2QThBO3N0cm9rZS13aWR0aDowLjI1O3N0cm9rZS1taXRlcmxpbWl0OjM7IiBkPSIgICAgICAgICBNNS4xNiw3MS43NGw1LjA4LDMuMTJIMEw1LjE2LDcxLjc0eiIvPiYjeGE7CQkJCQkJPC9nPiYjeGE7CQkJCQkJPGcgaWQ9InNoYXBlNzk0LTMxNiIgdHJhbnNmb3JtPSJ0cmFuc2xhdGUoNC4xMDMzNCwtNi4wMDE0NykiPiYjeGE7CQkJCQkJCTx0aXRsZSBpZD0idGl0bGU2ODEwMiI+Y2lyY2xlMTYyNTE8L3RpdGxlPiYjeGE7CQkJCQkJCTxjaXJjbGUgaWQ9ImVsbGlwc2U2ODEwNCIgc3R5bGU9ImZpbGw6I0JBRDgwQTsiIGN4PSIxLjA2IiBjeT0iNzMuOCIgcj0iMS4wNiIvPiYjeGE7CQkJCQkJPC9nPiYjeGE7CQkJCQkJPGcgaWQ9InNoYXBlNzk1LTMxOCIgdHJhbnNmb3JtPSJ0cmFuc2xhdGUoNC44MTMxOSwtNi4xMzcyMSkiPiYjeGE7CQkJCQkJCTx0aXRsZSBpZD0idGl0bGU2ODEwNyI+cGF0aDE2MjUzPC90aXRsZT4mI3hhOwkJCQkJCQk8cGF0aCBpZD0icGF0aDY4MTA5IiBpbmtzY2FwZTpjb25uZWN0b3ItY3VydmF0dXJlPSIwIiBzdHlsZT0iZmlsbDojNTU2QThBOyIgZD0iTTAuNDksNzQuNjR2MC4yMkgwLjM3di0wLjIxICAgICAgICAgYy0wLjEyLDAtMC4yNS0wLjAyLTAuMzUtMC4wOGwtMC4wMS0wLjIzYzAuMDUsMC4wNCwwLjEsMC4wNywwLjE2LDAuMDljMC4wNiwwLjAyLDAuMTMsMC4wMywwLjE5LDAuMDRsMC4wMS0wLjQyICAgICAgICAgYy0wLjExLTAuMDQtMC4yMi0wLjExLTAuMy0wLjJDMC4wMiw3My43OCwwLDczLjcxLDAsNzMuNjNjMC0wLjA5LDAuMDQtMC4xOSwwLjEtMC4yNWMwLjA3LTAuMDcsMC4xNi0wLjEyLDAuMjYtMC4xM2wwLTAuMTggICAgICAgICBoMC4xMnYwLjE3YzAuMSwwLDAuMTksMC4wMSwwLjI4LDAuMDVsMCwwLjIyYy0wLjA4LTAuMDYtMC4xOC0wLjA5LTAuMjgtMC4wOGwwLDAuNDRjMC4xMSwwLjA0LDAuMjEsMC4xMSwwLjI5LDAuMTkgICAgICAgICBjMC4xMSwwLjEzLDAuMSwwLjMzLTAuMDIsMC40NUMwLjY5LDc0LjU5LDAuNTksNzQuNjMsMC40OSw3NC42NEwwLjQ5LDc0LjY0eiBNMC4zNyw3My44MnYtMC4zOSAgICAgICAgIGMtMC4wNCwwLjAxLTAuMDgsMC4wMy0wLjExLDAuMDZjLTAuMDMsMC4wMy0wLjA0LDAuMDctMC4wNCwwLjExYzAsMC4wNCwwLjAxLDAuMDgsMC4wNCwwLjEyICAgICAgICAgQzAuMjgsNzMuNzYsMC4zMiw3My44LDAuMzcsNzMuODJMMC4zNyw3My44MnogTTAuNDksNzQuMDl2MC4zN2MwLjExLTAuMDIsMC4xNi0wLjA4LDAuMTYtMC4xNyAgICAgICAgIEMwLjY1LDc0LjIxLDAuNiw3NC4xNSwwLjQ5LDc0LjA5eiIvPiYjeGE7CQkJCQkJPC9nPiYjeGE7CQkJCQk8L2c+JiN4YTsJCQkJCTxnIGlkPSJzaGFwZTc5Ni0zMjAiIHRyYW5zZm9ybT0idHJhbnNsYXRlKDAuNTcyOTk5LC0wLjU1NjMxKSI+JiN4YTsJCQkJCQk8dGl0bGUgaWQ9InRpdGxlNjgxMTMiPnBvbHlnb24xNjI1NzwvdGl0bGU+JiN4YTsJCQkJCQk8cGF0aCBpZD0icGF0aDY4MTE1IiBpbmtzY2FwZTpjb25uZWN0b3ItY3VydmF0dXJlPSIwIiBzdHlsZT0iZmlsbDojRTVFNUU1OyIgZD0iTTguOTYsNzQuNjNsMC4xLDAuMjNIMGwwLjEtMC4yM0g4Ljk2eiIvPiYjeGE7CQkJCQk8L2c+JiN4YTsJCQkJPC9nPiYjeGE7CQkJPC9nPiYjeGE7CQkJPGcgaWQ9Imdyb3VwNzk3LTMyMiIgdHJhbnNmb3JtPSJ0cmFuc2xhdGUoOS45MDAzNywtMzUuOTk3OSkiPiYjeGE7CQkJCTx0aXRsZSBpZD0idGl0bGU2ODEyMCI+U2hlZXQuNzk3PC90aXRsZT4mI3hhOwkJCQk8ZyBpZD0iZ3JvdXA3OTgtMzIzIiB0cmFuc2Zvcm09InRyYW5zbGF0ZSgxLjQwMDQ2LC0wLjA3MzcwODMpIj4mI3hhOwkJCQkJPHRpdGxlIGlkPSJ0aXRsZTY4MTIyIj5nMTU4Njg8L3RpdGxlPiYjeGE7CQkJCQk8ZyBpZD0ic2hhcGU3OTktMzI0IiB0cmFuc2Zvcm09InRyYW5zbGF0ZSgwLC0wLjA5MjEzNTQpIj4mI3hhOwkJCQkJCTx0aXRsZSBpZD0idGl0bGU2ODEyNCI+cmVjdDE1ODA0PC90aXRsZT4mI3hhOwkJCQkJCSYjeGE7CQkJCQkJCTxyZWN0IGlkPSJyZWN0NjgxMjYiIHg9IjAiIHk9IjcwLjU4IiBzdHlsZT0iZmlsbDojRjJGMkYyO3N0cm9rZTojNTU2QThBO3N0cm9rZS13aWR0aDowLjI1O3N0cm9rZS1taXRlcmxpbWl0OjM7IiB3aWR0aD0iMy4xIiBoZWlnaHQ9IjQuMjgiLz4mI3hhOwkJCQkJPC9nPiYjeGE7CQkJCQk8ZyBpZD0ic2hhcGU4MDAtMzI2IiB0cmFuc2Zvcm09InRyYW5zbGF0ZSg0LjIwMTM3LC03LjAwMjI5KSI+JiN4YTsJCQkJCQk8dGl0bGUgaWQ9InRpdGxlNjgxMjkiPnJlY3QxNTgwNjwvdGl0bGU+JiN4YTsJCQkJCQkmI3hhOwkJCQkJCQk8cmVjdCBpZD0icmVjdDY4MTMxIiB4PSIwIiB5PSI3Mi43OSIgc3R5bGU9ImZpbGw6I0ZGRkZGRjtzdHJva2U6IzU1NkE4QTtzdHJva2Utd2lkdGg6MC4yNTtzdHJva2UtbWl0ZXJsaW1pdDozOyIgd2lkdGg9IjIuNTEiIGhlaWdodD0iMi4wNiIvPiYjeGE7CQkJCQk8L2c+JiN4YTsJCQkJCTxnIGlkPSJzaGFwZTgwMS0zMjgiIHRyYW5zZm9ybT0idHJhbnNsYXRlKDMuMDk1NzUpIj4mI3hhOwkJCQkJCTx0aXRsZSBpZD0idGl0bGU2ODEzNCI+cmVjdDE1ODA4PC90aXRsZT4mI3hhOwkJCQkJCSYjeGE7CQkJCQkJCTxyZWN0IGlkPSJyZWN0NjgxMzYiIHg9IjAiIHk9IjY3Ljg1IiBzdHlsZT0iZmlsbDojRkZGRkZGO3N0cm9rZTojNTU2QThBO3N0cm9rZS13aWR0aDowLjI1O3N0cm9rZS1taXRlcmxpbWl0OjM7IiB3aWR0aD0iNC43MiIgaGVpZ2h0PSI3Ii8+JiN4YTsJCQkJCTwvZz4mI3hhOwkJCQkJPGcgaWQ9InNoYXBlODAyLTMzMCIgdHJhbnNmb3JtPSJ0cmFuc2xhdGUoNC4wNTM5NikiPiYjeGE7CQkJCQkJPHRpdGxlIGlkPSJ0aXRsZTY4MTM5Ij5yZWN0MTU4MTA8L3RpdGxlPiYjeGE7CQkJCQkJJiN4YTsJCQkJCQkJPHJlY3QgaWQ9InJlY3Q2ODE0MSIgeD0iMCIgeT0iNzIuMzUiIHN0eWxlPSJmaWxsOiNGRkZGRkY7c3Ryb2tlOiM1NTZBOEE7c3Ryb2tlLXdpZHRoOjAuMjU7c3Ryb2tlLW1pdGVybGltaXQ6MzsiIHdpZHRoPSIyLjk1IiBoZWlnaHQ9IjIuNTEiLz4mI3hhOwkJCQkJPC9nPiYjeGE7CQkJCQk8ZyBpZD0iZ3JvdXA4MDMtMzMyIiB0cmFuc2Zvcm09InRyYW5zbGF0ZSgwLjQ0MjI1LC0zLjA5NTc1KSI+JiN4YTsJCQkJCQk8dGl0bGUgaWQ9InRpdGxlNjgxNDQiPmcxNTgxODwvdGl0bGU+JiN4YTsJCQkJCQk8ZyBpZD0ic2hhcGU4MDQtMzMzIj4mI3hhOwkJCQkJCQk8dGl0bGUgaWQ9InRpdGxlNjgxNDYiPnJlY3QxNTgxMjwvdGl0bGU+JiN4YTsJCQkJCQkJPHJlY3QgaWQ9InJlY3Q2ODE0OCIgeD0iMCIgeT0iNzMuOTciIHN0eWxlPSJmaWxsOiM1NTZBOEE7IiB3aWR0aD0iMC41MiIgaGVpZ2h0PSIwLjg4Ii8+JiN4YTsJCQkJCQk8L2c+JiN4YTsJCQkJCQk8ZyBpZD0ic2hhcGU4MDUtMzM1IiB0cmFuc2Zvcm09InRyYW5zbGF0ZSgwLjg4NDQ5OSkiPiYjeGE7CQkJCQkJCTx0aXRsZSBpZD0idGl0bGU2ODE1MSI+cmVjdDE1ODE0PC90aXRsZT4mI3hhOwkJCQkJCQk8cmVjdCBpZD0icmVjdDY4MTUzIiB4PSIwIiB5PSI3My45NyIgc3R5bGU9ImZpbGw6IzU1NkE4QTsiIHdpZHRoPSIwLjUyIiBoZWlnaHQ9IjAuODgiLz4mI3hhOwkJCQkJCTwvZz4mI3hhOwkJCQkJCTxnIGlkPSJzaGFwZTgwNi0zMzciIHRyYW5zZm9ybT0idHJhbnNsYXRlKDEuNjk1MjkpIj4mI3hhOwkJCQkJCQk8dGl0bGUgaWQ9InRpdGxlNjgxNTYiPnJlY3QxNTgxNjwvdGl0bGU+JiN4YTsJCQkJCQkJPHJlY3QgaWQ9InJlY3Q2ODE1OCIgeD0iMCIgeT0iNzMuOTciIHN0eWxlPSJmaWxsOiM1NTZBOEE7IiB3aWR0aD0iMC41MiIgaGVpZ2h0PSIwLjg4Ii8+JiN4YTsJCQkJCQk8L2c+JiN4YTsJCQkJCTwvZz4mI3hhOwkJCQkJPGcgaWQ9Imdyb3VwODA3LTMzOSIgdHJhbnNmb3JtPSJ0cmFuc2xhdGUoMC40NDIyNSwtMS45OTAxMikiPiYjeGE7CQkJCQkJPHRpdGxlIGlkPSJ0aXRsZTY4MTYyIj5nMTU4MjY8L3RpdGxlPiYjeGE7CQkJCQkJPGcgaWQ9InNoYXBlODA4LTM0MCI+JiN4YTsJCQkJCQkJPHRpdGxlIGlkPSJ0aXRsZTY4MTY0Ij5yZWN0MTU4MjA8L3RpdGxlPiYjeGE7CQkJCQkJCTxyZWN0IGlkPSJyZWN0NjgxNjYiIHg9IjAiIHk9IjczLjk3IiBzdHlsZT0iZmlsbDojNTU2QThBOyIgd2lkdGg9IjAuNTIiIGhlaWdodD0iMC44OCIvPiYjeGE7CQkJCQkJPC9nPiYjeGE7CQkJCQkJPGcgaWQ9InNoYXBlODA5LTM0MiIgdHJhbnNmb3JtPSJ0cmFuc2xhdGUoMC44ODQ0OTkpIj4mI3hhOwkJCQkJCQk8dGl0bGUgaWQ9InRpdGxlNjgxNjkiPnJlY3QxNTgyMjwvdGl0bGU+JiN4YTsJCQkJCQkJPHJlY3QgaWQ9InJlY3Q2ODE3MSIgeD0iMCIgeT0iNzMuOTciIHN0eWxlPSJmaWxsOiM1NTZBOEE7IiB3aWR0aD0iMC41MiIgaGVpZ2h0PSIwLjg4Ii8+JiN4YTsJCQkJCQk8L2c+JiN4YTsJCQkJCQk8ZyBpZD0ic2hhcGU4MTAtMzQ0IiB0cmFuc2Zvcm09InRyYW5zbGF0ZSgxLjY5NTI5KSI+JiN4YTsJCQkJCQkJPHRpdGxlIGlkPSJ0aXRsZTY4MTc0Ij5yZWN0MTU4MjQ8L3RpdGxlPiYjeGE7CQkJCQkJCTxyZWN0IGlkPSJyZWN0NjgxNzYiIHg9IjAiIHk9IjczLjk3IiBzdHlsZT0iZmlsbDojNTU2QThBOyIgd2lkdGg9IjAuNTIiIGhlaWdodD0iMC44OCIvPiYjeGE7CQkJCQkJPC9nPiYjeGE7CQkJCQk8L2c+JiN4YTsJCQkJCTxnIGlkPSJncm91cDgxMS0zNDYiIHRyYW5zZm9ybT0idHJhbnNsYXRlKDAuNDQyMjUsLTAuODg0NDk5KSI+JiN4YTsJCQkJCQk8dGl0bGUgaWQ9InRpdGxlNjgxODAiPmcxNTgzNDwvdGl0bGU+JiN4YTsJCQkJCQk8ZyBpZD0ic2hhcGU4MTItMzQ3Ij4mI3hhOwkJCQkJCQk8dGl0bGUgaWQ9InRpdGxlNjgxODIiPnJlY3QxNTgyODwvdGl0bGU+JiN4YTsJCQkJCQkJPHJlY3QgaWQ9InJlY3Q2ODE4NCIgeD0iMCIgeT0iNzMuOTciIHN0eWxlPSJmaWxsOiM1NTZBOEE7IiB3aWR0aD0iMC41MiIgaGVpZ2h0PSIwLjg4Ii8+JiN4YTsJCQkJCQk8L2c+JiN4YTsJCQkJCQk8ZyBpZD0ic2hhcGU4MTMtMzQ5IiB0cmFuc2Zvcm09InRyYW5zbGF0ZSgwLjg4NDQ5OSkiPiYjeGE7CQkJCQkJCTx0aXRsZSBpZD0idGl0bGU2ODE4NyI+cmVjdDE1ODMwPC90aXRsZT4mI3hhOwkJCQkJCQk8cmVjdCBpZD0icmVjdDY4MTg5IiB4PSIwIiB5PSI3My45NyIgc3R5bGU9ImZpbGw6IzU1NkE4QTsiIHdpZHRoPSIwLjUyIiBoZWlnaHQ9IjAuODgiLz4mI3hhOwkJCQkJCTwvZz4mI3hhOwkJCQkJCTxnIGlkPSJzaGFwZTgxNC0zNTEiIHRyYW5zZm9ybT0idHJhbnNsYXRlKDEuNjk1MjkpIj4mI3hhOwkJCQkJCQk8dGl0bGUgaWQ9InRpdGxlNjgxOTIiPnJlY3QxNTgzMjwvdGl0bGU+JiN4YTsJCQkJCQkJPHJlY3QgaWQ9InJlY3Q2ODE5NCIgeD0iMCIgeT0iNzMuOTciIHN0eWxlPSJmaWxsOiM1NTZBOEE7IiB3aWR0aD0iMC41MiIgaGVpZ2h0PSIwLjg4Ii8+JiN4YTsJCQkJCQk8L2c+JiN4YTsJCQkJCTwvZz4mI3hhOwkJCQkJPGcgaWQ9InNoYXBlODE1LTM1MyIgdHJhbnNmb3JtPSJ0cmFuc2xhdGUoNy44MTMwOCwtMC4wOTIxMzU0KSI+JiN4YTsJCQkJCQk8dGl0bGUgaWQ9InRpdGxlNjgxOTgiPnJlY3QxNTgzNjwvdGl0bGU+JiN4YTsJCQkJCQkmI3hhOwkJCQkJCQk8cmVjdCBpZD0icmVjdDY4MjAwIiB4PSIwIiB5PSI3MC41OCIgc3R5bGU9ImZpbGw6I0YyRjJGMjtzdHJva2U6IzU1NkE4QTtzdHJva2Utd2lkdGg6MC4yNTtzdHJva2UtbWl0ZXJsaW1pdDozOyIgd2lkdGg9IjMuMSIgaGVpZ2h0PSI0LjI4Ii8+JiN4YTsJCQkJCTwvZz4mI3hhOwkJCQkJPGcgaWQ9Imdyb3VwODE2LTM1NSIgdHJhbnNmb3JtPSJ0cmFuc2xhdGUoOC4yNTUzMywtMy4wOTU3NSkiPiYjeGE7CQkJCQkJPHRpdGxlIGlkPSJ0aXRsZTY4MjAzIj5nMTU4NDQ8L3RpdGxlPiYjeGE7CQkJCQkJPGcgaWQ9InNoYXBlODE3LTM1NiI+JiN4YTsJCQkJCQkJPHRpdGxlIGlkPSJ0aXRsZTY4MjA1Ij5yZWN0MTU4Mzg8L3RpdGxlPiYjeGE7CQkJCQkJCTxyZWN0IGlkPSJyZWN0NjgyMDciIHg9IjAiIHk9IjczLjk3IiBzdHlsZT0iZmlsbDojNTU2QThBOyIgd2lkdGg9IjAuNTIiIGhlaWdodD0iMC44OCIvPiYjeGE7CQkJCQkJPC9nPiYjeGE7CQkJCQkJPGcgaWQ9InNoYXBlODE4LTM1OCIgdHJhbnNmb3JtPSJ0cmFuc2xhdGUoMC44MTA3OTEpIj4mI3hhOwkJCQkJCQk8dGl0bGUgaWQ9InRpdGxlNjgyMTAiPnJlY3QxNTg0MDwvdGl0bGU+JiN4YTsJCQkJCQkJPHJlY3QgaWQ9InJlY3Q2ODIxMiIgeD0iMCIgeT0iNzMuOTciIHN0eWxlPSJmaWxsOiM1NTZBOEE7IiB3aWR0aD0iMC41MiIgaGVpZ2h0PSIwLjg4Ii8+JiN4YTsJCQkJCQk8L2c+JiN4YTsJCQkJCQk8ZyBpZD0ic2hhcGU4MTktMzYwIiB0cmFuc2Zvcm09InRyYW5zbGF0ZSgxLjY5NTI5KSI+JiN4YTsJCQkJCQkJPHRpdGxlIGlkPSJ0aXRsZTY4MjE1Ij5yZWN0MTU4NDI8L3RpdGxlPiYjeGE7CQkJCQkJCTxyZWN0IGlkPSJyZWN0NjgyMTciIHg9IjAiIHk9IjczLjk3IiBzdHlsZT0iZmlsbDojNTU2QThBOyIgd2lkdGg9IjAuNTIiIGhlaWdodD0iMC44OCIvPiYjeGE7CQkJCQkJPC9nPiYjeGE7CQkJCQk8L2c+JiN4YTsJCQkJCTxnIGlkPSJncm91cDgyMC0zNjIiIHRyYW5zZm9ybT0idHJhbnNsYXRlKDguMjU1MzMsLTEuOTkwMTIpIj4mI3hhOwkJCQkJCTx0aXRsZSBpZD0idGl0bGU2ODIyMSI+ZzE1ODUyPC90aXRsZT4mI3hhOwkJCQkJCTxnIGlkPSJzaGFwZTgyMS0zNjMiPiYjeGE7CQkJCQkJCTx0aXRsZSBpZD0idGl0bGU2ODIyMyI+cmVjdDE1ODQ2PC90aXRsZT4mI3hhOwkJCQkJCQk8cmVjdCBpZD0icmVjdDY4MjI1IiB4PSIwIiB5PSI3My45NyIgc3R5bGU9ImZpbGw6IzU1NkE4QTsiIHdpZHRoPSIwLjUyIiBoZWlnaHQ9IjAuODgiLz4mI3hhOwkJCQkJCTwvZz4mI3hhOwkJCQkJCTxnIGlkPSJzaGFwZTgyMi0zNjUiIHRyYW5zZm9ybT0idHJhbnNsYXRlKDAuODEwNzkxKSI+JiN4YTsJCQkJCQkJPHRpdGxlIGlkPSJ0aXRsZTY4MjI4Ij5yZWN0MTU4NDg8L3RpdGxlPiYjeGE7CQkJCQkJCTxyZWN0IGlkPSJyZWN0NjgyMzAiIHg9IjAiIHk9IjczLjk3IiBzdHlsZT0iZmlsbDojNTU2QThBOyIgd2lkdGg9IjAuNTIiIGhlaWdodD0iMC44OCIvPiYjeGE7CQkJCQkJPC9nPiYjeGE7CQkJCQkJPGcgaWQ9InNoYXBlODIzLTM2NyIgdHJhbnNmb3JtPSJ0cmFuc2xhdGUoMS42OTUyOSkiPiYjeGE7CQkJCQkJCTx0aXRsZSBpZD0idGl0bGU2ODIzMyI+cmVjdDE1ODUwPC90aXRsZT4mI3hhOwkJCQkJCQk8cmVjdCBpZD0icmVjdDY4MjM1IiB4PSIwIiB5PSI3My45NyIgc3R5bGU9ImZpbGw6IzU1NkE4QTsiIHdpZHRoPSIwLjUyIiBoZWlnaHQ9IjAuODgiLz4mI3hhOwkJCQkJCTwvZz4mI3hhOwkJCQkJPC9nPiYjeGE7CQkJCQk8ZyBpZD0iZ3JvdXA4MjQtMzY5IiB0cmFuc2Zvcm09InRyYW5zbGF0ZSg4LjI1NTMzLC0wLjg4NDQ5OSkiPiYjeGE7CQkJCQkJPHRpdGxlIGlkPSJ0aXRsZTY4MjM5Ij5nMTU4NjA8L3RpdGxlPiYjeGE7CQkJCQkJPGcgaWQ9InNoYXBlODI1LTM3MCI+JiN4YTsJCQkJCQkJPHRpdGxlIGlkPSJ0aXRsZTY4MjQxIj5yZWN0MTU4NTQ8L3RpdGxlPiYjeGE7CQkJCQkJCTxyZWN0IGlkPSJyZWN0NjgyNDMiIHg9IjAiIHk9IjczLjk3IiBzdHlsZT0iZmlsbDojNTU2QThBOyIgd2lkdGg9IjAuNTIiIGhlaWdodD0iMC44OCIvPiYjeGE7CQkJCQkJPC9nPiYjeGE7CQkJCQkJPGcgaWQ9InNoYXBlODI2LTM3MiIgdHJhbnNmb3JtPSJ0cmFuc2xhdGUoMC44MTA3OTEpIj4mI3hhOwkJCQkJCQk8dGl0bGUgaWQ9InRpdGxlNjgyNDYiPnJlY3QxNTg1NjwvdGl0bGU+JiN4YTsJCQkJCQkJPHJlY3QgaWQ9InJlY3Q2ODI0OCIgeD0iMCIgeT0iNzMuOTciIHN0eWxlPSJmaWxsOiM1NTZBOEE7IiB3aWR0aD0iMC41MiIgaGVpZ2h0PSIwLjg4Ii8+JiN4YTsJCQkJCQk8L2c+JiN4YTsJCQkJCQk8ZyBpZD0ic2hhcGU4MjctMzc0IiB0cmFuc2Zvcm09InRyYW5zbGF0ZSgxLjY5NTI5KSI+JiN4YTsJCQkJCQkJPHRpdGxlIGlkPSJ0aXRsZTY4MjUxIj5yZWN0MTU4NTg8L3RpdGxlPiYjeGE7CQkJCQkJCTxyZWN0IGlkPSJyZWN0NjgyNTMiIHg9IjAiIHk9IjczLjk3IiBzdHlsZT0iZmlsbDojNTU2QThBOyIgd2lkdGg9IjAuNTIiIGhlaWdodD0iMC44OCIvPiYjeGE7CQkJCQkJPC9nPiYjeGE7CQkJCQk8L2c+JiN4YTsJCQkJCTxnIGlkPSJzaGFwZTgyOC0zNzYiIHRyYW5zZm9ybT0idHJhbnNsYXRlKDQuMTI3NjYsLTAuMTQ3NDE3KSI+JiN4YTsJCQkJCQk8dGl0bGUgaWQ9InRpdGxlNjgyNTciPnJlY3QxNTg2MjwvdGl0bGU+JiN4YTsJCQkJCQk8cmVjdCBpZD0icmVjdDY4MjU5IiB4PSIwIiB5PSI3Mi45NCIgc3R5bGU9ImZpbGw6I0Q0RjRGRDsiIHdpZHRoPSIyLjgiIGhlaWdodD0iMS45MiIvPiYjeGE7CQkJCQk8L2c+JiN4YTsJCQkJCTxnIGlkPSJzaGFwZTgyOS0zNzgiIHRyYW5zZm9ybT0idHJhbnNsYXRlKDUuMzA3LC0wLjE0NzQxNykiPiYjeGE7CQkJCQkJPHRpdGxlIGlkPSJ0aXRsZTY4MjYyIj5yZWN0MTU4NjQ8L3RpdGxlPiYjeGE7CQkJCQkJPHJlY3QgaWQ9InJlY3Q2ODI2NCIgeD0iMCIgeT0iNzIuODciIHN0eWxlPSJmaWxsOiM4MENFRTk7IiB3aWR0aD0iMC40NCIgaGVpZ2h0PSIxLjk5Ii8+JiN4YTsJCQkJCTwvZz4mI3hhOwkJCQkJPGcgaWQ9InNoYXBlODMwLTM4MCIgdHJhbnNmb3JtPSJ0cmFuc2xhdGUoNS40NTQ0MSwtMC4wOTIxMzU0KSI+JiN4YTsJCQkJCQk8dGl0bGUgaWQ9InRpdGxlNjgyNjciPnJlY3QxNTg2NjwvdGl0bGU+JiN4YTsJCQkJCQk8cmVjdCBpZD0icmVjdDY4MjY5IiB4PSIwIiB5PSI3Mi41NyIgc3R5bGU9ImZpbGw6IzU1NkE4QTsiIHdpZHRoPSIwLjE1IiBoZWlnaHQ9IjIuMjgiLz4mI3hhOwkJCQkJPC9nPiYjeGE7CQkJCTwvZz4mI3hhOwkJCQk8ZyBpZD0ic2hhcGU4MzEtMzgyIiB0cmFuc2Zvcm09InRyYW5zbGF0ZSg2LjI2NTIsLTcuNTkxOTUpIj4mI3hhOwkJCQkJPHRpdGxlIGlkPSJ0aXRsZTY4MjczIj5wb2x5Z29uMTU4NzA8L3RpdGxlPiYjeGE7CQkJCQk8cGF0aCBpZD0icGF0aDY4Mjc1IiBpbmtzY2FwZTpjb25uZWN0b3ItY3VydmF0dXJlPSIwIiBzdHlsZT0iZmlsbDojRDgzQjAxOyIgZD0iTTAsNzQuNDFoMC40NHYwLjQ1aDAuM3YtMC40NWgwLjQ0di0wLjI5SDAuNzQgICAgICAgdi0wLjQ0aC0wLjN2MC40NEgwVjc0LjQxeiIvPiYjeGE7CQkJCTwvZz4mI3hhOwkJCQk8ZyBpZD0ic2hhcGU4MzItMzg0IiB0cmFuc2Zvcm09InRyYW5zbGF0ZSg1LjAxMjE2LC01Ljc2NzY3KSI+JiN4YTsJCQkJCTx0aXRsZSBpZD0idGl0bGU2ODI3OCI+cmVjdDE1ODcyPC90aXRsZT4mI3hhOwkJCQkJPHJlY3QgaWQ9InJlY3Q2ODI4MCIgeD0iMCIgeT0iNzQuMjciIHN0eWxlPSJmaWxsOiNCOEMxQ0U7IiB3aWR0aD0iMy42OSIgaGVpZ2h0PSIwLjU5Ii8+JiN4YTsJCQkJPC9nPiYjeGE7CQkJCTxnIGlkPSJzaGFwZTgzMy0zODYiIHRyYW5zZm9ybT0idHJhbnNsYXRlKDUuMDEyMTYsLTQuNjYyMDUpIj4mI3hhOwkJCQkJPHRpdGxlIGlkPSJ0aXRsZTY4MjgzIj5yZWN0MTU4NzQ8L3RpdGxlPiYjeGE7CQkJCQk8cmVjdCBpZD0icmVjdDY4Mjg1IiB4PSIwIiB5PSI3NC4yNyIgc3R5bGU9ImZpbGw6I0I4QzFDRTsiIHdpZHRoPSIzLjY5IiBoZWlnaHQ9IjAuNTkiLz4mI3hhOwkJCQk8L2c+JiN4YTsJCQkJPGcgaWQ9InNoYXBlODM0LTM4OCIgdHJhbnNmb3JtPSJ0cmFuc2xhdGUoNS4wMTIxNiwtMy41NTY0MikiPiYjeGE7CQkJCQk8dGl0bGUgaWQ9InRpdGxlNjgyODgiPnJlY3QxNTg3NjwvdGl0bGU+JiN4YTsJCQkJCTxyZWN0IGlkPSJyZWN0NjgyOTAiIHg9IjAiIHk9Ijc0LjI3IiBzdHlsZT0iZmlsbDojQjhDMUNFOyIgd2lkdGg9IjMuNjkiIGhlaWdodD0iMC41OSIvPiYjeGE7CQkJCTwvZz4mI3hhOwkJCQk8ZyBpZD0ic2hhcGU4MzUtMzkwIiB0cmFuc2Zvcm09InRyYW5zbGF0ZSg1LjAxMjE2LC01Ljk4ODgpIj4mI3hhOwkJCQkJPHRpdGxlIGlkPSJ0aXRsZTY4MjkzIj5yZWN0MTU4Nzg8L3RpdGxlPiYjeGE7CQkJCQk8cmVjdCBpZD0icmVjdDY4Mjk1IiB4PSIwIiB5PSI3NC4yNyIgc3R5bGU9ImZpbGw6IzU1NkE4QTsiIHdpZHRoPSIzLjY5IiBoZWlnaHQ9IjAuNTkiLz4mI3hhOwkJCQk8L2c+JiN4YTsJCQkJPGcgaWQ9InNoYXBlODM2LTM5MiIgdHJhbnNmb3JtPSJ0cmFuc2xhdGUoNS4wMTIxNiwtNC44ODMxNykiPiYjeGE7CQkJCQk8dGl0bGUgaWQ9InRpdGxlNjgyOTgiPnJlY3QxNTg4MDwvdGl0bGU+JiN4YTsJCQkJCTxyZWN0IGlkPSJyZWN0NjgzMDAiIHg9IjAiIHk9Ijc0LjI3IiBzdHlsZT0iZmlsbDojNTU2QThBOyIgd2lkdGg9IjMuNjkiIGhlaWdodD0iMC41OSIvPiYjeGE7CQkJCTwvZz4mI3hhOwkJCQk8ZyBpZD0ic2hhcGU4MzctMzk0IiB0cmFuc2Zvcm09InRyYW5zbGF0ZSg1LjAxMjE2LC0zLjc3NzU1KSI+JiN4YTsJCQkJCTx0aXRsZSBpZD0idGl0bGU2ODMwMyI+cmVjdDE1ODgyPC90aXRsZT4mI3hhOwkJCQkJPHJlY3QgaWQ9InJlY3Q2ODMwNSIgeD0iMCIgeT0iNzQuMjciIHN0eWxlPSJmaWxsOiM1NTZBOEE7IiB3aWR0aD0iMy42OSIgaGVpZ2h0PSIwLjU5Ii8+JiN4YTsJCQkJPC9nPiYjeGE7CQkJCTxnIGlkPSJzaGFwZTgzOC0zOTYiPiYjeGE7CQkJCQk8dGl0bGUgaWQ9InRpdGxlNjgzMDgiPnJlY3QxNTg4NDwvdGl0bGU+JiN4YTsJCQkJCTxwYXRoIGlkPSJwYXRoNjgzMTAiIGlua3NjYXBlOmNvbm5lY3Rvci1jdXJ2YXR1cmU9IjAiIHN0eWxlPSJmaWxsOiM1NTZBOEE7IiBkPSJNMCw3NC43NGMwLDAuMDYsMC4wNSwwLjExLDAuMTEsMC4xMSAgICAgICBsMTMuNjQsMC4wMWMwLjA2LDAsMC4xMS0wLjA1LDAuMTEtMC4xMWMwLTAuMDYtMC4wNS0wLjExLTAuMTEtMC4xMUwwLjExLDc0LjYzQzAuMDUsNzQuNjMsMCw3NC42OCwwLDc0Ljc0TDAsNzQuNzR6Ii8+JiN4YTsJCQkJPC9nPiYjeGE7CQkJCTxnIGlkPSJzaGFwZTgzOS0zOTgiIHRyYW5zZm9ybT0idHJhbnNsYXRlKDUuNTI4MTIsLTIuMTM3NTQpIj4mI3hhOwkJCQkJPHRpdGxlIGlkPSJ0aXRsZTY4MzEzIj5yZWN0MTU4ODY8L3RpdGxlPiYjeGE7CQkJCQk8cmVjdCBpZD0icmVjdDY4MzE1IiB4PSIwIiB5PSI3NC40OSIgc3R5bGU9ImZpbGw6IzgwQ0VFOTsiIHdpZHRoPSIyLjgiIGhlaWdodD0iMC4zNyIvPiYjeGE7CQkJCTwvZz4mI3hhOwkJCTwvZz4mI3hhOwkJPC9nPiYjeGE7CTwvZz4mI3hhOzwvZz4mI3hhOzwvc3ZnPg==;" vertex="1" parent="1">
          <mxGeometry x="1010" y="562" width="202" height="134.67" as="geometry" />
        </mxCell>
        <mxCell id="iyrO_WsNyvsdMTxw4tpP-17" value="" style="shape=image;verticalLabelPosition=bottom;labelBackgroundColor=#ffffff;verticalAlign=top;aspect=fixed;imageAspect=0;image=data:image/svg+xml,PHN2ZyB4bWxuczpjYz0iaHR0cDovL2NyZWF0aXZlY29tbW9ucy5vcmcvbnMjIiB4bWxuczpkYz0iaHR0cDovL3B1cmwub3JnL2RjL2VsZW1lbnRzLzEuMS8iIHhtbG5zOmlua3NjYXBlPSJodHRwOi8vd3d3Lmlua3NjYXBlLm9yZy9uYW1lc3BhY2VzL2lua3NjYXBlIiB4bWxuczpyZGY9Imh0dHA6Ly93d3cudzMub3JnLzE5OTkvMDIvMjItcmRmLXN5bnRheC1ucyMiIHhtbG5zOnNvZGlwb2RpPSJodHRwOi8vc29kaXBvZGkuc291cmNlZm9yZ2UubmV0L0RURC9zb2RpcG9kaS0wLmR0ZCIgeG1sbnM6c3ZnPSJodHRwOi8vd3d3LnczLm9yZy8yMDAwL3N2ZyIgeG1sbnM9Imh0dHA6Ly93d3cudzMub3JnLzIwMDAvc3ZnIiB4bWxuczp4bGluaz0iaHR0cDovL3d3dy53My5vcmcvMTk5OS94bGluayIgdmVyc2lvbj0iMS4xIiBpZD0ic3ZnMTU4MyIgaW5rc2NhcGU6dmVyc2lvbj0iMC45Mi4zICgyNDA1NTQ2LCAyMDE4LTAzLTExKSIgc29kaXBvZGk6ZG9jbmFtZT0idW5zZWN1cmVfdW5sb2NrLnN2ZyIgeD0iMHB4IiB5PSIwcHgiIHZpZXdCb3g9IjAgMCA1NCA2MC4yNCIgc3R5bGU9ImVuYWJsZS1iYWNrZ3JvdW5kOm5ldyAwIDAgNTQgNjAuMjQ7IiB4bWw6c3BhY2U9InByZXNlcnZlIj4mI3hhOzxzb2RpcG9kaTpuYW1lZHZpZXcgYm9yZGVyY29sb3I9IiM2NjY2NjYiIGJvcmRlcm9wYWNpdHk9IjEiIGZpdC1tYXJnaW4tYm90dG9tPSIwIiBmaXQtbWFyZ2luLWxlZnQ9IjAiIGZpdC1tYXJnaW4tcmlnaHQ9IjAiIGZpdC1tYXJnaW4tdG9wPSIwIiBncmlkdG9sZXJhbmNlPSIxMCIgZ3VpZGV0b2xlcmFuY2U9IjEwIiBpZD0ibmFtZWR2aWV3MTU4NSIgaW5rc2NhcGU6Y3VycmVudC1sYXllcj0ic3ZnMTU4MyIgaW5rc2NhcGU6Y3g9IjM0LjE3OTM4OCIgaW5rc2NhcGU6Y3k9IjMxLjIzNzc4MyIgaW5rc2NhcGU6cGFnZW9wYWNpdHk9IjAiIGlua3NjYXBlOnBhZ2VzaGFkb3c9IjIiIGlua3NjYXBlOndpbmRvdy1oZWlnaHQ9IjEwMTciIGlua3NjYXBlOndpbmRvdy1tYXhpbWl6ZWQ9IjEiIGlua3NjYXBlOndpbmRvdy13aWR0aD0iMTkyMCIgaW5rc2NhcGU6d2luZG93LXg9Ii04IiBpbmtzY2FwZTp3aW5kb3cteT0iLTgiIGlua3NjYXBlOnpvb209IjcuNjMyNjgwOCIgb2JqZWN0dG9sZXJhbmNlPSIxMCIgcGFnZWNvbG9yPSIjZmZmZmZmIiBzaG93Z3JpZD0iZmFsc2UiPiYjeGE7CTwvc29kaXBvZGk6bmFtZWR2aWV3PiYjeGE7PGcgaWQ9ImcxNTgxIiB0cmFuc2Zvcm09InRyYW5zbGF0ZSgtNC44MDU0Nzc2ZS01LDNlLTQpIj4mI3hhOwk8dGl0bGUgaWQ9InRpdGxlMTU1MSI+UGFnZS0xPC90aXRsZT4mI3hhOwk8ZyBpZD0iZ3JvdXA0NDc0LTEiPiYjeGE7CQk8dGl0bGUgaWQ9InRpdGxlMTU1MyI+VW5zZWN1cmUvVW5sb2NrPC90aXRsZT4mI3hhOwkJPGcgaWQ9InNoYXBlNDQ3NS0yIiB0cmFuc2Zvcm09InRyYW5zbGF0ZSgwLC0zMy4wMDAzKSI+JiN4YTsJCQk8dGl0bGUgaWQ9InRpdGxlMTU1NSI+U2hlZXQuNDQ3NTwvdGl0bGU+JiN4YTsJCQk8cGF0aCBpZD0icGF0aDE1NTciIGlua3NjYXBlOmNvbm5lY3Rvci1jdXJ2YXR1cmU9IjAiIHN0eWxlPSJmaWxsOiM0RDRFNEU7IiBkPSJNMTIsMzNDNS4yOCwzMywwLDM4LjcsMCw0Ni4xNHYxNC4xaDMuNzh2LTE0LjEgICAgIGwwLDBjMC01LjM0LDMuNTQtOS4zNiw4LjIyLTkuMzZjNC41LDAsOC4yOCw0Ljc0LDguMjgsMTAuMzJ2MTMuMTRIMjRWNDcuMWwwLDBDMjQsMzkuNjYsMTguNzgsMzMsMTIsMzN6Ii8+JiN4YTsJCTwvZz4mI3hhOwkJPGcgaWQ9InNoYXBlNDQ3Ni00IiB0cmFuc2Zvcm09InRyYW5zbGF0ZSgxMC40OTk3KSI+JiN4YTsJCQk8dGl0bGUgaWQ9InRpdGxlMTU2MCI+U2hlZXQuNDQ3NjwvdGl0bGU+JiN4YTsJCQk8cGF0aCBpZD0icGF0aDE1NjIiIGlua3NjYXBlOmNvbm5lY3Rvci1jdXJ2YXR1cmU9IjAiIHN0eWxlPSJmaWxsOiM3NzUwQTM7IiBkPSJNNDMuNSwyNy45NnYyNy43OGMwLDIuNDYtMi4wNCw0LjUtNC41LDQuNUg0LjUgICAgIGMtMi40NiwwLTQuNS0yLjA0LTQuNS00LjVWMjcuOTZjMC0yLjQ2LDIuMDQtNC41LDQuNS00LjVIMzlDNDEuNDYsMjMuNDYsNDMuNSwyNS41LDQzLjUsMjcuOTZ6Ii8+JiN4YTsJCTwvZz4mI3hhOwkJPGcgaWQ9InNoYXBlNDQ3Ny02IiB0cmFuc2Zvcm09InRyYW5zbGF0ZSgxNi40OTk2LC0xLjAyMDAxKSI+JiN4YTsJCQk8dGl0bGUgaWQ9InRpdGxlMTU2NSI+U2hlZXQuNDQ3NzwvdGl0bGU+JiN4YTsJCQk8cGF0aCBpZD0icGF0aDE1NjciIGlua3NjYXBlOmNvbm5lY3Rvci1jdXJ2YXR1cmU9IjAiIHN0eWxlPSJmaWxsOiM5MjczQjY7IiBkPSJNMCwyNC40OGwzNS43NiwzNS43NiAgICAgYzEuMDgtMC44NCwxLjc0LTIuMTYsMS43NC0zLjQ4VjI4Ljk4YzAtMi40Ni0yLjA0LTQuNS00LjUtNC41SDB6Ii8+JiN4YTsJCTwvZz4mI3hhOwkJPGcgaWQ9InNoYXBlNDQ3OC04IiB0cmFuc2Zvcm09InRyYW5zbGF0ZSgyNi45OTkzLC0xNS43ODAxKSI+JiN4YTsJCQk8dGl0bGUgaWQ9InRpdGxlMTU3MCI+U2hlZXQuNDQ3ODwvdGl0bGU+JiN4YTsJCQk8cGF0aCBpZD0icGF0aDE1NzIiIGlua3NjYXBlOmNvbm5lY3Rvci1jdXJ2YXR1cmU9IjAiIHN0eWxlPSJmaWxsOiNGRkZGRkY7IiBkPSJNMTAuNSw1NS4wMmMwLDIuODgtMi4zNCw1LjIyLTUuMjIsNS4yMiAgICAgQzIuMzQsNjAuMjQsMCw1Ny45LDAsNTUuMDJjMC0yLjk0LDIuMzQtNS4yOCw1LjI4LTUuMjhDOC4xNiw0OS43NCwxMC41LDUyLjA4LDEwLjUsNTUuMDJ6Ii8+JiN4YTsJCTwvZz4mI3hhOwkJPGcgaWQ9InNoYXBlNDQ3OS0xMCIgdHJhbnNmb3JtPSJ0cmFuc2xhdGUoMzAuNzc5MiwtNy41MDAwNikiPiYjeGE7CQkJPHRpdGxlIGlkPSJ0aXRsZTE1NzUiPlNoZWV0LjQ0Nzk8L3RpdGxlPiYjeGE7CQkJPHBhdGggaWQ9InBhdGgxNTc3IiBpbmtzY2FwZTpjb25uZWN0b3ItY3VydmF0dXJlPSIwIiBzdHlsZT0iZmlsbDojRkZGRkZGOyIgZD0iTTEuNSw0NS4yNGMwLjc4LDAsMS41LDAuNjYsMS41LDEuNXYxMiAgICAgYzAsMC43OC0wLjcyLDEuNS0xLjUsMS41Yy0wLjg0LDAtMS41LTAuNzItMS41LTEuNXYtMTJDMCw0NS45LDAuNjYsNDUuMjQsMS41LDQ1LjI0eiIvPiYjeGE7CQk8L2c+JiN4YTsJPC9nPiYjeGE7PC9nPiYjeGE7PC9zdmc+;" vertex="1" parent="1">
          <mxGeometry x="730" y="450" width="84" height="93.33" as="geometry" />
        </mxCell>
      </root>
    </mxGraphModel>
  </diagram>
</mxfile>
